<svg width="22" height="25" viewBox="0 0 22 25" fill="none" xmlns="http://www.w3.org/2000/svg">
<path d="M21.2633 15.6214L19.0769 13.3344V10.3049C19.0743 8.2114 18.3297 6.19324 16.987 4.64068C15.6443 3.08813 13.7989 2.11147 11.8077 1.89956V0.166992H10.1923V1.89956C8.20108 2.11147 6.35571 3.08813 5.01301 4.64068C3.67031 6.19324 2.92567 8.2114 2.92308 10.3049V13.3344L0.736654 15.6214C0.661622 15.6998 0.602102 15.7929 0.561495 15.8954C0.520888 15.9979 0.499992 16.1078 0.5 16.2187V18.7532C0.5 18.9773 0.585096 19.1921 0.736568 19.3506C0.888039 19.509 1.09348 19.598 1.30769 19.598H6.96154V20.4429C6.96154 21.5632 7.38702 22.6376 8.14438 23.4298C8.90174 24.2219 9.92893 24.667 11 24.667C12.0711 24.667 13.0983 24.2219 13.8556 23.4298C14.613 22.6376 15.0385 21.5632 15.0385 20.4429V19.598H20.6923C20.9065 19.598 21.112 19.509 21.2634 19.3506C21.4149 19.1921 21.5 18.9773 21.5 18.7532V16.2187C21.5 16.1078 21.4791 15.9979 21.4385 15.8954C21.3979 15.7929 21.3384 15.6998 21.2633 15.6214Z" fill="#2C4975"/>
<path d="M8.29498 10.2485L7.5 11.0099L8.74949 12.2064L9.99898 13.4029L14.5 9.09303L13.7025 8.33398L9.99898 11.8802L8.29498 10.2485Z" fill="white"/>
</svg>
