<svg width="22" height="25" viewBox="0 0 22 25" fill="none" xmlns="http://www.w3.org/2000/svg">
<path d="M21.2634 15.6214L19.0769 13.3344V10.3049C19.0743 8.21141 18.3297 6.19325 16.987 4.64069C15.6443 3.08814 13.7989 2.11148 11.8077 1.89957V0.166992H10.1923V1.89957C8.20108 2.11148 6.35571 3.08814 5.01301 4.64069C3.67031 6.19325 2.92567 8.21141 2.92308 10.3049V13.3344L0.736573 15.6214C0.585121 15.7799 0.500024 15.9947 0.5 16.2187V18.7532C0.5 18.9773 0.585096 19.1922 0.736568 19.3506C0.888039 19.509 1.09348 19.598 1.30769 19.598H6.96154V20.2543C6.94403 21.326 7.30522 22.3669 7.97591 23.1773C8.64659 23.9877 9.5796 24.5108 10.5962 24.6463C11.1576 24.7046 11.7245 24.6393 12.2604 24.4547C12.7963 24.27 13.2893 23.9701 13.7077 23.5742C14.1262 23.1782 14.4607 22.6951 14.6899 22.1558C14.9191 21.6165 15.0378 21.033 15.0385 20.4429V19.598H20.6923C20.9065 19.598 21.112 19.509 21.2634 19.3506C21.4149 19.1922 21.5 18.9773 21.5 18.7532V16.2187C21.5 15.9947 21.4149 15.7799 21.2634 15.6214ZM13.4231 20.4429C13.4231 21.1151 13.1678 21.7597 12.7134 22.235C12.259 22.7103 11.6426 22.9774 11 22.9774C10.3574 22.9774 9.74104 22.7103 9.28662 22.235C8.83221 21.7597 8.57692 21.1151 8.57692 20.4429V19.598H13.4231V20.4429ZM19.8846 17.9084H2.11538V16.5686L4.30181 14.2815C4.45329 14.1231 4.53842 13.9083 4.53846 13.6842V10.3049C4.53846 8.51244 5.21923 6.79335 6.431 5.52586C7.64278 4.25837 9.28629 3.54631 11 3.54631C12.7137 3.54631 14.3572 4.25837 15.569 5.52586C16.7808 6.79335 17.4615 8.51244 17.4615 10.3049V13.6842C17.4616 13.9083 17.5467 14.1231 17.6982 14.2815L19.8846 16.5686V17.9084Z" fill="#2C4975"/>
<path fill-rule="evenodd" clip-rule="evenodd" d="M10.4167 11.2507V8.33398H11.5833V11.2507H14.5V12.4173H11.5833V15.334H10.4167V12.4173H7.5V11.2507H10.4167Z" fill="#2C4975"/>
</svg>
