<svg width="24" height="27" viewBox="0 0 24 27" fill="none" xmlns="http://www.w3.org/2000/svg">
<path d="M23.0705 17.0838L20.641 14.6543V11.4362C20.6381 9.21233 19.8108 7.0685 18.3189 5.41927C16.827 3.77003 14.7766 2.73256 12.5641 2.50745V0.666992H10.7692V2.50745C8.55676 2.73256 6.50634 3.77003 5.01445 5.41927C3.52257 7.0685 2.69519 9.21233 2.69231 11.4362V14.6543L0.262859 17.0838C0.0945784 17.2521 2.70274e-05 17.4803 0 17.7183V20.4106C0 20.6486 0.094551 20.8769 0.262853 21.0452C0.431155 21.2135 0.659421 21.308 0.897436 21.308H7.17949V22.0051C7.16003 23.1436 7.56136 24.2492 8.30656 25.1101C9.05177 25.9711 10.0884 26.5267 11.2179 26.6706C11.8418 26.7326 12.4717 26.6632 13.0671 26.467C13.6626 26.2709 14.2104 25.9523 14.6753 25.5317C15.1402 25.1111 15.5119 24.5979 15.7666 24.0251C16.0212 23.4522 16.1531 22.8324 16.1538 22.2055V21.308H22.4359C22.6739 21.308 22.9022 21.2135 23.0705 21.0452C23.2388 20.8769 23.3333 20.6486 23.3333 20.4106V17.7183C23.3333 17.4803 23.2388 17.2521 23.0705 17.0838ZM14.359 22.2055C14.359 22.9195 14.0753 23.6043 13.5704 24.1092C13.0655 24.6141 12.3807 24.8978 11.6667 24.8978C10.9526 24.8978 10.2678 24.6141 9.76292 24.1092C9.25801 23.6043 8.97436 22.9195 8.97436 22.2055V21.308H14.359V22.2055ZM21.5385 19.5131H1.79487V18.0899L4.22423 15.6605C4.39254 15.4922 4.48713 15.264 4.48718 15.026V11.4362C4.48718 9.5321 5.24359 7.70597 6.59 6.35956C7.93642 5.01314 9.76255 4.25674 11.6667 4.25674C13.5708 4.25674 15.3969 5.01314 16.7433 6.35956C18.0897 7.70597 18.8462 9.5321 18.8462 11.4362V15.026C18.8462 15.264 18.9408 15.4922 19.1091 15.6605L21.5385 18.0899V19.5131Z" fill="#F2F8FF"/>
</svg>
