<svg width="20" height="19" viewBox="0 0 20 19" fill="none" xmlns="http://www.w3.org/2000/svg">
<path d="M10 17L9.90995 16.8666C9.28477 15.9404 8.97218 15.4773 8.55919 15.1421C8.19357 14.8453 7.77229 14.6226 7.31944 14.4868C6.80793 14.3333 6.2444 14.3333 5.11734 14.3333H3.88C2.87191 14.3333 2.36786 14.3333 1.98282 14.1396C1.64413 13.9691 1.36876 13.6972 1.19619 13.3626C1 12.9824 1 12.4845 1 11.4889V3.84444C1 2.8488 1 2.35097 1.19619 1.97068C1.36876 1.63617 1.64413 1.36421 1.98282 1.19377C2.36786 1 2.87191 1 3.88 1H4.24C6.25619 1 7.26428 1 8.03437 1.38753C8.71175 1.72842 9.26248 2.27235 9.60762 2.94137C10 3.70194 10 4.69759 10 6.68889M10 17V6.68889M10 17L10.09 16.8666C10.7152 15.9404 11.0278 15.4773 11.4408 15.1421C11.8064 14.8453 12.2277 14.6226 12.6806 14.4868C13.1921 14.3333 13.7556 14.3333 14.8827 14.3333H16.12C17.1281 14.3333 17.6321 14.3333 18.0172 14.1396C18.3559 13.9691 18.6312 13.6972 18.8038 13.3626C19 12.9824 19 12.4845 19 11.4889V3.84444C19 2.8488 19 2.35097 18.8038 1.97068C18.6312 1.63617 18.3559 1.36421 18.0172 1.19377C17.6321 1 17.1281 1 16.12 1H15.76C13.7438 1 12.7357 1 11.9656 1.38753C11.2883 1.72842 10.7375 2.27235 10.3924 2.94137C10 3.70194 10 4.69759 10 6.68889" stroke="#BBCEEB" stroke-opacity="0.9" stroke-width="1.6" stroke-linecap="round"/>
</svg>
