<svg width="72" height="69" viewBox="0 0 72 69" fill="none" xmlns="http://www.w3.org/2000/svg">
<path d="M31.2407 63.4285H8.20906C6.51574 63.4285 5.14285 62.0556 5.14285 60.3623V37.3306C5.14285 35.6372 6.51574 34.2645 8.20906 34.2645H31.2407C32.9342 34.2645 34.3068 35.6372 34.3068 37.3306V60.3623C34.3068 62.0556 32.9342 63.4285 31.2407 63.4285Z" fill="#89ABDC" stroke="#2C4975" stroke-width="3" stroke-miterlimit="10" stroke-linecap="round" stroke-linejoin="round"/>
<path d="M48.8889 22.6611V45.868C48.8889 47.513 47.5554 48.8466 45.9104 48.8466H34.3069V37.3307C34.3069 35.6372 32.9342 34.2646 31.2408 34.2646H19.7249V22.6611C19.7249 21.016 21.0585 19.6826 22.7034 19.6826H45.9104C47.5554 19.6826 48.8889 21.016 48.8889 22.6611Z" stroke="#2C4975" stroke-width="3" stroke-miterlimit="10" stroke-linecap="round" stroke-linejoin="round"/>
<path d="M63.4286 8.12126V31.3282C63.4286 32.9732 62.095 34.3068 60.4501 34.3068H48.889V22.6609C48.889 21.016 47.5554 19.6824 45.9104 19.6824H34.2646V8.12126C34.2646 6.47621 35.5982 5.14278 37.2431 5.14278H60.4501C62.095 5.14278 63.4286 6.47621 63.4286 8.12126Z" stroke="#2C4975" stroke-width="3" stroke-miterlimit="10" stroke-linecap="round" stroke-linejoin="round"/>
<path d="M11.7398 49.1093L16.8879 54.2574L27.7102 43.4352" stroke="#2C4975" stroke-width="3" stroke-miterlimit="10" stroke-linecap="round" stroke-linejoin="round"/>
<path d="M68.5714 7.71426L68.5714 21.8572" stroke="#2C4975" stroke-width="3" stroke-miterlimit="10" stroke-linecap="round" stroke-linejoin="round"/>
<path d="M8.00001 29.7142H13.7143" stroke="#2C4975" stroke-width="3" stroke-miterlimit="10" stroke-linecap="round" stroke-linejoin="round"/>
</svg>
