<svg width="12" height="15" viewBox="0 0 12 15" fill="none" xmlns="http://www.w3.org/2000/svg">
<path fill-rule="evenodd" clip-rule="evenodd" d="M4.13581 14.1671C4.35195 14.2749 4.61424 14.2128 4.75907 14.0195L11.0665 5.60162C11.18 5.45009 11.1982 5.24743 11.1135 5.07809C11.0288 4.90876 10.8557 4.8018 10.6663 4.8018H7.25785L8.95004 1.50955C9.02971 1.35454 9.02292 1.16924 8.93213 1.02048C8.84133 0.871723 8.67962 0.780976 8.50534 0.780976H4.35165C4.15509 0.780976 3.97676 0.896146 3.89591 1.07531L0.877266 7.7645C0.807439 7.91923 0.820892 8.09882 0.91299 8.24143C1.00509 8.38403 1.16325 8.47016 1.33301 8.47016H5.35986L3.8787 13.5805C3.81146 13.8125 3.91966 14.0594 4.13581 14.1671ZM5.60205 11.2268L6.50559 8.10935C6.54936 7.95834 6.51955 7.79553 6.4251 7.66983C6.33066 7.54412 6.18259 7.47016 6.02536 7.47016H2.1072L4.67457 1.78098H7.68617L5.99398 5.07323C5.91431 5.22823 5.92109 5.41354 6.01189 5.5623C6.10269 5.71105 6.26439 5.8018 6.43867 5.8018H9.66691L5.60205 11.2268Z" fill="#051D41"/>
</svg>
