<svg width="24" height="24" viewBox="0 0 24 24" fill="none" xmlns="http://www.w3.org/2000/svg">
<path d="M19.9331 18.3948L18.7661 14.9984C19.3274 13.8637 19.6243 12.599 19.6263 11.3264C19.6297 9.13488 18.7818 7.06271 17.2387 5.49167C15.6954 3.92034 13.6388 3.03587 11.4479 3.00111C10.3 2.98268 9.18619 3.19418 8.13564 3.62905C7.12238 4.0485 6.21371 4.65608 5.4349 5.4349C4.65606 6.21371 4.04847 7.12238 3.62905 8.13564C3.19419 9.18618 2.98292 10.3006 3.00108 11.4479C3.03578 13.6388 3.92027 15.6954 5.49161 17.2387C7.0596 18.7788 9.12643 19.6264 11.3132 19.6264C11.3175 19.6264 11.322 19.6264 11.3263 19.6264C12.5989 19.6244 13.8636 19.3275 14.9983 18.7662L18.3948 19.9332C18.5254 19.9781 18.6593 20 18.7917 20C19.1063 20 19.4123 19.8764 19.6443 19.6443C19.974 19.3147 20.0847 18.8359 19.9331 18.3948ZM18.9316 18.9317C18.8981 18.9651 18.8266 19.0158 18.7223 18.98L15.1232 17.7434C15.07 17.7251 15.0147 17.716 14.9595 17.716C14.8781 17.716 14.7972 17.7357 14.7238 17.7745C13.6837 18.3248 12.5083 18.6166 11.3247 18.6184C7.35524 18.6248 4.07171 15.4007 4.00883 11.4319C3.97718 9.43511 4.73674 7.55843 6.14757 6.1476C7.55841 4.7368 9.43452 3.97738 11.4319 4.00896C15.4007 4.07187 18.6245 7.35377 18.6183 11.3248C18.6165 12.5084 18.3247 13.6838 17.7744 14.7239C17.7093 14.847 17.698 14.9916 17.7433 15.1233L18.98 18.7223C19.0158 18.8266 18.965 18.8983 18.9316 18.9317Z" fill="#F2F8FF"/>
</svg>
