<svg width="24" height="24" viewBox="0 0 24 24" fill="none" xmlns="http://www.w3.org/2000/svg">
<path d="M16.7695 14.2627H17.6188C18.9287 14.2627 20.0003 12.9692 20.0003 11.3884V8.0829" stroke="#F2F8FF" stroke-miterlimit="10" stroke-linecap="round" stroke-linejoin="round"/>
<path d="M19.9909 8.01074V5.33038C19.9909 4.04847 18.9219 2.99961 17.6153 2.99961H7.59823C6.29169 2.99961 5.22266 4.04847 5.22266 5.33038V6.01687" stroke="#F2F8FF" stroke-miterlimit="10" stroke-linecap="round" stroke-linejoin="round"/>
<path d="M10.3877 17.2829H8.47261H4.37558C3.069 17.2829 2 16.2341 2 14.9522V8.34836C2 7.06645 3.069 6.01763 4.37558 6.01763H14.3927C15.6992 6.01763 16.7683 7.06645 16.7683 8.34836V14.9522C16.7683 16.2341 16.2942 17.2829 14.3927 17.283C13.1313 17.2829 9.61542 20.7361 10.0148 19.8566C10.3755 19.1347 10.6194 18.4304 10.7789 17.7644C10.8378 17.5182 10.6454 17.2829 10.3877 17.2829Z" stroke="#F2F8FF" stroke-miterlimit="10" stroke-linecap="round" stroke-linejoin="round"/>
</svg>
