<svg width="12" height="13" viewBox="0 0 12 13" fill="none" xmlns="http://www.w3.org/2000/svg">
<path d="M6.7462 12.0706L6.00049 11.642L7.71477 8.64202H10.2862C10.5135 8.64202 10.7315 8.55171 10.8923 8.39097C11.053 8.23022 11.1433 8.01221 11.1433 7.78488V2.64202C11.1433 2.41469 11.053 2.19667 10.8923 2.03593C10.7315 1.87518 10.5135 1.78488 10.2862 1.78488H1.71477C1.48745 1.78488 1.26943 1.87518 1.10868 2.03593C0.947937 2.19667 0.857631 2.41469 0.857631 2.64202V7.78488C0.857631 8.01221 0.947937 8.23022 1.10868 8.39097C1.26943 8.55171 1.48745 8.64202 1.71477 8.64202H5.57192V9.49916H1.71477C1.26012 9.49916 0.824082 9.31855 0.502591 8.99706C0.1811 8.67557 0.000488281 8.23953 0.000488281 7.78488V2.64202C0.000488281 2.18736 0.1811 1.75133 0.502591 1.42984C0.824082 1.10835 1.26012 0.927734 1.71477 0.927734H10.2862C10.7409 0.927734 11.1769 1.10835 11.4984 1.42984C11.8199 1.75133 12.0005 2.18736 12.0005 2.64202V7.78488C12.0005 8.23953 11.8199 8.67557 11.4984 8.99706C11.1769 9.31855 10.7409 9.49916 10.2862 9.49916H8.21192L6.7462 12.0706Z" fill="#818790"/>
</svg>
