<svg width="20" height="19" viewBox="0 0 20 19" fill="none" xmlns="http://www.w3.org/2000/svg">
<path d="M15.7695 12.2626H16.6188C17.9287 12.2626 19.0003 10.9691 19.0003 9.38828V6.08278" stroke="#2C4975" stroke-width="1.5" stroke-miterlimit="10" stroke-linecap="round" stroke-linejoin="round"/>
<path d="M18.9909 6.01086V3.3305C18.9909 2.04859 17.9219 0.999727 16.6153 0.999727H6.59823C5.29169 0.999727 4.22266 2.04859 4.22266 3.3305V4.01699" stroke="#2C4975" stroke-width="1.5" stroke-miterlimit="10" stroke-linecap="round" stroke-linejoin="round"/>
<path d="M9.38766 15.2826H7.47261H3.37558C2.069 15.2826 1 14.2337 1 12.9518V6.348C1 5.06608 2.069 4.01726 3.37558 4.01726H13.3927C14.6992 4.01726 15.7683 5.06608 15.7683 6.348V12.9518C15.7683 14.2337 15.2942 15.2826 13.3927 15.2826C12.1313 15.2826 8.61542 18.7357 9.01484 17.8562C9.37546 17.1343 9.61944 16.43 9.77887 15.7641C9.83783 15.5179 9.64544 15.2826 9.38766 15.2826Z" stroke="#2C4975" stroke-width="1.5" stroke-miterlimit="10" stroke-linecap="round" stroke-linejoin="round"/>
</svg>
