<svg width="36" height="32" viewBox="0 0 36 32" fill="none" xmlns="http://www.w3.org/2000/svg">
<path d="M2.16687 11H33.8335M14.6669 1L11.3335 11L18.0002 30.1667L24.6669 11L21.3335 1M19.0245 29.7708L33.9556 11.8536C34.2086 11.5499 34.3351 11.3981 34.3835 11.2286C34.4261 11.0792 34.4261 10.9208 34.3835 10.7714C34.3351 10.6019 34.2086 10.4501 33.9556 10.1464L26.7333 1.47975C26.5864 1.30341 26.5129 1.21523 26.4228 1.15184C26.343 1.09568 26.254 1.05397 26.1597 1.02862C26.0534 1 25.9386 1 25.709 1H10.2914C10.0618 1 9.94704 1 9.84068 1.02862C9.74644 1.05397 9.65739 1.09568 9.57758 1.15184C9.48751 1.21523 9.41403 1.30341 9.26708 1.47975L2.04485 10.1464C1.79181 10.4501 1.66528 10.6019 1.61693 10.7714C1.5743 10.9208 1.5743 11.0792 1.61693 11.2286C1.66528 11.3981 1.79181 11.5499 2.04485 11.8536L16.9759 29.7708C17.3277 30.193 17.5035 30.404 17.7141 30.481C17.8989 30.5485 18.1015 30.5485 18.2863 30.481C18.4969 30.404 18.6727 30.193 19.0245 29.7708Z" stroke="#BBCEEB" stroke-width="2" stroke-linecap="round" stroke-linejoin="round"/>
</svg>
