<svg width="12" height="18" viewBox="0 0 12 18" fill="none" xmlns="http://www.w3.org/2000/svg">
<path d="M2.25001 11.2539C3.49266 11.2539 4.50002 10.2466 4.50002 9.00392C4.50002 7.76127 3.49266 6.75391 2.25001 6.75391C1.00736 6.75391 0 7.76127 0 9.00392C0 10.2466 1.00736 11.2539 2.25001 11.2539Z" fill="#D4E1F5"/>
<path d="M9.75001 11.2539C10.9927 11.2539 12 10.2466 12 9.00392C12 7.76127 10.9927 6.75391 9.75001 6.75391C8.50736 6.75391 7.5 7.76127 7.5 9.00392C7.5 10.2466 8.50736 11.2539 9.75001 11.2539Z" fill="#D4E1F5"/>
<path d="M2.25001 4.50002C3.49266 4.50002 4.50002 3.49266 4.50002 2.25001C4.50002 1.00736 3.49266 0 2.25001 0C1.00736 0 0 1.00736 0 2.25001C0 3.49266 1.00736 4.50002 2.25001 4.50002Z" fill="#D4E1F5"/>
<path d="M9.74995 4.50002C10.9926 4.50002 12 3.49266 12 2.25001C12 1.00736 10.9926 0 9.74995 0C8.5073 0 7.49994 1.00736 7.49994 2.25001C7.49994 3.49266 8.5073 4.50002 9.74995 4.50002Z" fill="#D4E1F5"/>
<path d="M2.25001 18C3.49266 18 4.50002 16.9927 4.50002 15.75C4.50002 14.5074 3.49266 13.5 2.25001 13.5C1.00736 13.5 0 14.5074 0 15.75C0 16.9927 1.00736 18 2.25001 18Z" fill="#D4E1F5"/>
<path d="M9.75001 18C10.9927 18 12 16.9927 12 15.75C12 14.5074 10.9927 13.5 9.75001 13.5C8.50736 13.5 7.5 14.5074 7.5 15.75C7.5 16.9927 8.50736 18 9.75001 18Z" fill="#D4E1F5"/>
</svg>
