<svg width="22" height="22" viewBox="0 0 22 22" fill="none" xmlns="http://www.w3.org/2000/svg">
<path d="M20.3321 2.69299L19.1315 1.50503L18.2031 0.587205C18.0498 0.427887 17.8654 0.301044 17.661 0.214372C17.4566 0.1277 17.2366 0.0830078 17.0142 0.0830078C16.7918 0.0830078 16.5717 0.1277 16.3674 0.214372C16.163 0.301044 15.9785 0.427887 15.8252 0.587205L0.538574 15.7071V21.083H5.97383L21.2605 5.96316C21.4215 5.81151 21.5498 5.62908 21.6374 5.42693C21.725 5.22477 21.7702 5.00712 21.7702 4.78717C21.7702 4.56723 21.725 4.34957 21.6374 4.14742C21.5498 3.94527 21.4215 3.76283 21.2605 3.61118L20.3321 2.69299ZM5.29442 19.4031H2.23709V16.3791L17.0142 1.7632L20.0715 4.78717L5.29442 19.4031Z" fill="#2C4975"/>
</svg>
