<svg width="30" height="22" viewBox="0 0 30 22" fill="none" xmlns="http://www.w3.org/2000/svg">
<path d="M27.8571 0H2.14286C1.57454 0 1.02949 0.228273 0.627628 0.634602C0.225765 1.04093 0 1.59203 0 2.16667V19.5C0 20.0746 0.225765 20.6257 0.627628 21.0321C1.02949 21.4384 1.57454 21.6667 2.14286 21.6667H27.8571C28.4255 21.6667 28.9705 21.4384 29.3724 21.0321C29.7742 20.6257 30 20.0746 30 19.5V2.16667C30 1.59203 29.7742 1.04093 29.3724 0.634602C28.9705 0.228273 28.4255 0 27.8571 0ZM25.5 2.16667L15 9.51167L4.5 2.16667H25.5ZM2.14286 19.5V3.1525L14.3893 11.7217C14.5686 11.8475 14.7817 11.9149 15 11.9149C15.2183 11.9149 15.4314 11.8475 15.6107 11.7217L27.8571 3.1525V19.5H2.14286Z" fill="#BBCEEB"/>
</svg>
