<svg width="18" height="15" viewBox="0 0 18 15" fill="none" xmlns="http://www.w3.org/2000/svg">
<path d="M1 3.4375L7.634 8.0813C8.1712 8.45734 8.4398 8.64536 8.73197 8.71819C8.99004 8.78252 9.25996 8.78252 9.51804 8.71819C9.8102 8.64536 10.0788 8.45734 10.616 8.0813L17.25 3.4375M4.9 14H13.35C14.7151 14 15.3977 14 15.9191 13.7343C16.3777 13.5006 16.7506 13.1277 16.9843 12.6691C17.25 12.1477 17.25 11.4651 17.25 10.1V4.9C17.25 3.53487 17.25 2.85231 16.9843 2.3309C16.7506 1.87225 16.3777 1.49936 15.9191 1.26567C15.3977 1 14.7151 1 13.35 1H4.9C3.53487 1 2.85231 1 2.3309 1.26567C1.87225 1.49936 1.49936 1.87225 1.26567 2.3309C1 2.85231 1 3.53487 1 4.9V10.1C1 11.4651 1 12.1477 1.26567 12.6691C1.49936 13.1277 1.87225 13.5006 2.3309 13.7343C2.85231 14 3.53487 14 4.9 14Z" stroke="#2C4975" stroke-width="1.5" stroke-linecap="round" stroke-linejoin="round"/>
</svg>
