<svg width="72" height="72" viewBox="0 0 72 72" fill="none" xmlns="http://www.w3.org/2000/svg">
<path d="M32.63 32.4504L25.911 35.6727C21.491 35.6727 17.914 39.2905 17.9354 43.7389L17.9569 48.187C17.9771 53.7312 21.058 58.8043 25.9512 61.3507C25.9512 65.0631 28.9415 68.0727 32.63 68.0727H46.7488C50.4373 68.0727 53.4275 65.0631 53.4275 61.3507V60.0153C56.3396 57.4432 58.0093 53.7328 58.0093 49.8332V36.4836C58.0093 34.2561 56.2153 32.4504 54.002 32.4504C51.7888 32.4504 49.9948 34.2562 49.9948 36.4838L47.2093 34.3227" fill="#89ABDC"/>
<path d="M32.63 32.4504L25.911 35.6727C21.491 35.6727 17.914 39.2905 17.9354 43.7389L17.9569 48.187C17.9771 53.7312 21.058 58.8043 25.9512 61.3507C25.9512 65.0631 28.9415 68.0727 32.63 68.0727H46.7488C50.4373 68.0727 53.4275 65.0631 53.4275 61.3507V60.0153C56.3396 57.4432 58.0093 53.7328 58.0093 49.8332V36.4836C58.0093 34.2561 56.2153 32.4504 54.002 32.4504C51.7888 32.4504 49.9948 34.2562 49.9948 36.4838L47.2093 34.3227" stroke="#2C4975" stroke-width="3" stroke-miterlimit="10" stroke-linecap="round" stroke-linejoin="round"/>
<path d="M33.9255 33.1183V19.5399C33.9255 17.3124 32.1315 15.5067 29.9183 15.5067C27.7051 15.5067 25.911 17.3124 25.911 19.5399V41.0503" fill="#89ABDC"/>
<path d="M33.9255 33.1183V19.5399C33.9255 17.3124 32.1315 15.5067 29.9183 15.5067C27.7051 15.5067 25.911 17.3124 25.911 19.5399V41.0503" stroke="#2C4975" stroke-width="3" stroke-miterlimit="10" stroke-linecap="round" stroke-linejoin="round"/>
<path d="M41.9399 36.0452V34.5602C41.9399 32.3326 40.1459 30.527 37.9327 30.527C35.7195 30.527 33.9254 32.3326 33.9254 34.5602V36.0452" fill="#89ABDC"/>
<path d="M41.9399 36.0452V34.5602C41.9399 32.3326 40.1459 30.527 37.9327 30.527C35.7195 30.527 33.9254 32.3326 33.9254 34.5602V36.0452" stroke="#2C4975" stroke-width="3" stroke-miterlimit="10" stroke-linecap="round" stroke-linejoin="round"/>
<path d="M49.9744 37.3793V36.0392C49.9744 33.8116 48.1803 32.006 45.9671 32.006C43.7539 32.006 41.9598 33.8116 41.9598 36.0392V37.3793" fill="#89ABDC"/>
<path d="M49.9744 37.3793V36.0392C49.9744 33.8116 48.1803 32.006 45.9671 32.006C43.7539 32.006 41.9598 33.8116 41.9598 36.0392V37.3793" stroke="#2C4975" stroke-width="3" stroke-miterlimit="10" stroke-linecap="round" stroke-linejoin="round"/>
<path d="M41.9598 19.54H45.9671" stroke="#2C4975" stroke-width="3" stroke-miterlimit="10" stroke-linecap="round" stroke-linejoin="round"/>
<path d="M38.4386 10.9843L41.2723 8.13245" stroke="#2C4975" stroke-width="3" stroke-miterlimit="10" stroke-linecap="round" stroke-linejoin="round"/>
<path d="M21.4372 10.9846L18.6037 8.13269" stroke="#2C4975" stroke-width="3" stroke-miterlimit="10" stroke-linecap="round" stroke-linejoin="round"/>
<path d="M13.9091 19.54H17.9164" stroke="#2C4975" stroke-width="3" stroke-miterlimit="10" stroke-linecap="round" stroke-linejoin="round"/>
<path d="M29.938 7.17146V3.27271" stroke="#2C4975" stroke-width="3" stroke-miterlimit="10" stroke-linecap="round" stroke-linejoin="round"/>
</svg>
