<svg width="185" height="200" viewBox="0 0 185 200" fill="none" xmlns="http://www.w3.org/2000/svg">
<path d="M184.158 94.7408V193.001C184.158 196.867 181.024 200.001 177.158 200.001H109.465L101.216 199.81L92.9669 200.001H6.99999C3.134 200.001 0 196.867 0 193.001V94.6177C0 94.2685 0.0102046 93.9194 0.0102046 93.5698C0.0102046 93.3848 0.0204093 93.21 0.0204093 93.0357C0.0514633 91.4024 0.113126 89.7895 0.226695 88.1771C0.743079 80.9759 2.08506 74.0219 4.18076 67.3858C4.74861 65.5468 5.38876 63.7287 6.08038 61.9414C7.6597 57.8222 9.53891 53.8468 11.6861 50.0463C13.6682 46.5128 15.8881 43.1228 18.3139 39.8974C19.5321 38.2642 20.8124 36.6821 22.1442 35.1412C22.4849 34.7505 22.8256 34.3603 23.1663 33.9803C26.3356 30.4159 29.7941 27.0978 33.4798 24.0574C34.1302 23.5233 34.7907 22.9993 35.4517 22.4855C36.9796 21.2941 38.5487 20.1641 40.1493 19.0752C40.9341 18.5309 41.7286 18.0171 42.5236 17.5037C44.4232 16.3018 46.3539 15.1616 48.3361 14.0934C48.439 14.0422 48.5321 13.9906 48.6355 13.9394C49.5543 13.4463 50.4837 12.9736 51.4126 12.522C57.5037 9.53277 63.9767 7.19064 70.7389 5.59847C77.5836 3.97541 84.7278 3.12305 92.0783 3.12305C97.0851 3.12305 102.01 3.52385 106.8 4.29411C113.17 5.30096 119.313 6.96508 125.177 9.21451C128.148 10.3538 131.036 11.6368 133.842 13.0634C133.846 13.0656 133.85 13.0684 133.854 13.0718C133.857 13.0751 133.861 13.0779 133.865 13.0801C137.311 14.8255 140.643 16.7865 143.821 18.9423C144.544 19.4354 145.267 19.9284 145.969 20.4524C146.949 21.1405 147.91 21.8596 148.849 22.6095C149.211 22.8872 149.572 23.1745 149.933 23.4623C149.964 23.4831 149.995 23.5135 150.026 23.5343C152.525 25.5476 154.92 27.6946 157.191 29.9546C157.986 30.7456 158.77 31.5569 159.534 32.3788C161.527 34.5051 163.406 36.7241 165.182 39.0251C168.991 43.9663 172.305 49.2976 175.041 54.9574C176.373 57.6796 177.56 60.4839 178.613 63.3601C178.634 63.4219 178.665 63.4938 178.685 63.5653C178.727 63.6682 178.768 63.7812 178.799 63.8942C179.067 64.6238 179.326 65.3531 179.563 66.0823C179.573 66.1233 179.594 66.175 179.604 66.216C179.645 66.3498 179.697 66.4932 179.738 66.627C179.779 66.7607 179.821 66.8839 179.862 67.0172C180.295 68.3833 180.708 69.7601 181.07 71.1466C181.121 71.3315 181.173 71.5165 181.215 71.7014C181.741 73.6736 182.185 75.6768 182.567 77.7108C182.608 77.8957 182.639 78.0807 182.671 78.2758C183.104 80.6382 183.445 83.032 183.693 85.4562C183.713 85.6513 183.734 85.8464 183.744 86.0415C183.868 87.3053 183.961 88.5787 184.023 89.8628C184.044 90.0579 184.054 90.253 184.054 90.4481C184.095 91.3521 184.126 92.2561 184.137 93.1703C184.147 93.3552 184.147 93.5503 184.147 93.7353C184.158 94.073 184.158 94.4018 184.158 94.7408Z" fill="url(#paint0_radial_1976_3049)"/>
<g filter="url(#filter0_d_1976_3049)">
<rect x="28.6805" y="38.9316" width="102.942" height="149.242" rx="8" fill="#051D41"/>
<rect x="29.6805" y="39.9316" width="100.942" height="147.242" rx="7" stroke="#84A7DA" stroke-width="2"/>
</g>
<path d="M81.7771 183.834C79.387 183.834 77.4425 181.886 77.4425 179.492C77.4425 177.098 79.387 175.15 81.7771 175.15C84.1671 175.15 86.1113 177.098 86.1113 179.492C86.1113 181.885 84.1671 183.834 81.7771 183.834ZM81.7771 175.543C79.603 175.543 77.8348 177.315 77.8348 179.492C77.8348 181.669 79.603 183.441 81.7771 183.441C83.9508 183.441 85.719 181.669 85.719 179.492C85.719 177.315 83.9508 175.543 81.7771 175.543Z" fill="#476085"/>
<rect x="41.6" y="46.4453" width="80.8953" height="123.363" fill="#051D41" stroke="#476085" stroke-width="2"/>
<path d="M33.4313 38.9316V37.4316H31.9313C29.3075 37.4316 27.1805 39.5587 27.1805 42.1824V184.923C27.1805 187.546 29.3075 189.673 31.9313 189.673H33.4313V188.173V38.9316Z" fill="#051D41" stroke="#1B3761" stroke-width="3"/>
<line x1="41.6838" y1="49.3281" x2="122.412" y2="49.3281" stroke="#5D7AA5" stroke-width="2"/>
<line x1="41.6838" y1="74.834" x2="122.412" y2="74.834" stroke="#84A7DA" stroke-width="2"/>
<rect x="25.646" y="71.1367" width="54.6195" height="43.6962" fill="#051D41" stroke="#476085" stroke-width="2"/>
<rect x="86.4796" y="79.5938" width="31.4244" height="13.0247" fill="#476085"/>
<line x1="87.1532" y1="96.5" x2="117.578" y2="96.5" stroke="#476085" stroke-linecap="round"/>
<line x1="87.1532" y1="100.842" x2="117.578" y2="100.842" stroke="#476085" stroke-linecap="round"/>
<line x1="87.1532" y1="105.184" x2="117.578" y2="105.184" stroke="#476085" stroke-linecap="round"/>
<line x1="87.1532" y1="109.525" x2="117.578" y2="109.525" stroke="#476085" stroke-linecap="round"/>
<line x1="87.1532" y1="113.867" x2="117.578" y2="113.867" stroke="#476085" stroke-linecap="round"/>
<line x1="49.2267" y1="123.094" x2="79.651" y2="123.094" stroke="#476085" stroke-linecap="round"/>
<line x1="49.2267" y1="127.436" x2="79.651" y2="127.436" stroke="#476085" stroke-linecap="round"/>
<line x1="49.2267" y1="131.777" x2="79.651" y2="131.777" stroke="#476085" stroke-linecap="round"/>
<line x1="49.2267" y1="136.119" x2="79.651" y2="136.119" stroke="#476085" stroke-linecap="round"/>
<line x1="49.2267" y1="140.461" x2="79.651" y2="140.461" stroke="#476085" stroke-linecap="round"/>
<line x1="87.1532" y1="140.455" x2="117.578" y2="140.455" stroke="#476085" stroke-linecap="round"/>
<line x1="87.1532" y1="144.797" x2="117.578" y2="144.797" stroke="#476085" stroke-linecap="round"/>
<line x1="87.1532" y1="149.139" x2="117.578" y2="149.139" stroke="#476085" stroke-linecap="round"/>
<line x1="87.1532" y1="153.48" x2="117.578" y2="153.48" stroke="#476085" stroke-linecap="round"/>
<line x1="87.1532" y1="157.822" x2="117.578" y2="157.822" stroke="#476085" stroke-linecap="round"/>
<line x1="49.2267" y1="148.6" x2="79.651" y2="148.6" stroke="#476085" stroke-linecap="round"/>
<line x1="49.2266" y1="152.941" x2="79.6509" y2="152.941" stroke="#476085" stroke-linecap="round"/>
<line x1="49.2266" y1="157.283" x2="79.6509" y2="157.283" stroke="#476085" stroke-linecap="round"/>
<line x1="87.1531" y1="123.094" x2="117.577" y2="123.094" stroke="#476085" stroke-linecap="round"/>
<line x1="86.979" y1="127.633" x2="117.403" y2="127.633" stroke="#476085" stroke-linecap="round"/>
<line x1="87.1531" y1="131.777" x2="117.577" y2="131.777" stroke="#476085" stroke-linecap="round"/>
<rect x="92.9089" y="132.107" width="59.1711" height="48.2691" fill="#051D41" stroke="#BBCEEB" stroke-width="2"/>
<path d="M66.011 104.528V82.5191H58.0451V104.528H54.0621V90.5222H46.0962V104.528H42.1132V78.5176H40.1217V104.528C40.1217 105.058 40.3315 105.567 40.705 105.942C41.0785 106.318 41.585 106.528 42.1132 106.528H68.0025V104.528H66.011ZM60.0366 84.5199H64.0195V94.5238H60.0366V84.5199ZM48.0876 92.523H52.0706V98.5254H48.0876V92.523Z" fill="#476085"/>
<path d="M135.616 157.549C135.612 153.57 134.037 149.756 131.237 146.943C128.437 144.13 124.64 142.547 120.68 142.543H119.684V148.604C117.666 148.834 115.785 149.745 114.349 151.188C112.912 152.631 112.006 154.521 111.777 156.548H109.727V157.549C109.731 160.293 110.754 162.936 112.595 164.962C114.437 166.988 116.965 168.25 119.684 168.502V170.554H120.68C123.938 170.549 127.075 169.31 129.465 167.085C131.854 164.861 133.322 161.813 133.574 158.549H135.616V157.549ZM121.676 144.582C124.754 144.825 127.646 146.164 129.829 148.357C132.013 150.551 133.345 153.456 133.587 156.548H121.676V144.582ZM119.684 150.626V156.548H113.79C114.006 155.055 114.697 153.672 115.759 152.605C116.821 151.538 118.198 150.844 119.684 150.626ZM111.774 158.549H119.684V166.491C117.666 166.262 115.784 165.352 114.347 163.91C112.91 162.467 112.003 160.577 111.774 158.549ZM121.676 168.508V158.549H131.589C131.352 161.11 130.232 163.508 128.422 165.327C126.612 167.145 124.225 168.271 121.676 168.508Z" fill="#476085"/>
<path d="M126.5 34.9989L126.65 34.7892H126.907H131.119C131.938 34.7892 132.656 34.5748 133.154 34.2547C133.658 33.9311 133.88 33.5441 133.88 33.1931V2.09576C133.88 1.74494 133.658 1.35803 133.154 1.03445C132.656 0.714321 131.938 0.49995 131.119 0.49995H83.5272C82.708 0.49995 81.9896 0.714321 81.4915 1.03445C80.988 1.35804 80.766 1.74494 80.766 2.09576V33.1931C80.766 33.5441 80.988 33.9311 81.4915 34.2547C81.9896 34.5748 82.708 34.7892 83.5272 34.7892H121.373H121.588L121.736 34.9447L124.48 37.8315L126.5 34.9989Z" fill="#051D41" stroke="#8AA6D0"/>
<path d="M104.974 28.1797H130.717V6.78473H104.974V28.1797Z" fill="#476085" stroke="#476085" stroke-width="2"/>
<line x1="84.4437" y1="8.13672" x2="100.271" y2="8.13672" stroke="#8AA6D0" stroke-linecap="round"/>
<line x1="84.4437" y1="12.8418" x2="100.271" y2="12.8418" stroke="#8AA6D0" stroke-linecap="round"/>
<line x1="84.4437" y1="17.5449" x2="100.271" y2="17.5449" stroke="#8AA6D0" stroke-linecap="round"/>
<line x1="84.4437" y1="14.9375" x2="100.271" y2="14.9375" stroke="#8AA6D0" stroke-linecap="round"/>
<line x1="84.4437" y1="10.2402" x2="100.271" y2="10.2402" stroke="#8AA6D0" stroke-linecap="round"/>
<line x1="84.4437" y1="19.6328" x2="100.271" y2="19.6328" stroke="#8AA6D0" stroke-linecap="round"/>
<line x1="84.4437" y1="24.8496" x2="100.271" y2="24.8496" stroke="#8AA6D0" stroke-linecap="round"/>
<line x1="84.4437" y1="22.25" x2="100.271" y2="22.25" stroke="#8AA6D0" stroke-linecap="round"/>
<line x1="84.4437" y1="26.9551" x2="100.271" y2="26.9551" stroke="#8AA6D0" stroke-linecap="round"/>
<defs>
<filter id="filter0_d_1976_3049" x="25.6805" y="38.9316" width="110.942" height="157.242" filterUnits="userSpaceOnUse" color-interpolation-filters="sRGB">
<feFlood flood-opacity="0" result="BackgroundImageFix"/>
<feColorMatrix in="SourceAlpha" type="matrix" values="0 0 0 0 0 0 0 0 0 0 0 0 0 0 0 0 0 0 127 0" result="hardAlpha"/>
<feOffset dx="1" dy="4"/>
<feGaussianBlur stdDeviation="2"/>
<feComposite in2="hardAlpha" operator="out"/>
<feColorMatrix type="matrix" values="0 0 0 0 0.0196078 0 0 0 0 0.113725 0 0 0 0 0.254902 0 0 0 0.5 0"/>
<feBlend mode="normal" in2="BackgroundImageFix" result="effect1_dropShadow_1976_3049"/>
<feBlend mode="normal" in="SourceGraphic" in2="effect1_dropShadow_1976_3049" result="shape"/>
</filter>
<radialGradient id="paint0_radial_1976_3049" cx="0" cy="0" r="1" gradientUnits="userSpaceOnUse" gradientTransform="translate(92.0792 101.562) rotate(46.9119) scale(134.792 123.212)">
<stop stop-color="#20395F" stop-opacity="0"/>
<stop offset="1" stop-color="#20395F"/>
</radialGradient>
</defs>
</svg>
