<svg width="24" height="24" viewBox="0 0 24 24" fill="none" xmlns="http://www.w3.org/2000/svg">
<path d="M15.4 3V4.4H18.62L14 9.02L14.98 10L19.6 5.38V8.6H21V3H15.4Z" fill="#2C4975"/>
<path d="M17.6667 19.6667H4.33333V6.33333H13V5H4.33333C3.98003 5.00104 3.64149 5.14185 3.39167 5.39167C3.14185 5.64149 3.00104 5.98003 3 6.33333V19.6667C3.00104 20.02 3.14185 20.3585 3.39167 20.6083C3.64149 20.8582 3.98003 20.999 4.33333 21H17.6667C18.02 20.999 18.3585 20.8582 18.6083 20.6083C18.8582 20.3585 18.999 20.02 19 19.6667V11H17.6667V19.6667Z" fill="#2C4975"/>
</svg>
