<svg width="24" height="17" viewBox="0 0 24 17" fill="none" xmlns="http://www.w3.org/2000/svg">
<path fill-rule="evenodd" clip-rule="evenodd" d="M0 0H24V1.71429H0V0ZM1.71429 12.5709H22.2857C22.7402 12.5704 23.176 12.3896 23.4974 12.0682C23.8188 11.7469 23.9995 11.3111 24 10.8566V5.71373C23.9995 5.25922 23.8188 4.82346 23.4974 4.50207C23.176 4.18068 22.7402 3.99992 22.2857 3.99944H1.71429C1.25978 3.99992 0.824017 4.18068 0.502629 4.50207C0.181241 4.82346 0.000476486 5.25922 0 5.71373V10.8566C0.000476486 11.3111 0.181241 11.7469 0.502629 12.0682C0.824017 12.3896 1.25978 12.5704 1.71429 12.5709ZM1.71429 10.8566V5.71373H22.2857V10.8566H1.71429Z" fill="#051D41"/>
<path d="M24 15.1426H0V16.8569H24V15.1426Z" fill="#051D41"/>
</svg>
