<svg width="22" height="22" viewBox="0 0 22 22" fill="none" xmlns="http://www.w3.org/2000/svg">
<path fill-rule="evenodd" clip-rule="evenodd" d="M11 0.5C8.9233 0.5 6.89323 1.11581 5.16652 2.26957C3.4398 3.42332 2.09399 5.0632 1.29927 6.98182C0.504549 8.90045 0.296614 11.0116 0.701759 13.0484C1.1069 15.0852 2.10693 16.9562 3.57538 18.4246C5.04383 19.8931 6.91476 20.8931 8.95156 21.2982C10.9884 21.7034 13.0996 21.4955 15.0182 20.7007C16.9368 19.906 18.5767 18.5602 19.7304 16.8335C20.8842 15.1068 21.5 13.0767 21.5 11C21.5 8.21523 20.3938 5.54451 18.4246 3.57538C16.4555 1.60625 13.7848 0.5 11 0.5ZM11 20C9.21997 20 7.47992 19.4722 5.99987 18.4832C4.51983 17.4943 3.36628 16.0887 2.68509 14.4442C2.0039 12.7996 1.82567 10.99 2.17294 9.24419C2.5202 7.49836 3.37737 5.89471 4.63604 4.63604C5.89472 3.37737 7.49836 2.5202 9.24419 2.17293C10.99 1.82567 12.7996 2.0039 14.4442 2.68508C16.0887 3.36627 17.4943 4.51983 18.4832 5.99987C19.4722 7.47991 20 9.21997 20 11C20 13.3869 19.0518 15.6761 17.364 17.364C15.6761 19.0518 13.387 20 11 20ZM11 17.75C11.6213 17.75 12.125 17.2463 12.125 16.625C12.125 16.0037 11.6213 15.5 11 15.5C10.3787 15.5 9.87501 16.0037 9.87501 16.625C9.87501 17.2463 10.3787 17.75 11 17.75ZM10.625 5.00001H11.75C12.6451 5.00001 13.5036 5.35559 14.1365 5.98852C14.7694 6.62146 15.125 7.4799 15.125 8.37501C15.125 9.27011 14.7694 10.1286 14.1365 10.7615C13.5036 11.3944 12.6451 11.75 11.75 11.75V13.625H10.25V10.25H11.75C12.2473 10.25 12.7242 10.0525 13.0758 9.70083C13.4275 9.3492 13.625 8.87229 13.625 8.37501C13.625 7.87773 13.4275 7.40081 13.0758 7.04918C12.7242 6.69755 12.2473 6.50001 11.75 6.50001H10.625C10.1277 6.50001 9.65081 6.69755 9.29918 7.04918C8.94755 7.40081 8.75001 7.87773 8.75001 8.37501V8.75001H7.25001V8.37501C7.24902 7.93152 7.33564 7.4922 7.5049 7.08228C7.67416 6.67236 7.92272 6.29991 8.23632 5.98632C8.54991 5.67272 8.92236 5.42416 9.33228 5.2549C9.7422 5.08564 10.1815 4.99902 10.625 5.00001Z" fill="#2C4975"/>
</svg>
