<svg width="32" height="32" viewBox="0 0 32 32" fill="none" xmlns="http://www.w3.org/2000/svg">
<path fill-rule="evenodd" clip-rule="evenodd" d="M20.849 6.2322C19.5837 6.1744 19.2041 6.1622 16 6.1622V6.1621C12.7959 6.1621 12.4163 6.1744 11.151 6.2321C10.39 6.24116 9.63631 6.38093 8.9227 6.6453C8.40519 6.845 7.93521 7.1508 7.54298 7.54304C7.15076 7.93529 6.84497 8.40528 6.6453 8.9228C6.38093 9.63641 6.24116 10.3901 6.2321 11.1511C6.1743 12.4164 6.1621 12.796 6.1621 16.0001C6.1621 19.2042 6.1744 19.5838 6.2321 20.8491C6.24116 21.6101 6.38093 22.3638 6.6453 23.0774C6.84499 23.5949 7.15077 24.0649 7.543 24.4571C7.93522 24.8493 8.4052 25.1551 8.9227 25.3548C9.63631 25.6192 10.39 25.7589 11.151 25.768C12.4162 25.8258 12.7956 25.838 16 25.838C19.2044 25.838 19.5838 25.8257 20.849 25.768C21.61 25.7589 22.3637 25.6192 23.0773 25.3548C23.5948 25.1551 24.0648 24.8493 24.457 24.4571C24.8492 24.0649 25.155 23.5949 25.3547 23.0774C25.6191 22.3638 25.7588 21.6101 25.7679 20.8491C25.8257 19.5838 25.8379 19.2042 25.8379 16.0001C25.8379 12.796 25.8256 12.4164 25.7679 11.1511C25.7588 10.3901 25.6191 9.63641 25.3547 8.9228C25.155 8.4053 24.8492 7.93532 24.457 7.5431C24.0648 7.15087 23.5948 6.84509 23.0773 6.6454C22.3637 6.38103 21.61 6.24126 20.849 6.2322ZM11.0524 4.0722C12.3323 4.0138 12.741 4 16 4C19.259 4 19.6677 4.0138 20.9471 4.0727C21.9426 4.09264 22.9275 4.28124 23.86 4.6305C24.6572 4.93876 25.3812 5.41017 25.9857 6.01452C26.5901 6.61887 27.0616 7.34283 27.37 8.14C27.7192 9.07229 27.9078 10.0571 27.9278 11.0524C27.9862 12.3323 28 12.741 28 16C28 19.259 27.9862 19.6677 27.9283 20.9471C27.9084 21.9426 27.7198 22.9275 27.3705 23.86C27.0622 24.6573 26.5907 25.3813 25.9863 25.9858C25.3818 26.5902 24.6578 27.0617 23.8605 27.37C22.928 27.7193 21.9431 27.9079 20.9476 27.9278C19.6677 27.9862 19.259 28 16 28C12.741 28 12.3323 27.9862 11.0529 27.9283C10.0574 27.9084 9.07245 27.7198 8.14 27.3705C7.34273 27.0622 6.61868 26.5907 6.01424 25.9863C5.4098 25.3818 4.93831 24.6578 4.63 23.8605C4.28075 22.928 4.09214 21.9431 4.0722 20.9476C4.0138 19.6677 4 19.259 4 16C4 12.741 4.0138 12.3323 4.0722 11.0529C4.09213 10.0574 4.28073 9.07245 4.63 8.14C4.93831 7.34273 5.4098 6.61868 6.01424 6.01424C6.61868 5.4098 7.34273 4.93831 8.14 4.63C9.07229 4.28079 10.0571 4.09218 11.0524 4.0722ZM22.4058 11.0343C23.2011 11.0343 23.8458 10.3896 23.8458 9.5943C23.8458 8.79901 23.2011 8.1543 22.4058 8.1543C21.6105 8.1543 20.9658 8.79901 20.9658 9.5943C20.9658 10.3896 21.6105 11.0343 22.4058 11.0343ZM16 9.83789C14.7812 9.83789 13.5898 10.1993 12.5764 10.8764C11.5631 11.5535 10.7732 12.5159 10.3068 13.6419C9.84044 14.7679 9.71841 16.0069 9.95618 17.2023C10.1939 18.3976 10.7808 19.4956 11.6426 20.3574C12.5044 21.2192 13.6024 21.8061 14.7978 22.0439C15.9931 22.2817 17.2321 22.1596 18.3581 21.6932C19.4841 21.2268 20.4465 20.437 21.1237 19.4236C21.8008 18.4103 22.1622 17.2189 22.1622 16.0001C22.1622 14.3658 21.5129 12.7984 20.3573 11.6428C19.2017 10.4871 17.6343 9.83789 16 9.83789ZM16 20.0001C15.2088 20.0001 14.4355 19.7655 13.7777 19.326C13.1199 18.8864 12.6072 18.2617 12.3045 17.5308C12.0017 16.7999 11.9225 15.9957 12.0768 15.2197C12.2312 14.4438 12.6121 13.7311 13.1715 13.1717C13.731 12.6123 14.4437 12.2313 15.2196 12.0769C15.9955 11.9226 16.7998 12.0018 17.5307 12.3046C18.2616 12.6073 18.8863 13.12 19.3259 13.7778C19.7654 14.4356 20 15.209 20 16.0001C20 17.061 19.5785 18.0784 18.8284 18.8285C18.0783 19.5787 17.0608 20.0001 16 20.0001Z" fill="white"/>
</svg>
