<svg width="32" height="32" viewBox="0 0 32 32" fill="none" xmlns="http://www.w3.org/2000/svg">
<path fill-rule="evenodd" clip-rule="evenodd" d="M6.35283 23.0049H25.9353C26.4544 23.0042 26.9521 22.7932 27.3192 22.4183C27.6863 22.0434 27.8928 21.5351 27.8935 21.0049V7.00488C27.8929 6.47464 27.6864 5.96628 27.3193 5.59134C26.9522 5.2164 26.4545 5.00549 25.9353 5.00488H6.35283C5.83363 5.00541 5.33585 5.2163 4.96872 5.59125C4.60159 5.96621 4.39511 6.47461 4.39459 7.00488V21.0049C4.39518 21.5351 4.60169 22.0435 4.9688 22.4184C5.33592 22.7934 5.83366 23.0043 6.35283 23.0049ZM6.35283 21.0049V7.00488H25.9353V21.0049H6.35283ZM2.43634 25.0049H29.8518V27.0049H2.43634V25.0049Z" fill="#051D41"/>
<path d="M18.1023 9H6.35283V11H18.1023V9Z" fill="#051D41"/>
</svg>
