<svg width="24" height="24" viewBox="0 0 24 24" fill="none" xmlns="http://www.w3.org/2000/svg">
<path d="M16 9L11.342 13.755C11.1723 13.9283 11.0874 14.0149 10.9896 14.0474C10.9035 14.0759 10.8108 14.0759 10.7247 14.0474C10.6269 14.0149 10.542 13.9283 10.3723 13.755L8.77059 12.12C8.60087 11.9467 8.51601 11.8601 8.41815 11.8276C8.33207 11.7991 8.23935 11.7991 8.15328 11.8276C8.05542 11.8601 7.97056 11.9467 7.80084 12.12L4 16M16 9H12.5714M16 9V12.5" stroke="#BBCEEB" stroke-opacity="0.9" stroke-width="1.4" stroke-linecap="square"/>
<mask id="path-2-inside-1_2194_1321" fill="white">
<rect x="3" y="3" width="18" height="18" rx="1"/>
</mask>
<rect x="3" y="3" width="18" height="18" rx="1" stroke="#BBCEEB" stroke-opacity="0.9" stroke-width="3.2" mask="url(#path-2-inside-1_2194_1321)"/>
</svg>
