<svg width="24" height="24" viewBox="0 0 24 24" fill="none" xmlns="http://www.w3.org/2000/svg">
<path d="M2 6.41889V16.5433C2 17.9384 3.13808 19.0764 4.53314 19.0764H12.7159C14.111 19.0764 15.249 17.9384 15.249 16.5433V14.9035C15.249 14.6261 15.0247 14.4018 14.7473 14.4018C14.4699 14.4018 14.2456 14.6261 14.2456 14.9035V16.5433C14.2456 17.3877 13.5562 18.0771 12.7118 18.0771H4.53314C3.68876 18.0771 2.99939 17.3877 2.99939 16.5433V6.41889C2.99939 5.5745 3.68876 4.88513 4.53314 4.88513H12.7159C13.5603 4.88513 14.2496 5.5745 14.2496 6.41889V8.0587C14.2496 8.33608 14.474 8.56043 14.7514 8.56043C15.0288 8.56043 15.2531 8.33608 15.2531 8.0587V6.41889C15.2531 5.02382 14.115 3.88574 12.72 3.88574H4.53314C3.13808 3.88574 2 5.01974 2 6.41889Z" fill="#BBCEEB"/>
<path d="M17.7208 15.254C17.8187 15.3519 17.9451 15.4008 18.0757 15.4008C18.2062 15.4008 18.3326 15.3519 18.4305 15.254L21.8529 11.8316C22.0487 11.6358 22.0487 11.3217 21.8529 11.1259L18.4305 7.70349C18.2347 7.50769 17.9206 7.50769 17.7249 7.70349C17.5291 7.89929 17.5291 8.21338 17.7249 8.40918L20.2947 10.979H10.9168C10.6394 10.979 10.415 11.2034 10.415 11.4808C10.415 11.7581 10.6394 11.9825 10.9168 11.9825H20.2906L17.7208 14.5524C17.525 14.7441 17.525 15.0622 17.7208 15.254Z" fill="#BBCEEB"/>
</svg>
