<svg width="24" height="24" viewBox="0 0 24 24" fill="none" xmlns="http://www.w3.org/2000/svg">
<path d="M4 7.4375L10.634 12.0813C11.1712 12.4573 11.4398 12.6454 11.732 12.7182C11.99 12.7825 12.26 12.7825 12.518 12.7182C12.8102 12.6454 13.0788 12.4573 13.616 12.0813L20.25 7.4375M7.9 18H16.35C17.7151 18 18.3977 18 18.9191 17.7343C19.3777 17.5006 19.7506 17.1277 19.9843 16.6691C20.25 16.1477 20.25 15.4651 20.25 14.1V8.9C20.25 7.53487 20.25 6.85231 19.9843 6.3309C19.7506 5.87225 19.3777 5.49936 18.9191 5.26567C18.3977 5 17.7151 5 16.35 5H7.9C6.53487 5 5.85231 5 5.3309 5.26567C4.87225 5.49936 4.49936 5.87225 4.26567 6.3309C4 6.85231 4 7.53487 4 8.9V14.1C4 15.4651 4 16.1477 4.26567 16.6691C4.49936 17.1277 4.87225 17.5006 5.3309 17.7343C5.85231 18 6.53487 18 7.9 18Z" stroke="#F2F8FF" stroke-linecap="round" stroke-linejoin="round"/>
</svg>
