<svg width="24" height="24" viewBox="0 0 24 24" fill="none" xmlns="http://www.w3.org/2000/svg">
<path d="M7.5 22.5H16.5C16.8977 22.4996 17.279 22.3414 17.5602 22.0602C17.8414 21.779 17.9996 21.3977 18 21L18 4.5C17.9995 4.10232 17.8414 3.72105 17.5602 3.43984C17.2789 3.15864 16.8977 3.00046 16.5 3H7.5C7.10234 3.00054 6.72112 3.15874 6.43993 3.43993C6.15874 3.72112 6.00054 4.10234 6 4.5L6 21C6.00046 21.3977 6.15864 21.779 6.43984 22.0602C6.72105 22.3414 7.10231 22.4995 7.5 22.5ZM7.5 21V19.5H16.5V21H7.5ZM16.5 4.5L16.5 18H7.5L7.5 4.5H16.5Z" fill="#051D41"/>
<circle cx="12" cy="6" r="1" fill="#051D41"/>
</svg>
