<svg width="105" height="153" viewBox="0 0 105 153" fill="none" xmlns="http://www.w3.org/2000/svg">
<g filter="url(#filter0_d_1976_3162)">
<rect x="3" y="17.2305" width="88.531" height="127.769" rx="4" fill="#051D41"/>
<rect x="3.5" y="17.7305" width="87.531" height="126.769" rx="3.5" stroke="#84A7DA"/>
</g>
<path d="M48.6614 141.289C46.6059 141.289 44.9336 139.622 44.9336 137.572C44.9336 135.523 46.6059 133.855 48.6614 133.855C50.7168 133.855 52.3888 135.523 52.3888 137.572C52.3888 139.621 50.7168 141.289 48.6614 141.289ZM48.6614 134.192C46.7917 134.192 45.271 135.708 45.271 137.572C45.271 139.436 46.7917 140.953 48.6614 140.953C50.5308 140.953 52.0515 139.436 52.0515 137.572C52.0515 135.708 50.5308 134.192 48.6614 134.192Z" fill="#476085"/>
<rect x="13.752" y="23.3086" width="70.2908" height="106.326" fill="#051D41" stroke="#476085"/>
<path d="M7.97552 17.9141V17.4141H7.47552C5.55065 17.4141 3.99023 18.9745 3.99023 20.8993V140.326C3.99023 142.251 5.55065 143.811 7.47552 143.811H7.97552V143.311V17.9141Z" fill="#051D41" stroke="#3A5681"/>
<line x1="14.1836" y1="26.4883" x2="83.6106" y2="26.4883" stroke="#84A7DA"/>
<line x1="14.1836" y1="48.3281" x2="83.6106" y2="48.3281" stroke="#84A7DA"/>
<path d="M26.6889 32.4696L32.2705 39.4871V34.6224C32.2705 33.9438 32.1731 33.4848 31.9785 33.2456C31.7115 32.923 31.2637 32.7672 30.6352 32.7783V32.4696H34.373V32.7783C33.8946 32.8395 33.572 32.9202 33.4052 33.0203C33.2439 33.1149 33.1159 33.2734 33.0214 33.496C32.9324 33.7129 32.8879 34.0884 32.8879 34.6224V44.0431H32.6042L24.9535 34.6224V41.8152C24.9535 42.466 25.1009 42.9055 25.3957 43.1335C25.696 43.3616 26.0381 43.4757 26.4219 43.4757H26.6889V43.7844H22.6758V43.4757C23.2987 43.4701 23.7326 43.3422 23.9773 43.0918C24.2221 42.8415 24.3444 42.4159 24.3444 41.8152V33.8297L24.1025 33.5293C23.8633 33.2289 23.6519 33.0315 23.4684 32.9369C23.2848 32.8423 23.0206 32.7895 22.6758 32.7783V32.4696H26.6889Z" fill="#EBEBEB"/>
<path d="M40.2917 33.1205V37.7265H40.5169C41.2344 37.7265 41.7545 37.5012 42.0771 37.0506C42.3997 36.6 42.6055 35.9352 42.6945 35.0563H43.0115V40.9807H42.6945C42.6278 40.3354 42.4859 39.807 42.269 39.3953C42.0576 38.9837 41.8101 38.7083 41.5265 38.5692C41.2428 38.4246 40.8312 38.3523 40.2917 38.3523V41.5398C40.2917 42.1628 40.3167 42.5439 40.3667 42.683C40.4224 42.822 40.5225 42.9361 40.6671 43.0251C40.8117 43.1141 41.0453 43.1586 41.3679 43.1586H42.0437C43.1005 43.1586 43.946 42.9138 44.5801 42.4243C45.2197 41.9348 45.6786 41.1893 45.9567 40.188H46.2654L45.7565 43.7844H35.9782V43.4757H36.3537C36.6818 43.4757 36.946 43.4173 37.1463 43.3004C37.2909 43.2226 37.4021 43.089 37.48 42.8999C37.5412 42.7664 37.5718 42.4159 37.5718 41.8485V34.4055C37.5718 33.8937 37.5579 33.5794 37.5301 33.4626C37.4744 33.2679 37.3715 33.1177 37.2214 33.012C37.01 32.8562 36.7208 32.7783 36.3537 32.7783H35.9782V32.4696H45.4478V35.8156H45.1307C44.9694 34.9979 44.7414 34.411 44.4466 34.055C44.1574 33.699 43.7458 33.4375 43.2118 33.2707C42.9003 33.1705 42.3163 33.1205 41.4597 33.1205H40.2917Z" fill="#EBEBEB"/>
<path d="M64.3115 32.4696V32.7783C64.1001 32.795 63.9221 32.8534 63.7775 32.9536C63.6329 33.0537 63.505 33.2067 63.3937 33.4125C63.3603 33.4793 63.1851 33.9104 62.8681 34.7059L59.3222 44.0431H58.9968L56.1935 36.7502L53.1065 44.0431H52.7978L49.0767 34.806C48.6985 33.877 48.4343 33.3152 48.2841 33.1205C48.134 32.9258 47.8809 32.8117 47.5249 32.7783V32.4696H52.4307V32.7783C52.0358 32.7895 51.7716 32.8507 51.6381 32.9619C51.5102 33.0676 51.4462 33.2011 51.4462 33.3624C51.4462 33.5738 51.5825 34.0216 51.855 34.7059L54.0743 40.1964L55.8514 35.9074L55.3842 34.7059C55.1284 34.0495 54.9309 33.6128 54.7918 33.3958C54.6528 33.1733 54.4915 33.0148 54.3079 32.9202C54.1299 32.8256 53.8657 32.7783 53.5153 32.7783V32.4696H58.9968V32.7783C58.613 32.7839 58.3377 32.8145 58.1708 32.8701C58.054 32.9091 57.9623 32.9758 57.8955 33.0704C57.8288 33.1594 57.7954 33.2623 57.7954 33.3791C57.7954 33.5071 57.9206 33.8993 58.1708 34.5557L60.2316 39.9127L62.0755 35.0647C62.2702 34.564 62.3897 34.2219 62.4342 34.0383C62.4787 33.8548 62.501 33.6851 62.501 33.5293C62.501 33.3013 62.4231 33.1232 62.2674 32.9953C62.1116 32.8618 61.8141 32.7895 61.3746 32.7783V32.4696H64.3115Z" fill="#EBEBEB"/>
<path d="M73.3422 32.2109L73.4339 35.9825H73.0919C72.9306 35.0369 72.5329 34.2775 71.8988 33.7046C71.2703 33.126 70.5889 32.8368 69.8547 32.8368C69.2874 32.8368 68.8368 32.9897 68.5031 33.2957C68.1749 33.5961 68.0108 33.9438 68.0108 34.3387C68.0108 34.589 68.0692 34.8116 68.1861 35.0063C68.3474 35.2677 68.606 35.5264 68.962 35.7823C69.2234 35.9658 69.8269 36.2913 70.7724 36.7585C72.0962 37.4094 72.989 38.0241 73.4506 38.6026C73.9067 39.1812 74.1348 39.8431 74.1348 40.5886C74.1348 41.5342 73.7649 42.3492 73.0251 43.0334C72.2909 43.7121 71.3565 44.0514 70.2218 44.0514C69.8658 44.0514 69.5293 44.0153 69.2123 43.9429C68.8952 43.8706 68.4975 43.7343 68.0192 43.5341C67.7522 43.4228 67.5325 43.3672 67.3601 43.3672C67.2155 43.3672 67.0625 43.4228 66.9012 43.5341C66.7399 43.6453 66.6092 43.815 66.5091 44.0431H66.2004V39.7708H66.5091C66.7538 40.9724 67.2238 41.8903 67.9191 42.5244C68.6199 43.153 69.3736 43.4673 70.1801 43.4673C70.803 43.4673 71.2981 43.2977 71.6652 42.9583C72.0378 42.619 72.2242 42.224 72.2242 41.7734C72.2242 41.5064 72.1519 41.2477 72.0072 40.9974C71.8682 40.7471 71.6541 40.5107 71.3648 40.2882C71.0756 40.0601 70.5639 39.7653 69.8297 39.4037C68.8007 38.8975 68.0609 38.4663 67.6104 38.1103C67.1598 37.7543 66.8122 37.3566 66.5675 36.9171C66.3283 36.4776 66.2087 35.9937 66.2087 35.4652C66.2087 34.564 66.5397 33.7963 67.2016 33.1622C67.8634 32.528 68.6978 32.2109 69.7045 32.2109C70.0716 32.2109 70.4276 32.2554 70.7724 32.3444C71.0339 32.4112 71.3509 32.5364 71.7236 32.7199C72.1018 32.8979 72.366 32.987 72.5162 32.987C72.6608 32.987 72.7748 32.9424 72.8583 32.8534C72.9417 32.7644 73.0196 32.5503 73.0919 32.2109H73.3422Z" fill="#EBEBEB"/>
<rect x="18.4512" y="52.1777" width="30.2869" height="30.1999" fill="#051D41" stroke="#476085"/>
<rect x="52.709" y="52.0391" width="27.0253" height="11.1507" fill="#476085"/>
<line x1="53.3613" y1="66.4414" x2="79.3866" y2="66.4414" stroke="#476085" stroke-linecap="round"/>
<line x1="53.3613" y1="70.1641" x2="79.3866" y2="70.1641" stroke="#476085" stroke-linecap="round"/>
<line x1="53.3613" y1="73.8711" x2="79.3866" y2="73.8711" stroke="#476085" stroke-linecap="round"/>
<line x1="53.3613" y1="77.5859" x2="79.3866" y2="77.5859" stroke="#476085" stroke-linecap="round"/>
<line x1="53.3613" y1="81.3164" x2="79.3866" y2="81.3164" stroke="#476085" stroke-linecap="round"/>
<line x1="20.7363" y1="89.2227" x2="46.7616" y2="89.2227" stroke="#476085" stroke-linecap="round"/>
<line x1="20.7363" y1="92.9453" x2="46.7616" y2="92.9453" stroke="#476085" stroke-linecap="round"/>
<line x1="20.7363" y1="96.6523" x2="46.7616" y2="96.6523" stroke="#476085" stroke-linecap="round"/>
<line x1="20.7363" y1="100.367" x2="46.7616" y2="100.367" stroke="#476085" stroke-linecap="round"/>
<line x1="20.7363" y1="104.098" x2="46.7616" y2="104.098" stroke="#476085" stroke-linecap="round"/>
<line x1="53.3613" y1="104.084" x2="79.3866" y2="104.084" stroke="#476085" stroke-linecap="round"/>
<line x1="53.3613" y1="107.805" x2="79.3866" y2="107.805" stroke="#476085" stroke-linecap="round"/>
<line x1="53.3613" y1="111.514" x2="79.3866" y2="111.514" stroke="#476085" stroke-linecap="round"/>
<line x1="53.3613" y1="115.229" x2="79.3866" y2="115.229" stroke="#476085" stroke-linecap="round"/>
<line x1="53.3613" y1="118.959" x2="79.3866" y2="118.959" stroke="#476085" stroke-linecap="round"/>
<line x1="20.7422" y1="111.051" x2="46.7675" y2="111.051" stroke="#476085" stroke-linecap="round"/>
<line x1="20.7422" y1="114.773" x2="46.7675" y2="114.773" stroke="#476085" stroke-linecap="round"/>
<line x1="20.7422" y1="118.48" x2="46.7675" y2="118.48" stroke="#476085" stroke-linecap="round"/>
<line x1="53.3594" y1="89.2227" x2="79.3846" y2="89.2227" stroke="#476085" stroke-linecap="round"/>
<line x1="53.207" y1="93.1133" x2="79.2323" y2="93.1133" stroke="#476085" stroke-linecap="round"/>
<line x1="53.3594" y1="96.6523" x2="79.3846" y2="96.6523" stroke="#476085" stroke-linecap="round"/>
<path d="M104 18.931C104 28.8298 95.9766 36.8542 86.0792 36.8542C76.1817 36.8542 68.1582 28.8298 68.1582 18.931C68.1582 9.03225 76.1817 1.00781 86.0792 1.00781C95.9766 1.00781 104 9.03225 104 18.931Z" fill="#051D41" stroke="#84A7DA"/>
<path d="M101.477 18.4232C101.477 28.322 93.4531 36.3464 83.5557 36.3464C73.6583 36.3464 65.6348 28.322 65.6348 18.4232C65.6348 8.52443 73.6583 0.5 83.5557 0.5C93.4531 0.5 101.477 8.52443 101.477 18.4232Z" fill="#051D41" stroke="#7EA8C5"/>
<path d="M97.44 18.6778C97.44 26.2071 91.3371 32.3106 83.8089 32.3106C76.2807 32.3106 70.1777 26.2071 70.1777 18.6778C70.1777 11.1485 76.2807 5.04492 83.8089 5.04492C91.3371 5.04492 97.44 11.1485 97.44 18.6778Z" fill="#051D41" stroke="#476085"/>
<line x1="83.8125" y1="18.6797" x2="83.8125" y2="8.07055" stroke="#EBEBEB" stroke-linecap="round"/>
<line x1="75.7285" y1="18.6797" x2="83.8128" y2="18.6797" stroke="#EBEBEB" stroke-linecap="round"/>
<g clip-path="url(#clip0_1976_3162)">
<path opacity="0.2" d="M42.0685 72.3037C41.7079 72.2308 41.5885 71.7079 41.5975 71.2827C41.6073 70.7898 41.7823 70.4795 42.0798 70.43C42.3472 70.3886 42.6048 70.3947 42.8497 70.4292C42.7874 70.1678 42.7085 69.9311 42.6086 69.7478C42.2698 69.1242 41.7034 69.2031 41.0521 68.4834C39.5107 66.7772 37.2331 64.1124 35.624 64.1883C33.3389 64.295 25.6918 67.9019 25.3042 68.0559C24.9173 68.2099 23.4668 67.4143 23.4458 66.9448C23.424 66.4737 24.3645 65.2131 25.027 65.1071C25.6896 64.9997 27.0349 65.15 27.3985 64.9569C27.7621 64.7646 28.2534 63.9742 28.2534 63.6534C28.2534 63.3334 27.3985 62.6707 27.3985 62.6707C27.3985 62.6707 27.0778 62.1358 26.6503 62.1569C26.2229 62.1794 25.646 62.7128 25.2614 62.6707C25.3681 63.0764 26.2229 63.5039 26.5812 63.4859C26.9388 63.4693 27.3121 63.1418 27.3121 63.1418C27.3121 63.1418 27.6329 63.2688 27.8042 63.5264C27.9236 63.7052 27.7185 64.1462 27.3767 64.3378C27.0334 64.5309 25.4327 64.2319 24.8114 64.3814C24.1909 64.5302 22.3332 66.3054 22.4189 67.0304C22.5038 67.7577 24.405 69.4247 25.1096 69.554C24.6401 70.5562 25.1314 72.9926 24.9188 73.1639C24.7048 73.3352 23.8927 72.9062 23.7169 73.3374C23.5404 73.7687 24.7048 75.8768 24.5335 76.1555C24.3622 76.4327 24.3923 77.0653 24.3923 77.0653L26.1996 77.0525C26.1786 76.4973 25.6933 76.1344 25.6933 76.1344L25.4387 75.021C25.4387 75.021 26.7765 74.3163 27.204 73.6312C27.3324 73.9738 27.9311 74.5936 28.1873 74.68C28.4434 74.7664 27.675 74.8513 27.7959 75.1961C27.9161 75.5424 30.7308 76.5604 30.7766 76.7588C30.4536 77.2659 30.6865 77.6085 30.6865 77.6085L32.291 77.6498C32.0987 76.5401 31.2739 76.1848 31.2739 76.1848L29.9556 74.7401C29.9556 74.7401 31.2439 73.2713 31.3686 71.7778C32.2197 72.8694 34.0668 73.0564 34.0668 73.0564C34.0668 73.0564 32.6734 76.4042 32.5802 76.625C32.4886 76.8452 32.7823 77.6498 32.7823 77.6498H34.5341C34.4281 77.2313 33.529 76.6228 33.529 76.6228L35.9658 73.0279L36.5863 73.0181C36.5863 73.0181 37.2699 75.9639 37.1422 76.2411C37.0137 76.5183 37.034 77.3094 37.034 77.3094L38.8294 77.2659C38.7858 76.6889 38.2314 76.326 38.2314 76.326L38.2727 72.9918C38.2727 72.9918 39.2575 73.3141 39.7939 72.9693C39.5978 73.5711 39.4709 74.982 39.5783 75.2787C39.6857 75.5755 40.0681 75.7716 40.3686 75.7287C40.6675 75.6852 42.4411 73.7634 42.7844 73.1564C42.8956 72.9603 42.9639 72.6252 42.9917 72.233C42.8775 72.2421 42.7618 72.2548 42.6507 72.2736C42.4163 72.3089 42.2187 72.3337 42.0685 72.3037Z" fill="#EBEBEB"/>
<path opacity="0.2" d="M44.2445 71.176C43.7556 70.8397 43.1272 70.6025 42.4571 70.7096C42.1158 70.7628 42.1746 71.8487 42.4571 71.9052C42.7396 71.9617 43.2853 71.7173 43.7748 71.8868C44.263 72.0543 44.941 72.821 44.941 72.5786C44.9404 72.3368 44.7333 71.5137 44.2445 71.176Z" fill="#EBEBEB"/>
</g>
<defs>
<filter id="filter0_d_1976_3162" x="0" y="17.2305" width="96.5312" height="135.77" filterUnits="userSpaceOnUse" color-interpolation-filters="sRGB">
<feFlood flood-opacity="0" result="BackgroundImageFix"/>
<feColorMatrix in="SourceAlpha" type="matrix" values="0 0 0 0 0 0 0 0 0 0 0 0 0 0 0 0 0 0 127 0" result="hardAlpha"/>
<feOffset dx="1" dy="4"/>
<feGaussianBlur stdDeviation="2"/>
<feComposite in2="hardAlpha" operator="out"/>
<feColorMatrix type="matrix" values="0 0 0 0 0.0196078 0 0 0 0 0.113725 0 0 0 0 0.254902 0 0 0 0.5 0"/>
<feBlend mode="normal" in2="BackgroundImageFix" result="effect1_dropShadow_1976_3162"/>
<feBlend mode="normal" in="SourceGraphic" in2="effect1_dropShadow_1976_3162" result="shape"/>
</filter>
<clipPath id="clip0_1976_3162">
<rect width="22.5237" height="22.5264" fill="white" transform="translate(22.416 58.6387)"/>
</clipPath>
</defs>
</svg>
