<svg width="112" height="150" viewBox="0 0 112 150" fill="none" xmlns="http://www.w3.org/2000/svg">
<g filter="url(#filter0_d_1976_3251)">
<rect x="3" y="1" width="97.5951" height="140.915" rx="8" fill="#051D41"/>
<rect x="3.5" y="1.5" width="96.5951" height="139.915" rx="7.5" stroke="#476085"/>
</g>
<path d="M11.6348 125.138C11.6348 126.526 12.7588 127.65 14.1451 127.65H81.3293C82.7155 127.65 83.8396 126.526 83.8396 125.138V102.104C83.8396 100.716 82.7155 99.5918 81.3293 99.5918H14.1451C12.7588 99.5918 11.6348 100.716 11.6348 102.104V125.138Z" fill="#0F2C57" stroke="#051D41"/>
<path opacity="0.7" d="M35.0327 125.23C34.7373 125.23 34.498 124.991 34.498 124.696V120.606C34.498 120.31 34.7373 120.071 35.0327 120.071H60.4415C60.7369 120.071 60.9761 120.31 60.9761 120.606V124.696C60.9761 124.991 60.7369 125.23 60.4415 125.23H35.0327Z" fill="#214171"/>
<path d="M15.1523 104.523H80.3239V101.712H15.1523V104.523Z" fill="#214171"/>
<path d="M17.7992 103.279C17.7992 103.533 17.5938 103.738 17.34 103.738C17.0862 103.738 16.8809 103.533 16.8809 103.279C16.8809 103.025 17.0862 102.82 17.34 102.82C17.5938 102.82 17.7992 103.025 17.7992 103.279Z" fill="#4C6893"/>
<path d="M20.0242 103.279C20.0242 103.533 19.8185 103.738 19.565 103.738C19.3112 103.738 19.1055 103.533 19.1055 103.279C19.1055 103.025 19.3112 102.82 19.565 102.82C19.8185 102.82 20.0242 103.025 20.0242 103.279Z" fill="#4C6893"/>
<path d="M21.3497 103.14C21.4266 102.898 21.6846 102.764 21.9263 102.841C22.1684 102.917 22.3022 103.176 22.2257 103.418C22.1488 103.659 21.8907 103.793 21.649 103.717C21.407 103.64 21.2731 103.382 21.3497 103.14Z" fill="#4C6893"/>
<line x1="15.0898" y1="107.141" x2="79.7795" y2="107.141" stroke="#476085" stroke-linecap="round"/>
<line x1="15.0898" y1="109.725" x2="79.7795" y2="109.725" stroke="#476085" stroke-linecap="round"/>
<line x1="15.0898" y1="112.311" x2="79.7795" y2="112.311" stroke="#476085" stroke-linecap="round"/>
<line x1="15.0898" y1="114.893" x2="79.7795" y2="114.893" stroke="#476085" stroke-linecap="round"/>
<line x1="15.0898" y1="117.477" x2="79.7795" y2="117.477" stroke="#476085" stroke-linecap="round"/>
<path d="M42.457 47.4158C42.457 48.0072 42.637 48.5233 42.9039 48.8801C43.1708 49.2368 43.5009 49.4102 43.8231 49.4102H85.4694C85.7916 49.4102 86.1217 49.2368 86.3886 48.8801C86.6555 48.5233 86.8355 48.0072 86.8355 47.4158V28.3404C86.8355 27.749 86.6555 27.2329 86.3886 26.8761C86.1217 26.5194 85.7916 26.346 85.4694 26.346H43.8231C43.5009 26.346 43.1708 26.5194 42.9039 26.8761C42.637 27.2329 42.457 27.749 42.457 28.3404V47.4158Z" fill="#0F2C57" stroke="#051D41"/>
<path opacity="0.7" d="M56.7709 47.4883C56.5877 47.4883 56.4395 47.2901 56.4395 47.0453V43.6583C56.4395 43.4138 56.5877 43.2156 56.7709 43.2156H72.5213C72.7045 43.2156 72.8528 43.4138 72.8528 43.6583V47.0453C72.8528 47.2901 72.7045 47.4883 72.5213 47.4883H56.7709Z" fill="#214171"/>
<path d="M44.4473 30.3418H84.846V28.0134H44.4473V30.3418Z" fill="#214171"/>
<path d="M46.0888 29.3111C46.0888 29.521 45.9615 29.6914 45.8042 29.6914C45.6468 29.6914 45.5195 29.521 45.5195 29.3111C45.5195 29.101 45.6468 28.9306 45.8042 28.9306C45.9615 28.9306 46.0888 29.101 46.0888 29.3111Z" fill="#4C6893"/>
<path d="M47.4679 29.3111C47.4679 29.521 47.3404 29.6914 47.1833 29.6914C47.026 29.6914 46.8984 29.521 46.8984 29.3111C46.8984 29.101 47.026 28.9306 47.1833 28.9306C47.3404 28.9306 47.4679 29.101 47.4679 29.3111Z" fill="#4C6893"/>
<path d="M48.2907 29.1959C48.3384 28.9958 48.4983 28.8849 48.6482 28.9483C48.7982 29.0117 48.8812 29.2254 48.8337 29.4258C48.7861 29.626 48.6261 29.7371 48.4763 29.6735C48.3262 29.6101 48.2433 29.3964 48.2907 29.1959Z" fill="#4C6893"/>
<line x1="44.5996" y1="32.4238" x2="84.3195" y2="32.4238" stroke="#476085" stroke-linecap="round"/>
<line x1="44.5996" y1="34.5645" x2="84.3195" y2="34.5645" stroke="#476085" stroke-linecap="round"/>
<line x1="44.5996" y1="36.7031" x2="84.3195" y2="36.7031" stroke="#476085" stroke-linecap="round"/>
<line x1="44.5996" y1="38.8438" x2="84.3195" y2="38.8438" stroke="#476085" stroke-linecap="round"/>
<line x1="44.5996" y1="40.9844" x2="84.3195" y2="40.9844" stroke="#476085" stroke-linecap="round"/>
<path d="M9.5 1V0.5H9C5.41015 0.5 2.5 3.41015 2.5 7V136C2.5 139.59 5.41015 142.5 9 142.5H9.5V142V1Z" fill="#051D41" stroke="#1B3761"/>
<path d="M93.9404 111.697C95.2172 111.697 96.2526 110.662 96.2526 109.383V67.6378C96.2526 66.36 95.2172 65.3244 93.9404 65.3244H52.902C51.6252 65.3244 50.5898 66.36 50.5898 67.6378V109.383C50.5898 110.662 51.6253 111.697 52.902 111.697H93.9404Z" fill="#0F2C57" stroke="#051D41"/>
<path d="M53.4219 106.602H75.4324V71.8463H53.4219V106.602Z" fill="#0F2C57" stroke="#476085" stroke-width="2"/>
<path d="M91.4543 105.299H80.4466C80.1741 105.299 79.9531 105.078 79.9531 104.805V101.031C79.9531 100.759 80.1741 100.538 80.4466 100.538H91.4543C91.7268 100.538 91.9477 100.759 91.9477 101.031V104.805C91.9477 105.078 91.7268 105.299 91.4543 105.299Z" fill="#476085"/>
<path d="M91.8319 70.7773H91.4603L91.1962 70.3723C91.1259 70.2678 91.0663 70.1676 91.0029 70.0597H90.9956C90.936 70.1676 90.873 70.2643 90.8061 70.3723L90.5459 70.7773H90.1855L90.8247 69.8589L90.2153 68.978H90.5795L90.8359 69.3645C90.9028 69.465 90.9585 69.5579 91.018 69.6581H91.0292C91.0884 69.5502 91.1479 69.4573 91.2074 69.3606L91.4603 68.978H91.8133L91.2001 69.8477L91.8319 70.7773Z" fill="#84A7DA"/>
<line x1="79.7012" y1="75.0332" x2="93.2565" y2="75.0332" stroke="#476085" stroke-linecap="round"/>
<line x1="79.7012" y1="79.1328" x2="93.2565" y2="79.1328" stroke="#476085" stroke-linecap="round"/>
<line x1="79.7012" y1="83.2324" x2="93.2565" y2="83.2324" stroke="#476085" stroke-linecap="round"/>
<line x1="79.7012" y1="87.332" x2="93.2565" y2="87.332" stroke="#476085" stroke-linecap="round"/>
<line x1="79.7012" y1="91.4297" x2="93.2565" y2="91.4297" stroke="#476085" stroke-linecap="round"/>
<path d="M61.0433 82.8516C62.5194 82.8516 63.7167 81.6543 63.7167 80.1768V9.31637C63.7167 7.83889 62.5194 6.64163 61.0433 6.64163H14.7337C13.2576 6.64163 12.0605 7.83884 12.0605 9.31637V80.1768C12.0605 81.6544 13.2576 82.8516 14.7337 82.8516H61.0433Z" fill="#0F2C57" stroke="#051D41"/>
<path d="M17.1777 15.3203H58.6016V11.4299H17.1777V15.3203Z" fill="#214171"/>
<path d="M17.6777 53.9258H58.1016V21.3088H17.6777V53.9258Z" stroke="#476085"/>
<path d="M20.2283 13.3208C20.2283 13.6722 19.9436 13.957 19.5929 13.957C19.2417 13.957 18.957 13.6722 18.957 13.3208C18.957 12.9699 19.2417 12.6851 19.5929 12.6851C19.9436 12.6851 20.2283 12.9699 20.2283 13.3208Z" fill="#4C6893"/>
<path d="M23.3064 13.3208C23.3064 13.6722 23.0217 13.957 22.671 13.957C22.3198 13.957 22.0352 13.6722 22.0352 13.3208C22.0352 12.9699 22.3198 12.6851 22.671 12.6851C23.0217 12.6851 23.3064 12.9699 23.3064 13.3208Z" fill="#4C6893"/>
<path d="M25.1411 13.1288C25.247 12.7942 25.6046 12.6084 25.939 12.7149C26.2735 12.8208 26.4591 13.1781 26.3528 13.5132C26.2469 13.8479 25.8898 14.0332 25.5554 13.9272C25.2204 13.8212 25.0352 13.4635 25.1411 13.1288Z" fill="#4C6893"/>
<line x1="17.6016" y1="57.7578" x2="57.9742" y2="57.7578" stroke="#476085" stroke-linecap="round"/>
<line x1="17.6016" y1="61.2969" x2="57.9742" y2="61.2969" stroke="#476085" stroke-linecap="round"/>
<line x1="17.6016" y1="64.832" x2="57.9742" y2="64.832" stroke="#476085" stroke-linecap="round"/>
<line x1="17.6016" y1="68.3691" x2="57.9742" y2="68.3691" stroke="#476085" stroke-linecap="round"/>
<line x1="17.6016" y1="71.9062" x2="57.9742" y2="71.9062" stroke="#476085" stroke-linecap="round"/>
<path d="M78.4838 118.794L82.3423 145.204L71.6086 145.204L73.8385 121.534L74.4905 116.458L77.8191 116.057L78.4838 118.794Z" fill="#051D41" stroke="#476085"/>
<path d="M72.8986 101.038L98.5439 83.0048L106.922 115.951L75.3077 117.447L70.8804 115.811L68.2432 106.628L72.8986 101.038Z" fill="#051D41" stroke="#EBEBEB"/>
<path d="M101.417 101.057L101.411 100.925L101.341 100.813L97.143 94.1397C96.8236 90.8422 96.9433 87.9585 97.4435 85.8369C97.6967 84.763 98.0416 83.909 98.4567 83.298C98.8695 82.6903 99.3324 82.3489 99.8268 82.2317C100.463 82.0823 101.223 82.2893 102.092 82.9454C102.958 83.5993 103.871 84.6564 104.768 86.0621C106.561 88.8694 108.234 92.9705 109.343 97.6994C110.45 102.428 110.774 106.848 110.416 110.163C110.236 111.823 109.889 113.177 109.404 114.15C108.917 115.126 108.329 115.651 107.693 115.802C106.941 115.978 106.013 115.653 104.953 114.693C103.923 113.759 102.854 112.298 101.841 110.416L101.417 101.057Z" fill="#051D41" stroke="#84A7DA"/>
<path d="M65.9484 106.54L71.3236 102.759C70.9791 107.612 71.8064 112.548 73.7085 117.025L68.4994 117.271L66.3645 112.432L65.9484 106.54Z" fill="#051D41" stroke="#84A7DA" stroke-width="2"/>
<path d="M103.621 95.6031L103.621 95.6031C104 95.6464 104.312 95.9254 104.397 96.3011C104.397 96.3012 104.397 96.3012 104.397 96.3012L105.8 102.506C105.8 102.506 105.8 102.506 105.8 102.506C105.855 102.75 105.807 103.005 105.668 103.212L101.4 109.567C100.117 106.999 98.898 103.762 98.0753 100.253C97.6394 98.3869 97.4057 96.5489 97.2194 94.8706L103.621 95.6031Z" fill="#051D41" stroke="#EBEBEB"/>
<path d="M106.004 103.658C104.623 102.846 103.59 101.459 103.169 99.8536C102.747 98.2475 102.96 96.5058 103.753 95.0742L104.014 95.2363C103.273 96.5746 103.066 98.2696 103.459 99.7708C103.853 101.272 104.859 102.621 106.15 103.38L106.004 103.658Z" fill="#84A7DA"/>
<path d="M64.6256 106.994L67.2052 117.71C66.8004 117.626 66.2582 117.469 65.6874 117.172C64.5337 116.572 63.2326 115.391 62.7207 113.008C62.2961 111.03 62.9094 109.398 63.6479 108.24C63.9806 107.718 64.3358 107.298 64.6256 106.994Z" fill="#051D41" stroke="#476085"/>
<path d="M53.729 92.823C48.5359 92.823 43.6847 91.3391 39.5681 88.7791L75.4439 50.0163C78.7075 54.4718 80.6403 59.9612 80.6403 65.8961C80.6403 80.7433 68.5682 92.823 53.729 92.823ZM53.729 38.9692C59.1425 38.9692 64.1842 40.5825 68.409 43.346L32.3855 82.2688C28.8983 77.7281 26.8184 72.052 26.8184 65.8961C26.8184 51.0489 38.8908 38.9692 53.729 38.9692ZM53.729 29.272C33.5469 29.272 17.127 45.7019 17.127 65.8961C17.127 86.0903 33.5469 102.52 53.729 102.52C73.9121 102.52 90.3318 86.0903 90.3318 65.8961C90.3318 45.7019 73.9121 29.272 53.729 29.272Z" fill="#051D41" stroke="#415C83"/>
<defs>
<filter id="filter0_d_1976_3251" x="0" y="1" width="105.595" height="148.916" filterUnits="userSpaceOnUse" color-interpolation-filters="sRGB">
<feFlood flood-opacity="0" result="BackgroundImageFix"/>
<feColorMatrix in="SourceAlpha" type="matrix" values="0 0 0 0 0 0 0 0 0 0 0 0 0 0 0 0 0 0 127 0" result="hardAlpha"/>
<feOffset dx="1" dy="4"/>
<feGaussianBlur stdDeviation="2"/>
<feComposite in2="hardAlpha" operator="out"/>
<feColorMatrix type="matrix" values="0 0 0 0 0.0196078 0 0 0 0 0.113725 0 0 0 0 0.254902 0 0 0 0.5 0"/>
<feBlend mode="normal" in2="BackgroundImageFix" result="effect1_dropShadow_1976_3251"/>
<feBlend mode="normal" in="SourceGraphic" in2="effect1_dropShadow_1976_3251" result="shape"/>
</filter>
</defs>
</svg>
