<svg width="32" height="32" viewBox="0 0 32 32" fill="none" xmlns="http://www.w3.org/2000/svg">
<path d="M27.0705 19.0838L24.641 16.6543V13.4362C24.6381 11.2123 23.8108 9.0685 22.3189 7.41927C20.827 5.77003 18.7766 4.73256 16.5641 4.50745V2.66699H14.7692V4.50745C12.5568 4.73256 10.5063 5.77003 9.01445 7.41927C7.52257 9.0685 6.69519 11.2123 6.69231 13.4362V16.6543L4.26286 19.0838C4.09458 19.2521 4.00003 19.4803 4 19.7183V22.4106C4 22.6486 4.09455 22.8769 4.26285 23.0452C4.43115 23.2135 4.65942 23.308 4.89744 23.308H11.1795V24.0051C11.16 25.1436 11.5614 26.2492 12.3066 27.1101C13.0518 27.9711 14.0884 28.5267 15.2179 28.6706C15.8418 28.7326 16.4717 28.6632 17.0671 28.467C17.6626 28.2709 18.2104 27.9523 18.6753 27.5317C19.1402 27.1111 19.5119 26.5979 19.7666 26.0251C20.0212 25.4522 20.1531 24.8324 20.1538 24.2055V23.308H26.4359C26.6739 23.308 26.9022 23.2135 27.0705 23.0452C27.2388 22.8769 27.3333 22.6486 27.3333 22.4106V19.7183C27.3333 19.4803 27.2388 19.2521 27.0705 19.0838ZM18.359 24.2055C18.359 24.9195 18.0753 25.6043 17.5704 26.1092C17.0655 26.6141 16.3807 26.8978 15.6667 26.8978C14.9526 26.8978 14.2678 26.6141 13.7629 26.1092C13.258 25.6043 12.9744 24.9195 12.9744 24.2055V23.308H18.359V24.2055ZM25.5385 21.5131H5.79487V20.0899L8.22423 17.6605C8.39254 17.4922 8.48713 17.264 8.48718 17.026V13.4362C8.48718 11.5321 9.24359 9.70597 10.59 8.35956C11.9364 7.01314 13.7625 6.25674 15.6667 6.25674C17.5708 6.25674 19.3969 7.01314 20.7433 8.35956C22.0897 9.70597 22.8462 11.5321 22.8462 13.4362V17.026C22.8462 17.264 22.9408 17.4922 23.1091 17.6605L25.5385 20.0899V21.5131Z" fill="#051D41"/>
</svg>
