<svg width="24" height="24" viewBox="0 0 24 24" fill="none" xmlns="http://www.w3.org/2000/svg">
<path d="M20.3029 14.3126L18.4808 12.4905V10.0769C18.4786 8.409 17.8581 6.80113 16.7392 5.56421C15.6202 4.32728 14.0824 3.54918 12.4231 3.38035V2H11.0769V3.38035C9.41757 3.54918 7.87976 4.32728 6.76084 5.56421C5.64192 6.80113 5.02139 8.409 5.01923 10.0769V12.4905L3.19714 14.3126C3.07093 14.4388 3.00002 14.61 3 14.7885V16.8077C3 16.9862 3.07091 17.1574 3.19714 17.2836C3.32337 17.4099 3.49457 17.4808 3.67308 17.4808H8.38462V18.0036C8.37002 18.8575 8.67102 19.6867 9.22992 20.3324C9.78883 20.978 10.5663 21.3948 11.4135 21.5027C11.8813 21.5492 12.3538 21.4972 12.8004 21.35C13.2469 21.2029 13.6578 20.964 14.0064 20.6485C14.3551 20.3331 14.6339 19.9482 14.8249 19.5185C15.0159 19.0889 15.1148 18.624 15.1154 18.1538V17.4808H19.8269C20.0054 17.4808 20.1766 17.4099 20.3029 17.2836C20.4291 17.1574 20.5 16.9862 20.5 16.8077V14.7885C20.5 14.61 20.4291 14.4388 20.3029 14.3126ZM13.7692 18.1538C13.7692 18.6894 13.5565 19.203 13.1778 19.5817C12.7991 19.9603 12.2855 20.1731 11.75 20.1731C11.2145 20.1731 10.7009 19.9603 10.3222 19.5817C9.94351 19.203 9.73077 18.6894 9.73077 18.1538V17.4808H13.7692V18.1538ZM19.1538 16.1346H4.34615V15.0672L6.16817 13.2451C6.29441 13.1189 6.36535 12.9477 6.36538 12.7692V10.0769C6.36538 8.64883 6.93269 7.27924 7.9425 6.26942C8.95231 5.25961 10.3219 4.69231 11.75 4.69231C13.1781 4.69231 14.5477 5.25961 15.5575 6.26942C16.5673 7.27924 17.1346 8.64883 17.1346 10.0769V12.7692C17.1347 12.9477 17.2056 13.1189 17.3318 13.2451L19.1538 15.0672V16.1346Z" fill="#051D41"/>
</svg>
