<svg width="117" height="147" viewBox="0 0 117 147" fill="none" xmlns="http://www.w3.org/2000/svg">
<g filter="url(#filter0_d_1976_3215)">
<path d="M105.397 138.934H27.1116C23.4667 138.934 20.5117 135.954 20.5117 132.278V19.0438C20.5117 15.3684 23.4667 12.3887 27.1116 12.3887H105.397C109.041 12.3887 111.996 15.3684 111.996 19.0438V132.278C111.996 135.954 109.041 138.934 105.397 138.934Z" fill="#051D41"/>
<path d="M27.1116 138.434H105.397C108.761 138.434 111.496 135.682 111.496 132.278V19.0438C111.496 15.6406 108.761 12.8887 105.397 12.8887H27.1116C23.7468 12.8887 21.0117 15.6406 21.0117 19.0438V132.278C21.0117 135.682 23.7468 138.434 27.1116 138.434Z" stroke="#84A7DA"/>
</g>
<path d="M29.2793 127.285H103.578V17.989H29.2793V127.285Z" fill="#051D41" stroke="#476085"/>
<path d="M29.3272 126.214C55.0923 126.084 79.4735 125.42 100.337 123.386C101.44 120.533 102.216 115.33 102.744 108.4C103.287 101.266 103.563 92.3733 103.689 82.4869C103.85 69.8322 103.765 55.5689 103.679 41.2999C103.632 33.4429 103.585 25.5842 103.579 17.9914L39.1558 18.3187L29.3272 126.214Z" fill="#051D41" stroke="#476085"/>
<path d="M29.2667 18.0048C28.3456 58.6869 27.4238 99.3985 25.1541 124.173C42.8007 125.458 64.5659 125.141 96.9579 119.932C100.627 110.868 102.472 96.624 103.328 79.3083C104.185 61.9712 104.049 41.6231 103.791 20.44L68.3966 18.0839L29.2669 17.9964L29.2667 18.0048Z" fill="#051D41" stroke="#476085"/>
<rect x="46.5645" y="26.5762" width="39.4984" height="4.23576" fill="#476085"/>
<path d="M51.3864 9.74909L51.3865 9.74918L51.3778 9.75618C51.2741 9.83917 51.1747 9.92978 51.0761 10.0292C50.284 10.8313 49.793 11.9349 49.793 13.155V21.168H82.7113V13.155C82.7113 11.7828 82.0922 10.5577 81.1197 9.75067L81.1179 9.74909C80.3629 9.1163 79.3925 8.73775 78.3349 8.73775C77.3732 8.73775 76.4498 8.51569 75.6233 8.11455L75.6224 8.11409C75.2646 7.93951 74.9258 7.73376 74.6063 7.49701L74.605 7.49604C73.5512 6.70978 72.7449 5.59276 72.344 4.26352L72.344 4.26336C72 3.12148 71.2962 2.16594 70.3838 1.50109C69.5072 0.866083 68.4408 0.500553 67.3105 0.500553H65.1938C64.0634 0.500553 62.9971 0.866079 62.1205 1.50108C61.2081 2.16594 60.5043 3.12148 60.1603 4.26336L60.1603 4.26352C59.7594 5.59276 58.9531 6.70978 57.8993 7.49604L57.898 7.497C57.5785 7.73376 57.2397 7.93951 56.8819 8.11409L56.881 8.11455C56.0545 8.51569 55.1311 8.73775 54.1694 8.73775C53.1118 8.73775 52.1414 9.1163 51.3864 9.74909Z" fill="#051D41" stroke="#7EA8C5"/>
<path d="M66.2552 6.98828C67.4045 6.98828 68.2635 6.1055 68.2635 5.10437C68.2635 4.10433 67.4047 3.22135 66.2552 3.22135C65.1047 3.22135 64.2461 4.10452 64.2461 5.10437C64.2461 6.10531 65.1049 6.98828 66.2552 6.98828Z" fill="#051D41" stroke="#476085" stroke-width="2"/>
<line x1="0.5" y1="-0.5" x2="51.0061" y2="-0.5" transform="matrix(0.999883 0.0152716 -0.0150289 0.999887 39.2012 39.6035)" stroke="#476085" stroke-linecap="round"/>
<line x1="0.5" y1="-0.5" x2="51.0061" y2="-0.5" transform="matrix(0.999883 0.0152716 -0.0150289 0.999887 39.2012 43.9297)" stroke="#476085" stroke-linecap="round"/>
<line x1="0.5" y1="-0.5" x2="34.6159" y2="-0.5" transform="matrix(0.999883 0.0153059 -0.0150627 0.999887 39.2031 48.5781)" stroke="#476085" stroke-linecap="round"/>
<line x1="0.5" y1="-0.5" x2="51.0061" y2="-0.5" transform="matrix(0.999883 0.0152716 -0.0150289 0.999887 38.8125 58.4805)" stroke="#476085" stroke-linecap="round"/>
<line x1="0.5" y1="-0.5" x2="51.0061" y2="-0.5" transform="matrix(0.999883 0.0152716 -0.0150289 0.999887 38.8125 62.8066)" stroke="#476085" stroke-linecap="round"/>
<line x1="0.5" y1="-0.5" x2="34.6159" y2="-0.5" transform="matrix(0.999883 0.0153059 -0.0150627 0.999887 38.8145 67.4531)" stroke="#476085" stroke-linecap="round"/>
<line x1="38.9294" y1="76.867" x2="89.4297" y2="77.6322" stroke="#476085" stroke-linecap="round"/>
<line x1="38.9294" y1="81.1932" x2="89.4297" y2="81.9583" stroke="#476085" stroke-linecap="round"/>
<line x1="0.5" y1="-0.5" x2="34.6159" y2="-0.5" transform="matrix(0.999883 0.0153059 -0.0150627 0.999887 38.4238 86.332)" stroke="#476085" stroke-linecap="round"/>
<line x1="38.9294" y1="95.744" x2="89.4297" y2="96.5091" stroke="#476085" stroke-linecap="round"/>
<line x1="38.9294" y1="100.07" x2="89.4297" y2="100.835" stroke="#476085" stroke-linecap="round"/>
<line x1="0.5" y1="-0.5" x2="34.6159" y2="-0.5" transform="matrix(0.999883 0.0153059 -0.0150627 0.999887 38.4238 105.209)" stroke="#476085" stroke-linecap="round"/>
<path d="M21.8228 96.1639L22.6435 101.11L31.2771 99.6544L30.4564 94.7082L21.8228 96.1639Z" fill="#051D41" stroke="#476085" stroke-width="2"/>
<path d="M26.7418 116.557L31.9472 141.81L35.6175 141.191L32.3876 115.605L26.7418 116.557Z" fill="#051D41" stroke="#476085"/>
<path d="M41.2208 113.771L17.5957 117.754L14.8009 98.9986L37.715 95.3646L41.2208 113.771Z" fill="#051D41" stroke="#85A7DA"/>
<path d="M34.6666 92.9835L17.2852 95.9141L13.7171 74.4098C13.0136 70.1698 15.8531 66.157 20.0598 65.4478L22.2081 65.0856C26.4148 64.3763 30.3951 67.2393 31.0986 71.4793L34.6666 92.9835Z" fill="#051D41" stroke="#EBEBEB"/>
<defs>
<filter id="filter0_d_1976_3215" x="17.5117" y="12.3887" width="99.4844" height="134.545" filterUnits="userSpaceOnUse" color-interpolation-filters="sRGB">
<feFlood flood-opacity="0" result="BackgroundImageFix"/>
<feColorMatrix in="SourceAlpha" type="matrix" values="0 0 0 0 0 0 0 0 0 0 0 0 0 0 0 0 0 0 127 0" result="hardAlpha"/>
<feOffset dx="1" dy="4"/>
<feGaussianBlur stdDeviation="2"/>
<feComposite in2="hardAlpha" operator="out"/>
<feColorMatrix type="matrix" values="0 0 0 0 0.0196078 0 0 0 0 0.113725 0 0 0 0 0.254902 0 0 0 0.5 0"/>
<feBlend mode="normal" in2="BackgroundImageFix" result="effect1_dropShadow_1976_3215"/>
<feBlend mode="normal" in="SourceGraphic" in2="effect1_dropShadow_1976_3215" result="shape"/>
</filter>
</defs>
</svg>
