<svg width="72" height="81" viewBox="0 0 72 81" fill="none" xmlns="http://www.w3.org/2000/svg">
<g clip-path="url(#clip0_1976_24196)">
<path d="M23.0326 26.0756C23.0326 19.3931 28.4723 13.976 35.1826 13.976C41.8929 13.976 47.3326 19.3931 47.3326 26.0756C47.3326 32.7581 41.8929 38.1752 35.1826 38.1752C28.4723 38.1752 23.0326 32.7581 23.0326 26.0756Z" fill="#89ABDC" stroke="#2C4975" stroke-width="3" stroke-miterlimit="10" stroke-linecap="round" stroke-linejoin="round"/>
<path d="M18.9826 26.0757H51.3826" stroke="#2C4975" stroke-width="3" stroke-miterlimit="10" stroke-linecap="round" stroke-linejoin="round"/>
<path d="M47.3325 54.3081H23.0325V38.1753H47.3325V54.3081Z" fill="#89ABDC" stroke="#2C4975" stroke-width="3" stroke-miterlimit="10" stroke-linecap="round" stroke-linejoin="round"/>
<path d="M31.1327 46.2417H39.2327" stroke="#2C4975" stroke-width="3" stroke-miterlimit="10" stroke-linecap="round" stroke-linejoin="round"/>
<path d="M39.2326 54.3081V74.7429C39.2326 76.9703 37.4192 78.7761 35.1826 78.7761C32.9459 78.7761 31.1326 76.9703 31.1326 74.7429V54.3081" fill="#89ABDC"/>
<path d="M39.2326 54.3081V74.7429C39.2326 76.9703 37.4192 78.7761 35.1826 78.7761C32.9459 78.7761 31.1326 76.9703 31.1326 74.7429V54.3081" stroke="#2C4975" stroke-width="3" stroke-miterlimit="10" stroke-linecap="round" stroke-linejoin="round"/>
<path d="M44.1348 11.3116L46.9685 8.45972" stroke="#2C4975" stroke-width="3" stroke-miterlimit="10" stroke-linecap="round" stroke-linejoin="round"/>
<path d="M27.1335 11.3116L24.3 8.45972" stroke="#2C4975" stroke-width="3" stroke-miterlimit="10" stroke-linecap="round" stroke-linejoin="round"/>
<path d="M35.6344 7.49873V3.59998" stroke="#2C4975" stroke-width="3" stroke-miterlimit="10" stroke-linecap="round" stroke-linejoin="round"/>
</g>
<defs>
<clipPath id="clip0_1976_24196">
<rect width="72" height="80.1" fill="white"/>
</clipPath>
</defs>
</svg>
