<svg width="36" height="36" viewBox="0 0 36 36" fill="none" xmlns="http://www.w3.org/2000/svg">
<path d="M13.0002 12.9997H13.0168M23.0002 22.9997H23.0168M24.6668 11.333L11.3335 24.6663M34.6668 17.9997C34.6668 27.2044 27.2049 34.6663 18.0002 34.6663C8.79542 34.6663 1.3335 27.2044 1.3335 17.9997C1.3335 8.79493 8.79542 1.33301 18.0002 1.33301C27.2049 1.33301 34.6668 8.79493 34.6668 17.9997ZM13.8335 12.9997C13.8335 13.4599 13.4604 13.833 13.0002 13.833C12.5399 13.833 12.1668 13.4599 12.1668 12.9997C12.1668 12.5394 12.5399 12.1663 13.0002 12.1663C13.4604 12.1663 13.8335 12.5394 13.8335 12.9997ZM23.8335 22.9997C23.8335 23.4599 23.4604 23.833 23.0002 23.833C22.5399 23.833 22.1668 23.4599 22.1668 22.9997C22.1668 22.5394 22.5399 22.1663 23.0002 22.1663C23.4604 22.1663 23.8335 22.5394 23.8335 22.9997Z" stroke="#BBCEEB" stroke-width="2" stroke-linecap="round" stroke-linejoin="round"/>
</svg>
