<svg width="40" height="30" viewBox="0 0 40 30" fill="none" xmlns="http://www.w3.org/2000/svg">
<path d="M9.76378 30C8.08399 30 6.61417 29.6774 5.35433 29.0323C4.09449 28.3154 3.07961 27.3835 2.30971 26.2366C1.6098 25.0896 1.04987 23.7276 0.629921 22.1505C0.209974 20.5735 0 18.9247 0 17.2043C0 13.6918 0.874891 10.3943 2.62467 7.31183C4.44444 4.22939 7.24409 1.79212 11.0236 0L11.9685 1.93548C10.0087 2.86738 8.25897 4.22939 6.71916 6.02151C5.24934 7.74194 4.37445 9.5699 4.09449 11.5054C3.67454 13.0108 3.63954 14.4803 3.9895 15.914C5.52931 14.1935 7.59405 13.3333 10.1837 13.3333C12.5634 13.3333 14.5232 14.086 16.063 15.5914C17.6028 17.0251 18.3727 19.0323 18.3727 21.6129C18.3727 24.1219 17.5678 26.1649 15.958 27.7419C14.3482 29.2473 12.2835 30 9.76378 30ZM31.3911 30C29.7113 30 28.2415 29.6774 26.9816 29.0323C25.7218 28.3154 24.7069 27.3835 23.937 26.2366C23.2371 25.0896 22.6772 23.7276 22.2572 22.1505C21.8373 20.5735 21.6273 18.9247 21.6273 17.2043C21.6273 13.6918 22.5022 10.3943 24.252 7.31183C26.0717 4.22939 28.8714 1.79212 32.6509 0L33.5958 1.93548C31.636 2.86738 29.8863 4.22939 28.3465 6.02151C26.8766 7.74194 26.0017 9.5699 25.7218 11.5054C25.3018 13.0108 25.2668 14.4803 25.6168 15.914C27.1566 14.1935 29.2213 13.3333 31.811 13.3333C34.1907 13.3333 36.1505 14.086 37.6903 15.5914C39.2301 17.0251 40 19.0323 40 21.6129C40 24.1219 39.1951 26.1649 37.5853 27.7419C35.9755 29.2473 33.9108 30 31.3911 30Z" fill="#BBCEEB"/>
</svg>
