<svg width="24" height="24" viewBox="0 0 24 24" fill="none" xmlns="http://www.w3.org/2000/svg">
<path d="M20 19.1108L15.2512 14.362C16.3923 12.9921 16.9613 11.2349 16.8399 9.45614C16.7185 7.67735 15.9159 6.01385 14.5992 4.81169C13.2825 3.60954 11.5531 2.96128 9.7706 3.00179C7.98813 3.0423 6.28989 3.76844 5.02916 5.02916C3.76844 6.28989 3.0423 7.98813 3.00179 9.7706C2.96128 11.5531 3.60954 13.2825 4.81169 14.5992C6.01385 15.9159 7.67735 16.7185 9.45614 16.8399C11.2349 16.9613 12.9921 16.3923 14.362 15.2512L19.1108 20L20 19.1108ZM4.27987 9.93911C4.27987 8.81982 4.61178 7.72566 5.23362 6.795C5.85547 5.86435 6.73932 5.13899 7.77341 4.71065C8.80751 4.28232 9.94539 4.17024 11.0432 4.38861C12.141 4.60697 13.1493 5.14596 13.9408 5.93742C14.7323 6.72888 15.2713 7.73726 15.4896 8.83505C15.708 9.93284 15.5959 11.0707 15.1676 12.1048C14.7392 13.1389 14.0139 14.0228 13.0832 14.6446C12.1526 15.2665 11.0584 15.5984 9.93911 15.5984C8.4387 15.5967 7.00021 14.9999 5.93926 13.939C4.87831 12.878 4.28153 11.4395 4.27987 9.93911V9.93911Z" fill="#051D41"/>
</svg>
