<svg width="17" height="17" viewBox="0 0 17 17" fill="none" xmlns="http://www.w3.org/2000/svg">
<path d="M17 16.1108L12.2512 11.362C13.3923 9.99207 13.9613 8.23493 13.8399 6.45614C13.7185 4.67735 12.9159 3.01385 11.5992 1.81169C10.2825 0.609537 8.55307 -0.0387151 6.7706 0.00178999C4.98813 0.0422951 3.28989 0.768438 2.02916 2.02916C0.768438 3.28989 0.0422951 4.98813 0.00178999 6.7706C-0.0387151 8.55307 0.609537 10.2825 1.81169 11.5992C3.01385 12.9159 4.67735 13.7185 6.45614 13.8399C8.23493 13.9613 9.99207 13.3923 11.362 12.2512L16.1108 17L17 16.1108ZM1.27987 6.93911C1.27987 5.81982 1.61178 4.72566 2.23362 3.795C2.85547 2.86435 3.73932 2.13899 4.77341 1.71065C5.80751 1.28232 6.94539 1.17024 8.04318 1.38861C9.14096 1.60697 10.1493 2.14596 10.9408 2.93742C11.7323 3.72888 12.2713 4.73726 12.4896 5.83505C12.708 6.93284 12.5959 8.07072 12.1676 9.10481C11.7392 10.1389 11.0139 11.0228 10.0832 11.6446C9.15257 12.2665 8.05841 12.5984 6.93911 12.5984C5.4387 12.5967 4.00021 11.9999 2.93926 10.939C1.87831 9.87801 1.28153 8.43953 1.27987 6.93911Z" fill="#BBCEEB"/>
</svg>
