<svg width="24" height="24" viewBox="0 0 24 24" fill="none" xmlns="http://www.w3.org/2000/svg">
<path d="M20.7823 3.21843C20.681 3.11768 20.5532 3.04793 20.4137 3.01737C20.2742 2.98681 20.1288 2.99672 19.9948 3.04593L3.49476 9.04592C3.35246 9.0999 3.22995 9.19589 3.14349 9.32114C3.05704 9.44639 3.01074 9.59498 3.01074 9.74717C3.01074 9.89937 3.05704 10.048 3.14349 10.1732C3.22995 10.2985 3.35246 10.3945 3.49476 10.4484L10.6948 13.3284L13.5748 20.5284C13.6289 20.6645 13.7216 20.7817 13.8416 20.8657C13.9615 20.9496 14.1034 20.9966 14.2498 21.0009C14.4013 20.9978 14.5484 20.9489 14.6716 20.8605C14.7947 20.7721 14.8882 20.6485 14.9398 20.5059L20.9398 4.00593C20.9909 3.87323 21.0032 3.72875 20.9753 3.58932C20.9474 3.44989 20.8805 3.32126 20.7823 3.21843ZM14.2498 18.1509L12.1573 12.9009L15.7498 9.30842L14.6923 8.25093L11.0698 11.8734L5.84976 9.75092L18.9973 5.00343L14.2498 18.1509Z" fill="#2C4975"/>
</svg>
