<svg width="24" height="24" viewBox="0 0 24 24" fill="none" xmlns="http://www.w3.org/2000/svg">
<path d="M20.3046 14.1489L18.601 12.5143C18.6213 12.3039 18.6336 12.0894 18.6336 11.8749C18.6336 11.6604 18.6213 11.4459 18.601 11.2355L20.3009 9.58852C20.4723 9.42364 20.5834 9.20599 20.6163 8.97046C20.6493 8.73493 20.6023 8.49515 20.4828 8.28953L19.4144 6.43628C19.295 6.22943 19.1098 6.06845 18.8883 5.97896C18.6669 5.88947 18.4219 5.8766 18.1923 5.9424L15.9224 6.60203C15.5773 6.35175 15.207 6.13809 14.8176 5.96452L14.2428 3.66765C14.1857 3.43623 14.0526 3.23068 13.8648 3.08394C13.677 2.9372 13.4454 2.85778 13.207 2.8584H11.0665C10.8278 2.85871 10.596 2.93898 10.4082 3.08641C10.2204 3.23384 10.0874 3.43992 10.0304 3.67177L9.46377 5.9619C9.07443 6.13555 8.70419 6.3492 8.35902 6.5994L6.08502 5.94803C5.85603 5.88269 5.61176 5.89589 5.39114 5.98553C5.17053 6.07518 4.98628 6.23611 4.86777 6.44265L3.79527 8.29627C3.67636 8.50383 3.63022 8.74518 3.6642 8.98197C3.69817 9.21875 3.8103 9.43739 3.98277 9.60315L5.6864 11.2381C5.66615 11.4485 5.65377 11.6589 5.65377 11.8734C5.65377 12.0879 5.66615 12.3061 5.6864 12.5165L3.9869 14.1598C3.81553 14.3246 3.70444 14.5421 3.67139 14.7776C3.63835 15.0131 3.68527 15.2528 3.80465 15.4584L4.87302 17.3158C4.99273 17.5222 5.17813 17.6826 5.39964 17.7714C5.62115 17.8601 5.86601 17.8722 6.09515 17.8055L8.36502 17.15C8.71113 17.3981 9.08123 17.611 9.46977 17.7853L10.0443 20.084C10.1025 20.3145 10.2361 20.519 10.4238 20.6649C10.6115 20.8108 10.8426 20.8897 11.0804 20.8892H13.219C13.4572 20.8889 13.6884 20.8091 13.8761 20.6625C14.0638 20.5159 14.1972 20.3109 14.2551 20.0799L14.8218 17.7853C15.2098 17.6117 15.5787 17.398 15.9224 17.1478L18.2005 17.7995C18.4295 17.8651 18.6739 17.8521 18.8947 17.7626C19.1154 17.6731 19.2999 17.5122 19.4185 17.3057L20.491 15.4524C20.61 15.2455 20.6563 15.0048 20.6225 14.7685C20.5887 14.5323 20.4768 14.3141 20.3046 14.1489V14.1489ZM12.1428 14.0518C11.7128 14.0513 11.2926 13.9234 10.9352 13.6843C10.5779 13.4451 10.2994 13.1053 10.1351 12.708C9.97079 12.3106 9.92793 11.8735 10.012 11.4518C10.096 11.0301 10.3031 10.6427 10.6072 10.3387C10.9113 10.0347 11.2987 9.82758 11.7204 9.74363C12.1421 9.65968 12.5792 9.70262 12.9766 9.86702C13.3739 10.0314 13.7136 10.3099 13.9527 10.6673C14.1918 11.0247 14.3196 11.4449 14.32 11.8749C14.3203 12.1609 14.2641 12.4441 14.1548 12.7083C14.0454 12.9726 13.8851 13.2127 13.6828 13.4149C13.4806 13.6171 13.2405 13.7774 12.9762 13.8867C12.712 13.996 12.4287 14.0521 12.1428 14.0518V14.0518Z" stroke="#F2F8FF" stroke-linecap="round" stroke-linejoin="round"/>
<path d="M14.3197 11.8753C14.3201 12.3054 14.1929 12.726 13.9542 13.0839C13.7156 13.4418 13.3761 13.7209 12.9789 13.8858C12.5816 14.0508 12.1444 14.0943 11.7224 14.0107C11.3004 13.9272 10.9127 13.7204 10.6082 13.4166C10.3038 13.1127 10.0963 12.7254 10.0119 12.3035C9.9276 11.8817 9.97024 11.4444 10.1345 11.0468C10.2987 10.6492 10.5771 10.3093 10.9345 10.0699C11.292 9.83058 11.7123 9.70259 12.1425 9.70215C12.7192 9.70225 13.2723 9.9311 13.6805 10.3385C14.0886 10.7459 14.3185 11.2986 14.3197 11.8753V11.8753Z" stroke="#F2F8FF" stroke-linecap="round" stroke-linejoin="round"/>
</svg>
