<svg width="24" height="24" viewBox="0 0 24 24" fill="none" xmlns="http://www.w3.org/2000/svg">
<path fill-rule="evenodd" clip-rule="evenodd" d="M20.089 12V12.5444L21.4794 13.7836C21.7361 14.0027 21.9066 14.3019 21.9616 14.6299C22.0166 14.9579 21.9528 15.2943 21.7811 15.5816L20.1037 18.4468C19.9747 18.6644 19.7891 18.8451 19.5657 18.9708C19.3424 19.0966 19.0889 19.1629 18.8309 19.1631C18.671 19.1643 18.512 19.1401 18.36 19.0915L16.5796 18.5041C16.2684 18.7039 15.944 18.8833 15.6085 19.0414L15.2333 20.8465C15.166 21.1763 14.9817 21.4725 14.7127 21.6833C14.4437 21.8942 14.1071 22.0062 13.7619 21.9997H10.2893C9.94407 22.0062 9.60747 21.8942 9.33847 21.6833C9.06946 21.4725 8.8852 21.1763 8.81792 20.8465L8.44271 19.0414C8.10956 18.8833 7.78759 18.7038 7.47893 18.5041L5.69117 19.0915C5.53925 19.1401 5.38022 19.1643 5.22031 19.1631C4.96228 19.1629 4.70886 19.0966 4.48546 18.9708C4.26207 18.8451 4.07655 18.6644 3.94754 18.4468L2.21127 15.5816C2.03168 15.2915 1.96344 14.9489 2.01866 14.6145C2.07388 14.2801 2.24899 13.9756 2.51291 13.755L3.9034 12.5516V12V11.4556L2.51291 10.2164C2.25624 9.99728 2.08579 9.69811 2.03076 9.3701C1.97574 9.0421 2.03955 8.70567 2.21127 8.41843L3.94754 5.55318C4.07655 5.33561 4.26207 5.15489 4.48546 5.02917C4.70886 4.90344 4.96228 4.83712 5.22031 4.83686C5.37862 4.82638 5.53762 4.84089 5.69117 4.87984L7.44215 5.49587C7.75333 5.29613 8.07775 5.11666 8.41328 4.95864L8.78849 3.15353C8.85577 2.82374 9.04004 2.5275 9.30904 2.31666C9.57804 2.10582 9.91464 1.99382 10.2599 2.00026H13.703C14.0483 1.99382 14.3849 2.10582 14.6539 2.31666C14.9229 2.5275 15.1072 2.82374 15.1744 3.15353L15.5496 4.95864C15.8828 5.1167 16.2048 5.29617 16.5134 5.49587L18.3012 4.9085C18.4531 4.85987 18.6121 4.83567 18.772 4.83686C19.0301 4.83712 19.2835 4.90344 19.5069 5.02917C19.7303 5.15489 19.9158 5.33561 20.0448 5.55318L21.7811 8.41843C21.9632 8.7061 22.0351 9.04719 21.9839 9.38144C21.9328 9.7157 21.7619 10.0216 21.5015 10.245L20.089 11.4484V12ZM16.2486 16.8996L18.772 17.7305L20.5083 14.8653L18.5072 13.096C18.6432 12.3545 18.6432 11.5954 18.5072 10.8539L20.5083 9.13475L18.772 6.26949L16.2412 7.07176C15.6484 6.59122 14.9769 6.21106 14.2548 5.94715L13.7324 3.40424H10.2599L9.73755 5.9758C9.00965 6.23243 8.33451 6.61325 7.74379 7.10042L5.22031 6.26949L3.48404 9.13475L5.48517 10.904C5.34913 11.6455 5.34913 12.4046 5.48517 13.1461L3.48404 14.8653L5.22031 17.7305L7.75114 16.9282C8.34392 17.4088 9.0154 17.7889 9.73755 18.0529L10.2599 20.5958H13.7324L14.2548 18.0242C14.9827 17.7676 15.6578 17.3868 16.2486 16.8996ZM9.54416 15.5735C10.2701 16.0458 11.1235 16.2979 11.9966 16.2979C12.5779 16.3036 13.1546 16.1964 13.6928 15.9824C14.231 15.7685 14.72 15.4521 15.1311 15.0518C15.5422 14.6516 15.8671 14.1755 16.0868 13.6515C16.3066 13.1274 16.4167 12.566 16.4108 12C16.4108 11.1499 16.1519 10.319 15.6669 9.6122C15.1818 8.90542 14.4924 8.35455 13.6858 8.02926C12.8792 7.70396 11.9917 7.61885 11.1354 7.78468C10.2791 7.95052 9.49259 8.35985 8.87524 8.96092C8.2579 9.56199 7.83748 10.3278 7.66716 11.1615C7.49684 11.9952 7.58425 12.8594 7.91836 13.6447C8.25246 14.43 8.81824 15.1013 9.54416 15.5735ZM10.8598 9.33486C11.2209 9.19399 11.6076 9.1259 11.9966 9.13473C12.3855 9.1259 12.7723 9.19399 13.1334 9.33486C13.4945 9.47573 13.8226 9.68646 14.0977 9.9543C14.3727 10.2221 14.5892 10.5415 14.7339 10.8931C14.8785 11.2448 14.9485 11.6213 14.9394 12C14.9485 12.3787 14.8785 12.7552 14.7339 13.1068C14.5892 13.4584 14.3727 13.7778 14.0977 14.0457C13.8226 14.3135 13.4945 14.5242 13.1334 14.6651C12.7723 14.806 12.3855 14.8741 11.9966 14.8652C11.6076 14.8741 11.2209 14.806 10.8598 14.6651C10.4986 14.5242 10.1706 14.3135 9.89552 14.0457C9.62042 13.7778 9.40399 13.4584 9.25931 13.1068C9.11462 12.7552 9.0447 12.3787 9.05376 12C9.0447 11.6213 9.11462 11.2448 9.25931 10.8931C9.40399 10.5415 9.62042 10.2221 9.89552 9.9543C10.1706 9.68646 10.4986 9.47573 10.8598 9.33486Z" fill="#2C4975"/>
</svg>
