<svg width="24" height="24" viewBox="0 0 24 24" fill="none" xmlns="http://www.w3.org/2000/svg">
<path d="M16.7339 14.5786C16.245 14.5811 15.7628 14.6914 15.323 14.9014C14.8832 15.1115 14.497 15.4159 14.1929 15.7923L9.4179 12.8577C9.59193 12.3056 9.59193 11.7146 9.4179 11.1625L14.1929 8.22792C14.6776 8.81786 15.359 9.22013 16.1165 9.36348C16.8739 9.50682 17.6586 9.38199 18.3314 9.01108C19.0042 8.64018 19.5217 8.04715 19.7924 7.33705C20.063 6.62695 20.0692 5.84561 19.8099 5.13143C19.5506 4.41726 19.0425 3.81636 18.3757 3.43517C17.7089 3.05397 16.9263 2.9171 16.1666 3.0488C15.407 3.18049 14.7192 3.57225 14.2253 4.15467C13.7313 4.7371 13.463 5.47259 13.4678 6.23088C13.4709 6.51803 13.5149 6.80334 13.5985 7.0785L8.82348 10.0131C8.40192 9.49137 7.82571 9.11153 7.17473 8.92617C6.52374 8.74082 5.83022 8.75914 5.1903 8.97858C4.55037 9.19803 3.99575 9.60774 3.60329 10.1509C3.21084 10.6941 3 11.3439 3 12.0101C3 12.6763 3.21084 13.3261 3.60329 13.8693C3.99575 14.4125 4.55037 14.8222 5.1903 15.0416C5.83022 15.2611 6.52374 15.2794 7.17473 15.094C7.82571 14.9087 8.40192 14.5288 8.82348 14.0071L13.5985 16.9417C13.5149 17.2169 13.4709 17.5022 13.4678 17.7893C13.4678 18.4243 13.6594 19.0451 14.0183 19.5731C14.3772 20.1011 14.8872 20.5126 15.484 20.7556C16.0808 20.9986 16.7375 21.0622 17.3711 20.9383C18.0047 20.8144 18.5866 20.5086 19.0434 20.0596C19.5002 19.6106 19.8112 19.0385 19.9372 18.4157C20.0633 17.7929 19.9986 17.1473 19.7514 16.5606C19.5042 15.974 19.0856 15.4725 18.5485 15.1197C18.0114 14.7669 17.3799 14.5786 16.7339 14.5786ZM16.7339 4.30447C17.1215 4.30447 17.5004 4.41745 17.8226 4.62913C18.1449 4.8408 18.3961 5.14167 18.5444 5.49367C18.6927 5.84568 18.7315 6.23301 18.6559 6.6067C18.5803 6.98039 18.3937 7.32364 18.1196 7.59305C17.8455 7.86247 17.4964 8.04594 17.1162 8.12027C16.7361 8.1946 16.3421 8.15645 15.984 8.01064C15.6259 7.86484 15.3199 7.61793 15.1045 7.30113C14.8892 6.98433 14.7743 6.61188 14.7743 6.23088C14.7743 5.71996 14.9807 5.22997 15.3482 4.8687C15.7157 4.50743 16.2142 4.30447 16.7339 4.30447ZM6.28247 13.9365C5.89488 13.9365 5.51601 13.8235 5.19374 13.6118C4.87148 13.4002 4.62031 13.0993 4.47199 12.7473C4.32367 12.3953 4.28486 12.008 4.36047 11.6343C4.43609 11.2606 4.62272 10.9173 4.89679 10.6479C5.17085 10.3785 5.52002 10.195 5.90016 10.1207C6.28029 10.0464 6.67431 10.0845 7.03239 10.2303C7.39047 10.3761 7.69652 10.623 7.91185 10.9398C8.12718 11.2566 8.24211 11.6291 8.24211 12.0101C8.24211 12.521 8.03565 13.011 7.66815 13.3723C7.30064 13.7335 6.8022 13.9365 6.28247 13.9365ZM16.7339 19.7157C16.3463 19.7157 15.9675 19.6027 15.6452 19.3911C15.3229 19.1794 15.0718 18.8785 14.9234 18.5265C14.7751 18.1745 14.7363 17.7872 14.8119 17.4135C14.8875 17.0398 15.0742 16.6966 15.3482 16.4271C15.6223 16.1577 15.9715 15.9743 16.3516 15.8999C16.7317 15.8256 17.1258 15.8637 17.4838 16.0096C17.8419 16.1554 18.148 16.4023 18.3633 16.7191C18.5786 17.0359 18.6936 17.4083 18.6936 17.7893C18.6936 18.3002 18.4871 18.7902 18.1196 19.1515C17.7521 19.5128 17.2536 19.7157 16.7339 19.7157Z" fill="#2C4975"/>
</svg>
