<svg width="32" height="30" viewBox="0 0 32 30" fill="none" xmlns="http://www.w3.org/2000/svg">
<path d="M26.2308 2H5.76923C4.77044 2.00287 3.81337 2.40532 3.10712 3.11942C2.40087 3.83352 2.00284 4.80123 2 5.81111V18.8778C2.00284 19.8877 2.40087 20.8554 3.10712 21.5695C3.81337 22.2836 4.77044 22.686 5.76923 22.6889H8.46154V28.1333L14.7696 22.8155C14.8665 22.7337 14.9887 22.6889 15.1149 22.6889H26.2308C27.2296 22.686 28.1866 22.2836 28.8929 21.5695C29.5991 20.8554 29.9972 19.8877 30 18.8778V5.81111C29.9972 4.80123 29.5991 3.83352 28.8929 3.11942C28.1866 2.40532 27.2296 2.00287 26.2308 2Z" stroke="#BBCEEB" stroke-width="2.2" stroke-linejoin="round"/>
</svg>
