<svg width="24" height="24" viewBox="0 0 24 24" fill="none" xmlns="http://www.w3.org/2000/svg">
<path fill-rule="evenodd" clip-rule="evenodd" d="M7.0224 2C5.69788 2 4.58574 2.88642 4.23122 4.10941H2V5.65192H4.23122C4.58574 6.87491 5.69788 7.76134 7.0224 7.76134C8.34692 7.76134 9.45906 6.87491 9.81357 5.65192H22V4.10941H9.81357C9.45906 2.88642 8.34692 2 7.0224 2ZM5.67347 4.88067C5.67347 4.12043 6.25293 3.54251 7.0224 3.54251C7.79186 3.54251 8.37133 4.12043 8.37133 4.88067C8.37133 5.64091 7.79186 6.21883 7.0224 6.21883C6.25293 6.21883 5.67347 5.64091 5.67347 4.88067ZM12.3318 16.2388C11.0073 16.2388 9.89518 17.1252 9.54067 18.3482H2V19.8907H9.54067C9.89518 21.1137 11.0073 22.0001 12.3318 22.0001C13.6564 22.0001 14.7685 21.1137 15.123 19.8907H22V18.3482H15.123C14.7685 17.1252 13.6564 16.2388 12.3318 16.2388ZM10.9829 19.1194C10.9829 18.3592 11.5624 17.7813 12.3318 17.7813C13.1013 17.7813 13.6808 18.3592 13.6808 19.1194C13.6808 19.8797 13.1013 20.4576 12.3318 20.4576C11.5624 20.4576 10.9829 19.8797 10.9829 19.1194ZM16.9776 14.8801C18.3021 14.8801 19.4143 13.9937 19.7688 12.7707H22V11.2282H19.7688C19.4143 10.0052 18.3021 9.11881 16.9776 9.11881C15.6531 9.11881 14.5409 10.0052 14.1864 11.2282H2V12.7707H14.1864C14.5409 13.9937 15.6531 14.8801 16.9776 14.8801ZM18.3265 11.9995C18.3265 12.7597 17.7471 13.3376 16.9776 13.3376C16.2081 13.3376 15.6287 12.7597 15.6287 11.9995C15.6287 11.2392 16.2081 10.6613 16.9776 10.6613C17.7471 10.6613 18.3265 11.2392 18.3265 11.9995Z" fill="#2C4975"/>
</svg>
