<svg width="21" height="21" viewBox="0 0 21 21" fill="none" xmlns="http://www.w3.org/2000/svg">
<path d="M10.5 4.06714L12.2812 7.85357L12.5781 8.53214L13.2235 8.63393L17.199 9.23786L14.3723 12.1557L13.8882 12.6511L14.0044 13.3296L14.6821 17.4893L11.126 15.5282L10.5 15.25L9.8998 15.5825L6.34375 17.5164L6.98913 13.3568L7.1053 12.6782L6.62772 12.1557L3.77514 9.20393L7.75068 8.6L8.39606 8.49821L8.69293 7.81964L10.5 4.06714ZM10.5 1L7.56352 7.25643L1 8.25393L5.75 13.1261L4.62704 20L10.5 16.7564L16.373 20L15.25 13.1261L20 8.26071L13.4365 7.25643L10.5 1Z" fill="#BBCEEB" stroke="#BBCEEB" stroke-width="0.3" stroke-linejoin="round"/>
</svg>
