<?xml version="1.0" encoding="UTF-8"?>
<svg width="37px" height="25px" viewBox="0 0 37 25" version="1.1" xmlns="http://www.w3.org/2000/svg" xmlns:xlink="http://www.w3.org/1999/xlink">
    <!-- Generator: Sketch 53.2 (72643) - https://sketchapp.com -->
    <title>Australia</title>
    <desc>Created with Sketch.</desc>
    <g id="Set-1" stroke="none" stroke-width="1" fill="none" fill-rule="evenodd">
        <g id="Australia" fill-rule="nonzero">
            <path d="M36.2911579,24.9795387 L0.636717349,24.9795387 C0.285109162,24.9795387 -3.90798505e-14,24.6854167 -3.90798505e-14,24.3226935 L-3.90798505e-14,0.677380952 C-3.90798505e-14,0.314657738 0.285109162,0.0205357143 0.636717349,0.0205357143 L36.29123,0.0205357143 C36.6428382,0.0205357143 36.9279474,0.314657738 36.9279474,0.677380952 L36.9279474,24.3226935 C36.9278752,24.6854911 36.6427661,24.9795387 36.2911579,24.9795387 Z" id="Path" fill="#41479B"></path>
            <path d="M17.8272203,0.020610119 L16.7212593,0.020610119 L10.8236179,4.00677083 L10.8236179,0.020610119 L7.64017544,0.020610119 L7.64017544,4.00677083 L1.74253411,0.020610119 L0.636717349,0.020610119 C0.285109162,0.020610119 1.52766688e-13,0.314657738 1.52766688e-13,0.677380952 L1.52766688e-13,1.1983631 L5.05991228,4.61822917 L1.52766688e-13,4.61822917 L1.52766688e-13,7.90230655 L5.05991228,7.90230655 L1.52766688e-13,11.322247 L1.52766688e-13,11.8432292 C1.52766688e-13,12.2059524 0.285109162,12.5000744 0.636717349,12.5000744 L1.74267836,12.5000744 L7.64031969,8.51391369 L7.64031969,12.5000744 L10.8237622,12.5000744 L10.8237622,8.51391369 L16.7213314,12.5000744 L17.8272924,12.5000744 C18.1789006,12.5000744 18.4640097,12.2059524 18.4640097,11.8432292 L18.4640097,11.322247 L13.4040975,7.90238095 L18.4639376,7.90238095 L18.4639376,4.61830357 L13.4040253,4.61830357 L18.4639376,1.1984375 L18.4639376,0.677455357 C18.4639376,0.314657738 18.1788285,0.020610119 17.8272203,0.020610119 Z" id="Path" fill="#F5F5F5"></path>
            <g id="Group" transform="translate(-0.000000, 0.000000)" fill="#FF4B55">
                <polygon id="Path" points="18.4639376 5.27514881 10.1869727 5.27514881 10.1869727 0.020610119 8.27696491 0.020610119 8.27696491 5.27514881 0 5.27514881 0 7.24553571 8.27696491 7.24553571 8.27696491 12.5000744 10.1869727 12.5000744 10.1869727 7.24553571 18.4639376 7.24553571"></polygon>
                <path d="M7.00353021,4.61830357 L0.30342885,0.131622024 C0.125136452,0.247991071 0,0.44360119 0,0.677380952 L0,0.711458333 L5.83409942,4.61830357 L7.00353021,4.61830357 Z" id="Path"></path>
                <path d="M11.9931209,4.61830357 L18.3670741,0.35 C18.2562904,0.156622024 18.0608324,0.020610119 17.8272203,0.020610119 L17.6895341,0.020610119 L10.8236901,4.61830357 L11.9931209,4.61830357 Z" id="Path"></path>
                <path d="M6.45329045,7.90238095 L0.0915263158,12.1625 C0.20122807,12.3605655 0.3997154,12.5000744 0.636717349,12.5000744 L0.756805068,12.5000744 L7.62279337,7.90238095 L6.45329045,7.90238095 L6.45329045,7.90238095 Z" id="Path"></path>
                <path d="M18.4538402,11.8947917 L12.491575,7.90238095 L11.3221442,7.90238095 L18.0927836,12.4362351 C18.2955984,12.3391369 18.4347271,12.1356399 18.4538402,11.8947917 Z" id="Path"></path>
            </g>
            <g id="Group" transform="translate(6.346979, 4.389881)" fill="#F5F5F5">
                <path d="M3.07763548,11.6912946 L3.55820273,13.3279762 L5.09828265,12.6951637 C5.22969396,12.6411458 5.34913255,12.7957589 5.26892982,12.9158482 L4.3281345,14.3238839 L5.76788889,15.1714286 C5.89071735,15.24375 5.84809162,15.4364583 5.70701559,15.4466518 L4.05326706,15.5657738 L4.30866082,17.255506 C4.3304425,17.3997024 4.15777583,17.4854911 4.0621384,17.3779762 L2.94074269,16.1184524 L1.81934698,17.3779762 C1.72370955,17.4854167 1.55104288,17.399628 1.57282456,17.255506 L1.82821832,15.5657738 L0.174469786,15.4466518 C0.0333937622,15.4364583 -0.00923196881,15.24375 0.113596491,15.1714286 L1.55335088,14.3238839 L0.612555556,12.9158482 C0.532352827,12.7957589 0.651791423,12.6411458 0.783202729,12.6951637 L2.32328265,13.3279762 L2.8038499,11.6912946 C2.84503314,11.5516369 3.03666862,11.5516369 3.07763548,11.6912946 Z" id="Path"></path>
                <path d="M22.0181735,0.0543154762 L22.2529396,0.853794643 L23.0052008,0.544717262 C23.0693197,0.518377976 23.1277407,0.593824405 23.0885049,0.652529762 L22.6289981,1.34040179 L23.3322865,1.75446429 C23.3922943,1.78973214 23.3714503,1.88392857 23.302499,1.88883929 L22.4947018,1.94702381 L22.6194055,2.77239583 C22.6300799,2.84285714 22.545694,2.88474702 22.4989571,2.83221726 L21.9511696,2.21696429 L21.4033821,2.83221726 C21.3566452,2.88467262 21.2723314,2.84278274 21.2829337,2.77239583 L21.4076374,1.94702381 L20.5998402,1.88883929 C20.5308889,1.88392857 20.5100448,1.78973214 20.5700526,1.75446429 L21.2733411,1.34040179 L20.8138343,0.652529762 C20.7745984,0.593824405 20.8330195,0.518377976 20.8971384,0.544717262 L21.6493996,0.853794643 L21.8841657,0.0543154762 C21.9045049,-0.0139136905 21.9981949,-0.0139136905 22.0181735,0.0543154762 Z" id="Path"></path>
                <path d="M16.783575,6.19092262 L17.0183411,6.99040179 L17.7706023,6.6813244 C17.8347212,6.65498512 17.8931423,6.73043155 17.8539064,6.7891369 L17.3943996,7.47700893 L18.0976881,7.89107143 C18.1576959,7.92633929 18.1368519,8.02053571 18.0679006,8.02544643 L17.2601033,8.08363095 L17.384807,8.90900298 C17.3954815,8.97946429 17.3110955,9.02135417 17.2643587,8.9688244 L16.7165712,8.35357143 L16.1687836,8.9688244 C16.1220468,9.02127976 16.0377329,8.97938988 16.0483353,8.90900298 L16.173039,8.08363095 L15.3652417,8.02544643 C15.2962904,8.02053571 15.2754464,7.92633929 15.3354542,7.89107143 L16.0387427,7.47700893 L15.5792359,6.7891369 C15.54,6.73043155 15.5984211,6.65498512 15.66254,6.6813244 L16.4148012,6.99040179 L16.6495673,6.19092262 C16.6699064,6.12269345 16.7635244,6.12269345 16.783575,6.19092262 Z" id="Path"></path>
                <path d="M26.9705478,3.56361607 L27.2053138,4.36309524 L27.957575,4.05401786 C28.021694,4.02767857 28.080115,4.103125 28.0408791,4.16183036 L27.5813723,4.84970238 L28.2846608,5.26376488 C28.3446686,5.29903274 28.3238246,5.39322917 28.2548733,5.39813988 L27.447076,5.4563244 L27.5717797,6.28169643 C27.5824542,6.35215774 27.4980682,6.39404762 27.4514035,6.34151786 L26.903616,5.72626488 L26.3558285,6.34151786 C26.3090916,6.39397321 26.2247778,6.35208333 26.2353801,6.28169643 L26.3600838,5.4563244 L25.5522865,5.39813988 C25.4833353,5.39322917 25.4624912,5.29903274 25.522499,5.26376488 L26.2257875,4.84970238 L25.7662807,4.16183036 C25.7270448,4.103125 25.7854659,4.02767857 25.8495848,4.05401786 L26.601846,4.36309524 L26.8366121,3.56361607 C26.8568791,3.4953869 26.9504971,3.4953869 26.9705478,3.56361607 Z" id="Path"></path>
                <path d="M22.0181735,14.0726935 L22.2529396,14.8721726 L23.0052008,14.5630208 C23.0693197,14.5366815 23.1277407,14.612128 23.0885049,14.6708333 L22.6289981,15.3587054 L23.3322865,15.7727679 C23.3922943,15.8080357 23.3714503,15.9022321 23.302499,15.9071429 L22.4947018,15.9653274 L22.6194055,16.7906994 C22.6300799,16.8611607 22.545694,16.9030506 22.4989571,16.8505208 L21.9511696,16.2352679 L21.4033821,16.8505208 C21.3566452,16.9029762 21.2723314,16.8610863 21.2829337,16.7906994 L21.4076374,15.9653274 L20.5998402,15.9071429 C20.5308889,15.9022321 20.5100448,15.8080357 20.5700526,15.7727679 L21.2733411,15.3587054 L20.8138343,14.6708333 C20.7745984,14.612128 20.8330195,14.5366815 20.8971384,14.5630208 L21.6493996,14.8721726 L21.8841657,14.0726935 C21.9045049,14.0044643 21.9981949,14.0044643 22.0181735,14.0726935 Z" id="Path"></path>
                <path d="M23.8344191,7.62752976 L23.6459571,8.21056548 L23.0502788,8.21532738 C22.9731774,8.21599702 22.941154,8.31748512 23.0032534,8.36473214 L23.4824503,8.72983631 L23.3027154,9.31577381 C23.2794912,9.39166667 23.3632281,9.45438988 23.4259045,9.40811012 L23.9105828,9.05074405 L24.3952612,9.40811012 C24.4580097,9.45438988 24.5416745,9.39159226 24.5184503,9.31577381 L24.3387154,8.72983631 L24.8179123,8.36473214 C24.8800117,8.31741071 24.8479883,8.21599702 24.7708869,8.21532738 L24.1752086,8.21056548 L23.9867466,7.62752976 C23.9622963,7.55200893 23.8587973,7.55200893 23.8344191,7.62752976 Z" id="Path"></path>
            </g>
        </g>
    </g>
</svg>