<?xml version="1.0" encoding="UTF-8"?>
<svg width="37px" height="25px" viewBox="0 0 37 25" version="1.1" xmlns="http://www.w3.org/2000/svg" xmlns:xlink="http://www.w3.org/1999/xlink">
    <!-- Generator: Sketch 53.2 (72643) - https://sketchapp.com -->
    <title>canada</title>
    <desc>Created with Sketch.</desc>
    <g id="Set-1" stroke="none" stroke-width="1" fill="none" fill-rule="evenodd">
        <g id="canada" fill-rule="nonzero">
            <g id="Group">
                <g fill="#F5F5F5">
                    <path d="M36.2911579,24.9793155 L0.636717349,24.9793155 C0.285109162,24.9793155 0,24.6851935 0,24.3224702 L0,0.677157738 C0,0.314434524 0.285109162,0.0203125 0.636717349,0.0203125 L36.29123,0.0203125 C36.6428382,0.0203125 36.9279474,0.314434524 36.9279474,0.677157738 L36.9279474,24.3224702 C36.9278752,24.6852679 36.6427661,24.9793155 36.2911579,24.9793155 Z" id="Path"></path>
                    <rect id="Rectangle" x="8.27703704" y="0.0206845238" width="20.3738012" height="24.9590774"></rect>
                </g>
                <g fill="#FF4B55">
                    <path d="M0.636717349,0.0203869048 C0.285109162,0.0203869048 0,0.314434524 0,0.677157738 L0,24.3224702 C0,24.6851935 0.285109162,24.9793155 0.636717349,24.9793155 L8.27696491,24.9793155 L8.27696491,0.0203869048 L0.636717349,0.0203869048 Z" id="Path"></path>
                    <path d="M36.2911579,0.0203869048 L28.6509103,0.0203869048 L28.6509103,24.9793155 L36.2911579,24.9793155 C36.6427661,24.9793155 36.9278752,24.6851935 36.9278752,24.3224702 L36.9278752,0.677157738 C36.9278752,0.314434524 36.6427661,0.0203869048 36.2911579,0.0203869048 Z" id="Path"></path>
                    <path d="M22.3275887,15.3837798 L26.1056998,13.1566964 L25.2387602,12.7095238 C24.9956277,12.5840774 24.8564269,12.313244 24.8924172,12.0351935 L25.1744971,9.85349702 L23.5749864,10.3335565 C23.2216472,10.4396577 22.8549649,10.2154018 22.7754834,9.84479167 L22.6222904,9.13050595 L21.1204366,10.94375 C20.9122125,11.1950893 20.5155984,11.003125 20.5699084,10.6772321 L21.2113138,6.82991071 L20.2293353,7.10699405 C19.9424951,7.18794643 19.6395712,7.05327381 19.4997212,6.78258929 L18.4656686,4.78325893 L18.4656686,4.78028274 L18.4649474,4.78177083 L18.464154,4.78028274 L18.464154,4.78325893 L17.4301014,6.78258929 C17.2901072,7.0531994 16.9871832,7.18787202 16.7003431,7.10699405 L15.7182924,6.82991071 L16.3596979,10.6772321 C16.4140078,11.0029762 16.0173216,11.1950149 15.8090975,10.94375 L14.3072437,9.13050595 L14.1540507,9.84479167 C14.0745692,10.2154762 13.7078869,10.4395833 13.3545478,10.3335565 L11.755037,9.85349702 L12.037117,12.0351935 C12.0731072,12.3131696 11.9339064,12.5840774 11.6907739,12.7095238 L10.8238343,13.1566964 L14.6019454,15.3838542 C14.9932943,15.6145833 15.164807,16.103869 15.0069259,16.5393601 L14.6839513,17.430506 L17.921271,17.1453869 C18.1004288,17.1296131 18.2529006,17.2784226 18.2476355,17.4637649 L18.1456511,21.0384673 L18.7823684,21.0384673 L18.6803119,17.4636161 C18.6750468,17.2781994 18.8275185,17.1294643 19.0066764,17.1452381 L22.2455107,17.430506 L21.9225361,16.5393601 C21.7647992,16.1037946 21.9362398,15.6144345 22.3275887,15.3837798 Z" id="Path"></path>
                </g>
            </g>
        </g>
    </g>
</svg>