<?xml version="1.0" encoding="UTF-8"?>
<svg width="37px" height="25px" viewBox="0 0 37 25" version="1.1" xmlns="http://www.w3.org/2000/svg" xmlns:xlink="http://www.w3.org/1999/xlink">
    <!-- Generator: Sketch 53.2 (72643) - https://sketchapp.com -->
    <title>hong-kong</title>
    <desc>Created with Sketch.</desc>
    <g id="Set-1" stroke="none" stroke-width="1" fill="none" fill-rule="evenodd">
        <g id="hong-kong" fill-rule="nonzero">
            <path d="M36.2911579,24.9795387 L0.636717349,24.9795387 C0.285109162,24.9795387 0,24.6854167 0,24.3226935 L0,0.677380952 C0,0.314657738 0.285109162,0.0205357143 0.636717349,0.0205357143 L36.29123,0.0205357143 C36.6428382,0.0205357143 36.9279474,0.314657738 36.9279474,0.677380952 L36.9279474,24.3226935 C36.9278752,24.6854911 36.6427661,24.9795387 36.2911579,24.9795387 Z" id="Path" fill="#FF4B55"></path>
            <g id="Group" transform="translate(10.818713, 4.613095)" fill="#F5F5F5">
                <path d="M5.37163548,8.8484375 C4.56903119,8.85699405 3.66776023,8.59181548 2.87806628,7.6938244 C2.82361209,7.63191964 2.83125731,7.534375 2.89314035,7.48028274 L2.89335673,7.48005952 C2.95336452,7.42760417 3.04207797,7.43571429 3.09508967,7.49575893 C4.29885185,8.859375 5.79082456,8.62061012 6.68221442,8.29114583 C6.35289279,8.30625 5.93911306,8.28072917 5.67297271,8.10029762 C4.56116959,7.34635417 5.06474464,6.54427083 4.32633138,5.57470238 C3.59260624,4.61130952 2.93237622,4.63489583 1.89276998,4.79747024 C0.863549708,4.95833333 0.535670565,4.17953869 0.433614035,3.74732143 C0.415366472,3.66986607 0.310641326,3.66502976 0.283810916,3.73965774 C-0.999,7.31510417 2.85823197,11.7392113 6.81838596,8.55818452 C6.42761404,8.70662202 5.92432749,8.84263393 5.37163548,8.8484375 Z M2.48181287,7.63511905 C2.45930994,7.69895833 2.37095712,7.69642857 2.35184405,7.63139881 L2.20413255,7.12924107 L1.69572515,7.1108631 C1.62987524,7.10848214 1.60492008,7.02105655 1.65894152,6.98221726 L2.07625536,6.68214286 L1.93611696,6.17760417 C1.91794152,6.11235119 1.99085965,6.06078869 2.04336647,6.10171131 L2.4489961,6.41837798 L2.87078168,6.1249256 C2.92538012,6.08690476 2.99548538,6.14248512 2.97384795,6.20669643 L2.80723977,6.70252976 L3.20810916,7.02566964 C3.25996686,7.06755952 3.23039571,7.15342262 3.16454581,7.15208333 L2.65592203,7.14181548 L2.48181287,7.63511905 Z" id="Shape"></path>
                <path d="M8.21277388,6.47291667 C8.85006823,5.96956845 9.72537427,5.62418155 10.8793704,5.85409226 C10.958924,5.86994048 11.0095556,5.95267857 10.9915244,6.03422619 L10.9914522,6.03452381 C10.9739259,6.11369048 10.8981949,6.16205357 10.8208772,6.14672619 C9.06492788,5.80022321 8.00974269,6.91436012 7.48806433,7.72946429 C7.74280897,7.51361607 8.08879142,7.2780506 8.40664522,7.2578869 C9.73460624,7.17328869 9.79785965,8.12678571 10.9525049,8.44575893 C12.0996491,8.76264881 12.6142593,8.33541667 13.351807,7.56212798 C14.0818538,6.79657738 14.7970429,7.21696429 15.1298986,7.49970238 C15.1894737,7.55037202 15.2760955,7.48950893 15.2541696,7.41316964 C14.2021579,3.75840774 8.54353801,2.6046131 7.22387135,7.60014881 C7.45012671,7.23980655 7.77389474,6.81956845 8.21277388,6.47291667 Z M11.2306179,5.65602679 C11.2115049,5.59099702 11.2837018,5.53831845 11.3367856,5.57849702 L11.7468869,5.88891369 L12.1644172,5.5890625 C12.2184386,5.55022321 12.2892651,5.6047619 12.2687096,5.66927083 L12.1092417,6.16763393 L12.514655,6.48459821 C12.5671618,6.52566964 12.5387446,6.61205357 12.4729669,6.61168155 L11.964271,6.60922619 L11.7973743,7.10498512 C11.7757368,7.16919643 11.687384,7.16800595 11.6673333,7.10334821 L11.5124094,6.60349702 L11.0037856,6.59293155 C10.9379357,6.59151786 10.9116823,6.50453869 10.9651988,6.46488095 L11.3781852,6.15840774 L11.2306179,5.65602679 Z" id="Shape"></path>
                <path d="M6.08725731,6.81748512 C5.77423587,6.05498512 5.66893372,5.09434524 6.17344639,3.99925595 C6.20821053,3.92373512 6.29858285,3.89389881 6.37056335,3.93236607 L6.37085185,3.93251488 C6.44074074,3.96979167 6.4671384,4.05758929 6.43360039,4.13095238 C5.6691501,5.79821429 6.45098246,7.13080357 7.08546394,7.85572917 C6.94655166,7.54724702 6.81211111,7.14285714 6.87255166,6.8202381 C7.12534893,5.47269345 8.0359961,5.64791667 8.62417349,4.57440476 C9.20860039,3.5078125 8.93625731,2.88697917 8.39496101,1.95699405 C7.85907407,1.03630952 8.43253801,0.427157738 8.78118908,0.165401786 C8.843577,0.118526786 8.80816374,0.0168154762 8.73106238,0.0196428571 C5.03776998,0.156324405 2.53951267,5.51964286 6.89793957,8.08720238 C6.6162924,7.77098214 6.30283821,7.34255952 6.08725731,6.81748512 Z M6.07535673,3.59888393 C6.00950682,3.60171131 5.97820468,3.51644345 6.02919688,3.4735119 L6.4231423,3.14151786 L6.24614815,2.64947917 C6.22321248,2.58578869 6.29216374,2.52864583 6.34748343,2.56540179 L6.77532749,2.84933036 L7.17417739,2.52366071 C7.22581871,2.48147321 7.29974659,2.53139881 7.28294152,2.59717262 L7.15340546,3.1046131 L7.5768499,3.3953125 C7.63166472,3.43296131 7.60851267,3.52090774 7.54280702,3.52477679 L7.03490448,3.55446429 L6.89779532,4.05982143 C6.88005263,4.12522321 6.79177193,4.1296875 6.76789864,4.06636905 L6.58354776,3.57730655 L6.07535673,3.59888393 Z" id="Shape"></path>
                <path d="M8.96489084,8.54761905 C9.62829435,9.01369048 10.2211598,9.7625 10.3719006,10.9649554 C10.3823587,11.0479167 10.3219903,11.1234375 10.2412827,11.1313988 L10.2408499,11.1313988 C10.1625224,11.1391369 10.0942203,11.0800595 10.0839786,10.999628 C9.85137622,9.17098214 8.4945653,8.4875 7.58052827,8.23251488 C7.8591462,8.41421131 8.1845731,8.67909226 8.30307407,8.98407738 C8.79799415,10.2581101 7.9404308,10.6196429 8.00945419,11.8506696 C8.07804483,13.0737351 8.63304483,13.4435268 9.5762924,13.9229911 C10.5100916,14.397619 10.347883,15.2299851 10.1920936,15.6449405 C10.1642534,15.7192708 10.2474133,15.7848958 10.3107388,15.7394345 C13.343729,13.5611607 12.6283957,7.65677083 7.61651852,7.93325893 C8.01976803,8.04166667 8.50812476,8.22671131 8.96489084,8.54761905 Z M10.664655,11.2467262 C10.7185322,11.2075893 10.789575,11.261756 10.769308,11.3263393 L10.6124366,11.8255208 L11.0195088,12.1403274 C11.0721598,12.1810268 11.0443197,12.2675595 10.9784698,12.2676339 L10.4697739,12.2679315 L10.3054016,12.7645833 C10.2841248,12.828869 10.1956998,12.8281994 10.1753606,12.7636161 L10.0178402,12.2645833 L9.50921637,12.2567708 C9.44329435,12.2558036 9.41668031,12.1688244 9.46990838,12.128869 L9.88130799,11.8200893 L9.7312885,11.3186012 C9.71188694,11.2536458 9.7837232,11.2005952 9.83702339,11.2405506 L10.2487836,11.5487351 L10.664655,11.2467262 Z" id="Shape"></path>
                <path d="M7.30566082,10.0314732 C7.07716959,10.8252232 6.56609357,11.6356399 5.50160429,12.1497024 C5.42818129,12.1851935 5.34011696,12.1488839 5.30823782,12.0720238 L5.30809357,12.0717262 C5.27715205,11.9970982 5.31090643,11.9120536 5.38202144,11.8774554 C6.99977973,11.0924107 7.21810136,9.55119048 7.17540351,8.57537202 C7.09238791,8.90453869 6.94684016,9.30483631 6.70132749,9.5141369 C5.67549708,10.3881696 5.08068421,9.65543155 3.96498635,10.0979167 C2.85642885,10.5375 2.68383431,11.1953869 2.52811696,12.2682292 C2.37405848,13.3302827 1.55594737,13.4241071 1.12550682,13.3973958 C1.04847758,13.3926339 1.01306433,13.4943452 1.07429825,13.5427827 C4.00862183,15.8604911 9.2430039,13.3609375 7.46267641,8.51994048 C7.48532359,8.94866071 7.46303704,9.48482143 7.30566082,10.0314732 Z M5.33045224,12.5229911 C5.38295906,12.5640625 5.35461404,12.6502976 5.28876413,12.6500744 L4.78014035,12.6477679 L4.61338791,13.1436012 C4.59182261,13.2078125 4.50339766,13.206622 4.48334698,13.1419643 L4.32820663,12.6421131 L3.81958285,12.6316964 C3.75373294,12.6303571 3.72740741,12.5433036 3.78092398,12.5036458 L4.19376608,12.1970238 L4.04619883,11.6947917 C4.02708577,11.6297619 4.09921053,11.5770833 4.15229435,11.6172619 L4.56253996,11.9275298 L4.97999805,11.6275298 C5.03401949,11.5886905 5.104846,11.6432292 5.08429045,11.7077381 L4.92503899,12.2061012 L5.33045224,12.5229911 Z" id="Shape"></path>
            </g>
        </g>
    </g>
</svg>