<?xml version="1.0" encoding="UTF-8"?>
<svg width="37px" height="25px" viewBox="0 0 37 25" version="1.1" xmlns="http://www.w3.org/2000/svg" xmlns:xlink="http://www.w3.org/1999/xlink">
    <!-- Generator: Sketch 53.2 (72643) - https://sketchapp.com -->
    <title>India</title>
    <desc>Created with Sketch.</desc>
    <g id="Set-1" stroke="none" stroke-width="1" fill="none" fill-rule="evenodd">
        <g id="India" fill-rule="nonzero">
            <path d="M0,8.33333333 L0,0.657920233 C0,0.294603385 0.285665458,0 0.637959691,0 L36.3620403,0 C36.7143345,0 37,0.294603385 37,0.657920233 L37,8.33333333 L0,8.33333333 Z" id="Path" fill="#E77817"></path>
            <path d="M36.3620391,25 L0.637960937,25 C0.285666016,25 0,24.705394 0,24.3420739 L0,16.6666667 L37,16.6666667 L37,24.3420739 C37,24.7054685 36.714334,25 36.3620391,25 Z" id="Path" fill="#528733"></path>
            <rect id="Rectangle" fill="#F5F5F5" x="0" y="8.33333333" width="37" height="8.33333333"></rect>
            <g id="Group" transform="translate(15.000000, 9.375000)" fill="#41479B">
                <path d="M3.5,7.24981554 C1.59220833,7.24981554 0.04025,5.63319227 0.04025,3.64590929 C0.04025,1.6586263 1.59220833,0.0420030382 3.5,0.0420030382 C5.40779167,0.0420030382 6.95975,1.6586263 6.95975,3.64590929 C6.95975,5.63319227 5.40779167,7.24981554 3.5,7.24981554 Z M3.5,0.712456597 C1.94702083,0.712456597 0.683885417,2.02822266 0.683885417,3.64590929 C0.683885417,5.26359592 1.94702083,6.57936198 3.5,6.57936198 C5.05297917,6.57936198 6.31611458,5.26359592 6.31611458,3.64590929 C6.31611458,2.02822266 5.05297917,0.712456597 3.5,0.712456597 Z" id="Shape"></path>
                <ellipse id="Oval" cx="3.5" cy="3.64590929" rx="1" ry="1"></ellipse>
                <polygon id="Path" points="3.5 3.70720486 2.50322917 3.81202257 0.362104167 3.70720486 0.362104167 3.58461372 2.50322917 3.47979601 3.5 3.58461372"></polygon>
                <polygon id="Path" points="3.5 3.70720486 4.49677083 3.81202257 6.63789583 3.70720486 6.63789583 3.58461372 4.49677083 3.47979601 3.5 3.58461372"></polygon>
                <polygon id="Path" points="3.44115625 3.64590929 3.34053125 2.60760634 3.44115625 0.377267795 3.55884375 0.377267795 3.65946875 2.60760634 3.55884375 3.64590929"></polygon>
                <polygon id="Path" points="3.44115625 3.64590929 3.34053125 4.68421224 3.44115625 6.91455078 3.55884375 6.91455078 3.65946875 4.68421224 3.55884375 3.64590929"></polygon>
                <polygon id="Path" points="3.4584375 3.68920356 2.68245833 3.02923177 1.23958333 1.37797309 1.32278125 1.29130859 2.90798958 2.79430339 3.5415625 3.60261502"></polygon>
                <polygon id="Path" points="3.4584375 3.68920356 4.09201042 4.49751519 5.67721875 6.00050998 5.76041667 5.91384549 4.31754167 4.26258681 3.5415625 3.60261502"></polygon>
                <polygon id="Path" points="3.4584375 3.60261502 4.09201042 2.79430339 5.67721875 1.29130859 5.76041667 1.37797309 4.31754167 3.02923177 3.5415625 3.68920356"></polygon>
                <polygon id="Path" points="3.4584375 3.60261502 2.68245833 4.26258681 1.23958333 5.91384549 1.32278125 6.00050998 2.90798958 4.49751519 3.5415625 3.68920356"></polygon>
                <polygon id="Path" points="3.52253125 3.70257161 2.64009375 4.19673394 0.623510417 4.95339627 0.578447917 4.84014757 2.51810417 3.88980035 3.47746875 3.58924696"></polygon>
                <polygon id="Path" points="3.52253125 3.70257161 4.48189583 3.40201823 6.42155208 2.45167101 6.37648958 2.33842231 4.35990625 3.09508464 3.47746875 3.58924696"></polygon>
                <polygon id="Path" points="3.44560417 3.66937934 2.97120833 2.75017361 2.2448125 0.649565972 2.35353125 0.602625868 3.26586458 2.62310113 3.55439583 3.62243924"></polygon>
                <polygon id="Path" points="3.44560417 3.66937934 3.73413542 4.66871745 4.64646875 6.68919271 4.7551875 6.6422526 4.02879167 4.54164497 3.55439583 3.62243924"></polygon>
                <polygon id="Path" points="3.47746875 3.70257161 2.51810417 3.40201823 0.578447917 2.45167101 0.623510417 2.33842231 2.64009375 3.09508464 3.52253125 3.58924696"></polygon>
                <polygon id="Path" points="3.47746875 3.70257161 4.35990625 4.19673394 6.37648958 4.95339627 6.42155208 4.84014757 4.48189583 3.88980035 3.52253125 3.58924696"></polygon>
                <polygon id="Path" points="3.44560417 3.62243924 3.73413542 2.62310113 4.64646875 0.602625868 4.7551875 0.649565972 4.02879167 2.75017361 3.55439583 3.66937934"></polygon>
                <polygon id="Path" points="3.44560417 3.62243924 2.97120833 4.54164497 2.2448125 6.6422526 2.35353125 6.68919271 3.26586458 4.66871745 3.55439583 3.66937934"></polygon>
            </g>
            <ellipse id="Oval" fill="#F5F5F5" cx="18.5" cy="13.0208333" rx="1" ry="1"></ellipse>
            <ellipse id="Oval" fill="#41479B" cx="18.5" cy="13.0208333" rx="1" ry="1"></ellipse>
        </g>
    </g>
</svg>