<?xml version="1.0" encoding="UTF-8"?>
<svg width="37px" height="25px" viewBox="0 0 37 25" version="1.1" xmlns="http://www.w3.org/2000/svg" xmlns:xlink="http://www.w3.org/1999/xlink">
    <!-- Generator: Sketch 53.2 (72643) - https://sketchapp.com -->
    <title>singapore</title>
    <desc>Created with Sketch.</desc>
    <g id="Set-1" stroke="none" stroke-width="1" fill="none" fill-rule="evenodd">
        <g id="singapore" fill-rule="nonzero">
            <path d="M36.9279474,12.5 L0,12.5 L0,0.677306548 C0,0.314583333 0.285109162,0.0204613095 0.636717349,0.0204613095 L36.29123,0.0204613095 C36.6428382,0.0204613095 36.9279474,0.314583333 36.9279474,0.677306548 L36.9279474,12.5 L36.9279474,12.5 Z" id="Path" fill="#FF4B55"></path>
            <g id="Group" transform="translate(0.000000, 1.636905)" fill="#F5F5F5">
                <path d="M0,10.8630952 L36.9278752,10.8630952 L36.9278752,22.6857887 C36.9278752,23.0485119 36.6427661,23.3426339 36.2911579,23.3426339 L0.636717349,23.3426339 C0.285109162,23.3426339 0,23.0485119 0,22.6857887 L0,10.8630952 Z" id="Path"></path>
                <path d="M5.23402144,4.63266369 C5.23402144,2.47284226 6.77027875,0.682440476 8.7762846,0.351264881 C8.88519298,0.333258929 8.89009747,0.178720238 8.78263158,0.153125 C8.28598051,0.0353422619 7.75853216,0.00178571429 7.21081676,0.0787202381 C5.04721832,0.382738095 3.37478947,2.31428571 3.34420858,4.56666667 C3.30937232,7.13854167 5.31920078,9.2327381 7.80043665,9.2327381 C8.13819688,9.2327381 8.46614815,9.19203869 8.78176608,9.1171131 C8.88915984,9.09166667 8.88375049,8.93675595 8.77498635,8.91875 C6.76977388,8.58779762 5.23402144,6.80089286 5.23402144,4.63266369 Z" id="Path"></path>
                <path d="M8.80931774,5.78831845 L8.62085575,6.37135417 L8.02517739,6.37611607 C7.94807602,6.37678571 7.91605263,6.47827381 7.97815205,6.52552083 L8.45734893,6.890625 L8.27761404,7.4765625 C8.25438986,7.55245536 8.33812671,7.61517857 8.40080312,7.56889881 L8.88548148,7.21153274 L9.37015984,7.56889881 C9.43290838,7.61517857 9.5165731,7.55238095 9.49334893,7.4765625 L9.31361404,6.890625 L9.79281092,6.52552083 C9.85491033,6.4781994 9.82288694,6.37678571 9.74578558,6.37611607 L9.15010721,6.37135417 L8.96164522,5.78831845 C8.93719493,5.71287202 8.83369591,5.71287202 8.80931774,5.78831845 Z" id="Path"></path>
                <path d="M11.7539552,5.78831845 L11.5654932,6.37135417 L10.9698148,6.37611607 C10.8927135,6.37678571 10.8606901,6.47827381 10.9227895,6.52552083 L11.4019864,6.890625 L11.2222515,7.4765625 C11.1990273,7.55245536 11.2827641,7.61517857 11.3454405,7.56889881 L11.8301189,7.21153274 L12.3147973,7.56889881 C12.3775458,7.61517857 12.4612105,7.55238095 12.4379864,7.4765625 L12.2582515,6.890625 L12.7374483,6.52552083 C12.7995478,6.4781994 12.7675244,6.37678571 12.690423,6.37611607 L12.0947446,6.37135417 L11.9062827,5.78831845 C11.8818324,5.71287202 11.7784055,5.71287202 11.7539552,5.78831845 Z" id="Path"></path>
                <path d="M10.2949435,1.10044643 L10.1064815,1.68348214 L9.51080312,1.68824405 C9.43370175,1.68891369 9.40167836,1.79040179 9.46377778,1.83764881 L9.94297466,2.20275298 L9.76323977,2.78869048 C9.74001559,2.86458333 9.82375244,2.92730655 9.88642885,2.88102679 L10.3711072,2.52366071 L10.8557856,2.88102679 C10.9185341,2.92730655 11.0021988,2.86450893 10.9789747,2.78869048 L10.7992398,2.20275298 L11.2784366,1.83764881 C11.3405361,1.79032738 11.3085127,1.68891369 11.2314113,1.68824405 L10.6357329,1.68348214 L10.447271,1.10044643 C10.4228207,1.025 10.3193216,1.025 10.2949435,1.10044643 Z" id="Path"></path>
                <path d="M7.9471384,2.89642857 L7.75867641,3.47946429 L7.16299805,3.48422619 C7.08589669,3.48489583 7.05387329,3.58638393 7.11597271,3.63363095 L7.59516959,3.99873512 L7.4154347,4.58467262 C7.39221053,4.66056548 7.47594737,4.72328869 7.53862378,4.67700893 L8.02330214,4.31964286 L8.50798051,4.67700893 C8.57072904,4.72328869 8.65439376,4.66049107 8.63116959,4.58467262 L8.4514347,3.99873512 L8.93063158,3.63363095 C8.99273099,3.58630952 8.9607076,3.48489583 8.88360624,3.48422619 L8.28792788,3.47946429 L8.09946589,2.89642857 C8.07501559,2.82098214 7.97158869,2.82098214 7.9471384,2.89642857 Z" id="Path"></path>
                <path d="M12.6228421,2.89642857 L12.4343801,3.47946429 L11.8387018,3.48422619 C11.7616004,3.48489583 11.729577,3.58638393 11.7916764,3.63363095 L12.2708733,3.99873512 L12.0911384,4.58467262 C12.0679142,4.66056548 12.1516511,4.72328869 12.2143275,4.67700893 L12.6990058,4.31964286 L13.1836842,4.67700893 C13.2464327,4.72328869 13.3300975,4.66049107 13.3068733,4.58467262 L13.1271384,3.99873512 L13.6063353,3.63363095 C13.6684347,3.58630952 13.6364113,3.48489583 13.5593099,3.48422619 L12.9636316,3.47946429 L12.7751696,2.89642857 C12.7507193,2.82098214 12.6472203,2.82098214 12.6228421,2.89642857 Z" id="Path"></path>
            </g>
        </g>
    </g>
</svg>