<?xml version="1.0" encoding="UTF-8"?>
<svg width="37px" height="25px" viewBox="0 0 37 25" version="1.1" xmlns="http://www.w3.org/2000/svg" xmlns:xlink="http://www.w3.org/1999/xlink">
    <!-- Generator: Sketch 53.2 (72643) - https://sketchapp.com -->
    <title>sweden</title>
    <desc>Created with Sketch.</desc>
    <g id="Set-1" stroke="none" stroke-width="1" fill="none" fill-rule="evenodd">
        <g id="sweden" fill-rule="nonzero">
            <path d="M36.2911579,24.9795387 L0.636717349,24.9795387 C0.285109162,24.9795387 0,24.6854167 0,24.3226935 L0,0.677380952 C0,0.314657738 0.285109162,0.0205357143 0.636717349,0.0205357143 L36.29123,0.0205357143 C36.6428382,0.0205357143 36.9279474,0.314657738 36.9279474,0.677380952 L36.9279474,24.3226935 C36.9278752,24.6854911 36.6427661,24.9795387 36.2911579,24.9795387 Z" id="Path" fill="#4173CD"></path>
            <polygon id="Path" fill="#FFE15A" points="36.9278752 10.5296131 15.2804951 10.5296131 15.2804951 0.020610119 11.4604074 0.020610119 11.4604074 10.5296131 0 10.5296131 0 14.4705357 11.4604074 14.4705357 11.4604074 24.9795387 15.2804951 24.9795387 15.2804951 14.4705357 36.9278752 14.4705357"></polygon>
        </g>
    </g>
</svg>