<?xml version="1.0" encoding="UTF-8"?>
<svg width="37px" height="25px" viewBox="0 0 37 25" version="1.1" xmlns="http://www.w3.org/2000/svg" xmlns:xlink="http://www.w3.org/1999/xlink">
    <!-- Generator: Sketch 53.2 (72643) - https://sketchapp.com -->
    <title>switzerland</title>
    <desc>Created with Sketch.</desc>
    <g id="Set-1" stroke="none" stroke-width="1" fill="none" fill-rule="evenodd">
        <g id="switzerland" fill-rule="nonzero">
            <path d="M36.2911579,24.9795387 L0.636717349,24.9795387 C0.285109162,24.9795387 0,24.6854167 0,24.3226935 L0,0.677380952 C0,0.314657738 0.285109162,0.0205357143 0.636717349,0.0205357143 L36.29123,0.0205357143 C36.6428382,0.0205357143 36.9279474,0.314657738 36.9279474,0.677380952 L36.9279474,24.3226935 C36.9278752,24.6854911 36.6427661,24.9795387 36.2911579,24.9795387 Z" id="Path" fill="#FF4B55"></path>
            <path d="M25.4674678,9.87284226 L21.0106628,9.87284226 L21.0106628,5.27514881 C21.0106628,4.9124256 20.7255536,4.61830357 20.3739454,4.61830357 L16.5537856,4.61830357 C16.2021774,4.61830357 15.9170682,4.9124256 15.9170682,5.27514881 L15.9170682,9.87284226 L11.4602632,9.87284226 C11.108655,9.87284226 10.8235458,10.1669643 10.8235458,10.5296875 L10.8235458,14.4706101 C10.8235458,14.8333333 11.108655,15.1274554 11.4602632,15.1274554 L15.9170682,15.1274554 L15.9170682,19.7251488 C15.9170682,20.087872 16.2021774,20.381994 16.5537856,20.381994 L20.3739454,20.381994 C20.7255536,20.381994 21.0106628,20.087872 21.0106628,19.7251488 L21.0106628,15.1273065 L25.4674678,15.1273065 C25.819076,15.1273065 26.1041852,14.8331845 26.1041852,14.4704613 L26.1041852,10.5295387 C26.1041852,10.1668899 25.819076,9.87284226 25.4674678,9.87284226 Z" id="Path" fill="#F5F5F5"></path>
        </g>
    </g>
</svg>