<?xml version="1.0" encoding="UTF-8"?>
<svg width="37px" height="25px" viewBox="0 0 37 25" version="1.1" xmlns="http://www.w3.org/2000/svg" xmlns:xlink="http://www.w3.org/1999/xlink">
    <!-- Generator: Sketch 53.2 (72643) - https://sketchapp.com -->
    <title>united-arab-emirates</title>
    <desc>Created with Sketch.</desc>
    <g id="Set-1" stroke="none" stroke-width="1" fill="none" fill-rule="evenodd">
        <g id="united-arab-emirates" fill-rule="nonzero">
            <path d="M36.9279474,8.34025298 L11.4604074,8.34025298 L11.4604074,0.020610119 L36.29123,0.020610119 C36.6428382,0.020610119 36.9279474,0.314732143 36.9279474,0.677455357 L36.9279474,8.34025298 L36.9279474,8.34025298 Z" id="Path" fill="#73AF00"></path>
            <path d="M36.2911579,24.9795387 L11.4604074,24.9795387 L11.4604074,16.6598958 L36.9278752,16.6598958 L36.9278752,24.3226935 C36.9278752,24.6854911 36.6427661,24.9795387 36.2911579,24.9795387 Z" id="Path" fill="#464655"></path>
            <rect id="Rectangle" fill="#F5F5F5" x="11.4606238" y="8.34010417" width="25.4672515" height="8.31919643"></rect>
            <path d="M11.4604074,24.9795387 L0.636717349,24.9795387 C0.285109162,24.9795387 0,24.6854167 0,24.3226935 L0,0.677380952 C0,0.314657738 0.285109162,0.0205357143 0.636717349,0.0205357143 L11.4604074,0.0205357143 L11.4604074,24.9795387 Z" id="Path" fill="#FF4B55"></path>
        </g>
    </g>
</svg>