<?xml version="1.0" encoding="UTF-8"?>
<svg width="37px" height="25px" viewBox="0 0 37 25" version="1.1" xmlns="http://www.w3.org/2000/svg" xmlns:xlink="http://www.w3.org/1999/xlink">
    <!-- Generator: Sketch 53.2 (72643) - https://sketchapp.com -->
    <title>UK</title>
    <desc>Created with Sketch.</desc>
    <g id="Set-1" stroke="none" stroke-width="1" fill="none" fill-rule="evenodd">
        <g id="UK" fill-rule="nonzero">
            <path d="M36.2911579,24.9795387 L0.636717349,24.9795387 C0.285109162,24.9795387 0,24.6854167 0,24.3226935 L0,0.677380952 C0,0.314657738 0.285109162,0.0205357143 0.636717349,0.0205357143 L36.29123,0.0205357143 C36.6428382,0.0205357143 36.9279474,0.314657738 36.9279474,0.677380952 L36.9279474,24.3226935 C36.9278752,24.6854167 36.6427661,24.9795387 36.2911579,24.9795387 Z" id="Path" fill="#41479B"></path>
            <path d="M36.9278752,0.677380952 C36.9278752,0.314657738 36.6427661,0.0205357143 36.2911579,0.0205357143 L33.4425906,0.0205357143 L21.647308,7.99278274 L21.647308,0.0205357143 L15.280423,0.0205357143 L15.280423,7.99278274 L3.48521248,0.0205357143 L0.636717349,0.0205357143 C0.285109162,0.0205357143 0,0.314657738 0,0.677380952 L0,2.37611607 L10.1197524,9.21592262 L0,9.21592262 L0,15.7840774 L10.1197524,15.7840774 L0,22.6239583 L0,24.3226935 C0,24.6854167 0.285109162,24.9795387 0.636717349,24.9795387 L3.4852846,24.9795387 L15.2805673,17.0072917 L15.2805673,24.9795387 L21.6474522,24.9795387 L21.6474522,17.0072917 L33.4427349,24.9795387 L36.2913021,24.9795387 C36.6429103,24.9795387 36.9280195,24.6854167 36.9280195,24.3226935 L36.9280195,22.6239583 L26.8082671,15.7841518 L36.9278752,15.7841518 L36.9278752,9.21599702 L26.8081228,9.21599702 L36.9278752,2.37611607 L36.9278752,0.677380952 Z" id="Path" fill="#F5F5F5"></path>
            <g id="Group" fill="#FF4B55">
                <polygon id="Path" points="36.9278752 10.5296131 20.3740175 10.5296131 20.3740175 0.0205357143 16.5538577 0.0205357143 16.5538577 10.5296131 0 10.5296131 0 14.4704613 16.5538577 14.4704613 16.5538577 24.9795387 20.3740175 24.9795387 20.3740175 14.4704613 36.9278752 14.4704613"></polygon>
                <path d="M12.9065809,15.7840774 L0.0180311891,24.4148065 C0.0631091618,24.731994 0.31662768,24.9795387 0.636645224,24.9795387 L1.51361014,24.9795387 L15.2454425,15.7840774 L12.9065809,15.7841518 L12.9065809,15.7840774 Z" id="Path"></path>
                <path d="M24.9831501,15.7840774 L22.6442885,15.7840774 L36.3561423,24.9659226 C36.6757271,24.9308036 36.9279474,24.6616071 36.9279474,24.322619 L36.9279474,23.7825893 L24.9831501,15.7840774 Z" id="Path"></path>
                <path d="M0,1.40245536 L11.668271,9.21599702 L14.0071326,9.21599702 L0.370937622,0.0845982143 C0.153120858,0.188988095 0,0.413318452 0,0.677380952 L0,1.40245536 Z" id="Path"></path>
                <path d="M23.9862417,9.21599702 L36.9057329,0.564434524 C36.8520721,0.257738095 36.603963,0.020610119 36.2911579,0.020610119 L35.3789961,0.020610119 L21.6473801,9.21599702 L23.9862417,9.21599702 Z" id="Path"></path>
            </g>
        </g>
    </g>
</svg>