<?xml version="1.0" encoding="UTF-8"?>
<svg width="37px" height="25px" viewBox="0 0 37 25" version="1.1" xmlns="http://www.w3.org/2000/svg" xmlns:xlink="http://www.w3.org/1999/xlink">
    <!-- Generator: Sketch 53.2 (72643) - https://sketchapp.com -->
    <title>USA</title>
    <desc>Created with Sketch.</desc>
    <g id="Set-1" stroke="none" stroke-width="1" fill="none" fill-rule="evenodd">
        <g id="USA">
            <path d="M37,24.2027131 C37,24.6412616 36.6494395,25 36.2211211,25 L0.778951172,25 C0.350488281,24.999926 0,24.6411876 0,24.2027131 L0,0.797286902 C0,0.358812391 0.350488281,0 0.778951172,0 L36.2211211,0 C36.6495117,0 37,0.358812391 37,0.797286902 L37,24.2027131 Z" id="Path" fill="#FFF7EE"></path>
            <g id="Group" transform="translate(0.000000, -0.000000)" fill="#E02424">
                <path d="M36.2211211,0.000436507937 L15.1303984,0.000436507937 L15.1303984,2.36543651 L37,2.36543651 L37,0.784550265 C37,0.353280423 36.6493672,0.000436507937 36.2211211,0.000436507937 Z" id="Path"></path>
                <path d="M15.1303262,8.89006614 L15.1303262,10.3656812 C15.1303262,10.8548611 14.73525,11.2550661 14.2522988,11.2550661 L37,11.2550661 L37,8.89013889 L15.1303262,8.89013889 L15.1303262,8.89006614 Z" id="Path"></path>
                <rect id="Rectangle" x="0" y="13.334881" width="37" height="2.36492725"></rect>
            </g>
            <rect id="Rectangle" fill="#000000" opacity="0.1" x="-1.5476509e-13" y="13.5714286" width="2.09433962" height="2.14285714"></rect>
            <g id="Group" transform="translate(0.000000, 4.285714)" fill="#E02424">
                <rect id="Rectangle" x="0" y="13.7139789" width="37" height="2.43089995"></rect>
                <path d="M37,19.9078494 L37,18.2829371 L0,18.2829371 L0,19.9078494 C0,20.3512249 0.350488281,20.7139118 0.778951172,20.7139118 L36.2211211,20.7139118 C36.6493672,20.713837 37,20.3511501 37,19.9078494 Z" id="Path"></path>
                <rect id="Rectangle" x="15.1299648" y="0.00777720474" width="21.8692402" height="2.43089995"></rect>
            </g>
            <path d="M0.783616003,5.18696197e-13 C0.352587217,5.18696197e-13 1.82964754e-13,0.358299481 1.82964754e-13,0.796237486 L1.82964754e-13,11.4285714 L15.1733183,11.4285714 C15.6591616,11.4285714 16.0566038,11.0221786 16.0566038,10.5254351 L16.0566038,5.18696197e-13 L0.783616003,5.18696197e-13 Z" id="Path" fill="#0853A4"></path>
            <path d="M3.49056604,5.18696197e-13 L0.841116233,5.18696197e-13 C0.378459387,5.18696197e-13 1.97841743e-13,0.358299481 1.97841743e-13,0.796237486 L1.97841743e-13,11.4285714 L2.64952784,11.4285714 L2.64952784,0.796237486 C2.64952784,0.358299481 3.02798722,5.18696197e-13 3.49056604,5.18696197e-13 Z" id="Path" fill="#000000" opacity="0.1"></path>
            <g id="Group" transform="translate(1.396226, 0.714286)" fill="#FFFFFF">
                <path d="M2.07000051,2.14352608 C2.05248318,2.14352608 2.03460541,2.1393254 2.01824149,2.13018707 L1.8064476,2.01352608 L1.59458162,2.13018707 C1.57828979,2.1392517 1.56055619,2.14352608 1.54289469,2.14352608 C1.5198266,2.14352608 1.4968306,2.13615646 1.4773669,2.12134354 C1.44319729,2.0953288 1.42596831,2.05118481 1.43324918,2.00755669 L1.47361833,1.76030612 L1.30226569,1.58542517 C1.27198882,1.55439909 1.26103148,1.50811791 1.27415146,1.46596372 C1.28719934,1.42373583 1.32201774,1.39300454 1.36404491,1.38666667 L1.60078117,1.35062925 L1.70682229,1.12578231 C1.72556511,1.08598639 1.76420416,1.06078231 1.80651969,1.06078231 C1.84883521,1.06078231 1.88754635,1.08598639 1.90621708,1.12578231 L2.01218612,1.35062925 L2.24899446,1.38666667 C2.29094955,1.39307823 2.32569586,1.42373583 2.33881583,1.46596372 C2.35193581,1.50811791 2.34097847,1.55439909 2.31055742,1.58542517 L2.13927687,1.76030612 L2.17964602,2.00755669 C2.18692689,2.05118481 2.16969791,2.0953288 2.13560039,2.12134354 C2.11620878,2.13608277 2.09314069,2.14352608 2.07000051,2.14352608 Z" id="Path"></path>
                <path d="M2.07000051,4.16420068 C2.05248318,4.16420068 2.03460541,4.1600737 2.01824149,4.15086168 L1.8064476,4.03412698 L1.59458162,4.15086168 C1.57828979,4.16 1.56055619,4.16420068 1.54289469,4.16420068 C1.5198266,4.16420068 1.4968306,4.15683107 1.4773669,4.14201814 C1.44319729,4.1160034 1.42596831,4.07185941 1.43324918,4.0280839 L1.47361833,3.78098073 L1.30226569,3.60602608 C1.27198882,3.57522109 1.26103148,3.52871882 1.27415146,3.48663832 C1.28719934,3.44448413 1.32201774,3.41382653 1.36404491,3.40726757 L1.60078117,3.37130385 L1.70682229,3.14645692 C1.72556511,3.10673469 1.76420416,3.08160431 1.80651969,3.08160431 C1.84883521,3.08160431 1.88754635,3.10673469 1.90621708,3.14645692 L2.01218612,3.37130385 L2.24899446,3.40726757 C2.29094955,3.41382653 2.32569586,3.44448413 2.33881583,3.48663832 C2.35193581,3.52871882 2.34097847,3.57522109 2.31055742,3.60602608 L2.13927687,3.78098073 L2.17964602,4.0280839 C2.18692689,4.07193311 2.16969791,4.11592971 2.13560039,4.14201814 C2.11620878,4.15690476 2.09314069,4.16420068 2.07000051,4.16420068 Z" id="Path"></path>
                <path d="M2.07000051,6.18502268 C2.05248318,6.18502268 2.03460541,6.1806746 2.01824149,6.17168367 L1.8064476,6.05509637 L1.59458162,6.17168367 C1.57828979,6.1807483 1.56055619,6.18502268 1.54289469,6.18502268 C1.5198266,6.18502268 1.4968306,6.17757937 1.4773669,6.16284014 C1.44319729,6.1367517 1.42596831,6.09260771 1.43324918,6.04905329 L1.47361833,5.80187642 L1.30226569,5.62706916 C1.27198882,5.59596939 1.26103148,5.54954082 1.27415146,5.50746032 C1.28719934,5.46530612 1.32201774,5.43450113 1.36404491,5.42808957 L1.60078117,5.39212585 L1.70682229,5.16727891 C1.72556511,5.12763039 1.76420416,5.1025 1.80651969,5.1025 C1.84883521,5.1025 1.88754635,5.12763039 1.90621708,5.16727891 L2.01218612,5.39212585 L2.24899446,5.42808957 C2.29094955,5.43457483 2.32569586,5.46537982 2.33881583,5.50746032 C2.35193581,5.54954082 2.34097847,5.59596939 2.31055742,5.62706916 L2.13927687,5.80187642 L2.17964602,6.04905329 C2.18692689,6.09260771 2.16969791,6.1367517 2.13560039,6.16284014 C2.11620878,6.17757937 2.09314069,6.18502268 2.07000051,6.18502268 Z" id="Path"></path>
                <path d="M2.07000051,8.20577098 C2.05248318,8.20577098 2.03460541,8.2014229 2.01824149,8.19243197 L1.8064476,8.07569728 L1.59458162,8.19243197 C1.57828979,8.2014966 1.56055619,8.20577098 1.54289469,8.20577098 C1.5198266,8.20577098 1.4968306,8.19840136 1.4773669,8.18351474 C1.44319729,8.1575 1.42596831,8.11328231 1.43324918,8.0696542 L1.47361833,7.82262472 L1.30226569,7.64767007 C1.27198882,7.61671769 1.26103148,7.57028912 1.27415146,7.52813492 C1.28719934,7.48598073 1.32201774,7.45517574 1.36404491,7.44876417 L1.60078117,7.41280045 L1.70682229,7.18795351 C1.72556511,7.14830499 1.76420416,7.12310091 1.80651969,7.12310091 C1.84883521,7.12310091 1.88754635,7.14837868 1.90621708,7.18795351 L2.01218612,7.41280045 L2.24899446,7.44876417 C2.29094955,7.45524943 2.32569586,7.48605442 2.33881583,7.52813492 C2.35193581,7.57028912 2.34097847,7.61671769 2.31055742,7.64767007 L2.13927687,7.82262472 L2.17964602,8.0696542 C2.18692689,8.11328231 2.16969791,8.1575 2.13560039,8.18351474 C2.11620878,8.19840136 2.09314069,8.20577098 2.07000051,8.20577098 Z" id="Path"></path>
                <path d="M0.817980004,1.13315193 C0.800462674,1.13315193 0.782584906,1.12895125 0.76622098,1.11973923 L0.554355004,1.00315193 L0.342561116,1.11973923 C0.32619719,1.12887755 0.308463597,1.13315193 0.290730004,1.13315193 C0.267661916,1.13315193 0.244738002,1.12570862 0.225274303,1.11089569 C0.191032609,1.08495465 0.17380363,1.04066327 0.181156583,0.997035147 L0.221453651,0.749858277 L0.0501730927,0.574977324 C0.0198962264,0.543951247 0.00893888433,0.497596372 0.0220588597,0.455442177 C0.0351067473,0.413214286 0.069780968,0.382482993 0.111952317,0.376071429 L0.348688577,0.34010771 L0.454657609,0.115187075 C0.473328343,0.0754648526 0.511967391,0.0503344671 0.554355004,0.0503344671 C0.596742617,0.0503344671 0.635381665,0.0755385488 0.653980312,0.115187075 L0.760021432,0.34010771 L0.996829779,0.376071429 C1.03878486,0.382556689 1.07360326,0.413214286 1.08665115,0.455442177 C1.09977112,0.497596372 1.08888587,0.543951247 1.05853692,0.574977324 L0.88718427,0.749858277 L0.927625513,0.997035147 C0.93483429,1.04066327 0.9176774,1.08488095 0.883435705,1.11089569 C0.864044094,1.12563492 0.84112018,1.13315193 0.817980004,1.13315193 Z" id="Path"></path>
                <path d="M0.817980004,3.15390023 C0.800462674,3.15390023 0.782584906,3.14947846 0.76622098,3.14056122 L0.554355004,3.02390023 L0.342561116,3.14056122 C0.32619719,3.14955215 0.308463597,3.15390023 0.290730004,3.15390023 C0.267661916,3.15390023 0.244738002,3.14638322 0.225274303,3.13171769 C0.191032609,3.10555556 0.17380363,3.06148526 0.181156583,3.01785714 L0.221453651,2.77068027 L0.0501730927,2.59572562 C0.0198962264,2.56477324 0.00893888433,2.51841837 0.0220588597,2.47619048 C0.0351067473,2.43403628 0.069780968,2.40337868 0.111952317,2.39696712 L0.348688577,2.36092971 L0.454657609,2.13608277 C0.473328343,2.09636054 0.511967391,2.07115646 0.554355004,2.07115646 C0.596742617,2.07115646 0.635381665,2.09643424 0.653980312,2.13608277 L0.760021432,2.36092971 L0.996829779,2.39696712 C1.03878486,2.40337868 1.07360326,2.43410998 1.08665115,2.47619048 C1.09977112,2.51841837 1.08888587,2.56477324 1.05853692,2.59572562 L0.88718427,2.77068027 L0.927625513,3.01785714 C0.93483429,3.06148526 0.9176774,3.10555556 0.883435705,3.13171769 C0.864044094,3.14638322 0.84112018,3.15390023 0.817980004,3.15390023 Z" id="Path"></path>
                <path d="M0.817980004,5.17464853 C0.800462674,5.17464853 0.782584906,5.17030045 0.76622098,5.16138322 L0.554355004,5.04464853 L0.342561116,5.16138322 C0.32619719,5.17030045 0.308463597,5.17464853 0.290730004,5.17464853 C0.267661916,5.17464853 0.244738002,5.16713152 0.225274303,5.15246599 C0.191032609,5.12645125 0.17380363,5.08223356 0.181156583,5.03853175 L0.221453651,4.79142857 L0.0501730927,4.61647392 C0.0198962264,4.58552154 0.00893888433,4.53916667 0.0220588597,4.49701247 C0.0351067473,4.45478458 0.069780968,4.42405329 0.111952317,4.41771542 L0.348688577,4.3817517 L0.454657609,4.15675737 C0.473328343,4.11710884 0.511967391,4.09197846 0.554355004,4.09197846 C0.596742617,4.09197846 0.635381665,4.11710884 0.653980312,4.15675737 L0.760021432,4.3817517 L0.996829779,4.41771542 C1.03878486,4.42420068 1.07360326,4.45485828 1.08665115,4.49701247 C1.09977112,4.53916667 1.08888587,4.58552154 1.05853692,4.61647392 L0.88718427,4.79142857 L0.927625513,5.03853175 C0.93483429,5.08223356 0.9176774,5.12645125 0.883435705,5.15246599 C0.864044094,5.16713152 0.84112018,5.17464853 0.817980004,5.17464853 Z" id="Path"></path>
                <path d="M0.817980004,7.19539683 C0.800462674,7.19539683 0.782584906,7.19119615 0.76622098,7.18205782 L0.554355004,7.06539683 L0.342561116,7.18205782 C0.32619719,7.19112245 0.308463597,7.19539683 0.290730004,7.19539683 C0.267661916,7.19539683 0.244738002,7.18802721 0.225274303,7.17321429 C0.191032609,7.14719955 0.17380363,7.10290816 0.181156583,7.05935374 L0.221453651,6.81217687 L0.0501730927,6.63729592 C0.0198962264,6.60641723 0.00893888433,6.55998866 0.0220588597,6.51768707 C0.0351067473,6.47553288 0.069780968,6.44487528 0.111952317,6.43846372 L0.348688577,6.4025737 L0.454657609,6.17765306 C0.473328343,6.13793084 0.511967391,6.11265306 0.554355004,6.11265306 C0.596742617,6.11265306 0.635381665,6.13793084 0.653980312,6.17765306 L0.760021432,6.4025737 L0.996829779,6.43846372 C1.03878486,6.44494898 1.07360326,6.47560658 1.08665115,6.51768707 C1.09977112,6.55991497 1.08888587,6.60634354 1.05853692,6.63729592 L0.88718427,6.81217687 L0.927625513,7.05935374 C0.93483429,7.10290816 0.9176774,7.14712585 0.883435705,7.17321429 C0.864044094,7.18802721 0.84112018,7.19539683 0.817980004,7.19539683 Z" id="Path"></path>
                <path d="M0.817980004,9.21607143 C0.800462674,9.21607143 0.782584906,9.21172336 0.76622098,9.20273243 L0.554355004,9.08614512 L0.342561116,9.20273243 C0.32619719,9.21172336 0.308463597,9.21607143 0.290730004,9.21607143 C0.267661916,9.21607143 0.244738002,9.20870181 0.225274303,9.19388889 C0.191032609,9.16794785 0.17380363,9.12365646 0.181156583,9.08002834 L0.221453651,8.83292517 L0.0501730927,8.65811791 C0.0198962264,8.62709184 0.00893888433,8.58066327 0.0220588597,8.53850907 C0.0351067473,8.49628118 0.069780968,8.46554989 0.111952317,8.45913832 L0.348688577,8.4231746 L0.454657609,8.19840136 C0.473328343,8.15867914 0.511967391,8.13347506 0.554355004,8.13347506 C0.596742617,8.13347506 0.635381665,8.15867914 0.653980312,8.19840136 L0.760021432,8.4231746 L0.996829779,8.45913832 C1.03878486,8.46554989 1.07360326,8.49628118 1.08665115,8.53850907 C1.09977112,8.58066327 1.08888587,8.62709184 1.05853692,8.65811791 L0.88718427,8.83292517 L0.927625513,9.08002834 C0.93483429,9.12365646 0.9176774,9.16794785 0.883435705,9.19388889 C0.864044094,9.20877551 0.84112018,9.21607143 0.817980004,9.21607143 Z" id="Path"></path>
                <path d="M4.50058409,2.14352608 C4.48292258,2.14352608 4.4651169,2.1393254 4.44875297,2.13018707 L4.23695909,2.01352608 L4.0251652,2.13018707 C4.00887336,2.1392517 3.99106768,2.14352608 3.97340617,2.14352608 C3.950266,2.14352608 3.92741417,2.13615646 3.90787838,2.12134354 C3.87370878,2.0953288 3.85640771,2.05118481 3.86376066,2.00755669 L3.90412982,1.76030612 L3.73277717,1.58542517 C3.70242822,1.55439909 3.69147088,1.50811791 3.70459085,1.46596372 C3.71771083,1.42373583 3.75252922,1.39300454 3.79448431,1.38666667 L4.03136475,1.35062925 L4.13726169,1.12578231 C4.15593242,1.08598639 4.19464356,1.06078231 4.23695909,1.06078231 C4.27927461,1.06078231 4.31798575,1.08598639 4.33665648,1.12578231 L4.44262551,1.35062925 L4.67943386,1.38666667 C4.72138895,1.39307823 4.75620734,1.42373583 4.76925523,1.46596372 C4.78244729,1.50811791 4.77141786,1.55439909 4.74106891,1.58542517 L4.56971626,1.76030612 L4.61015751,2.00755669 C4.61736628,2.05118481 4.60013731,2.0953288 4.5659677,2.12134354 C4.54657609,2.13608277 4.52365217,2.14352608 4.50058409,2.14352608 Z" id="Path"></path>
                <path d="M4.50058409,4.16420068 C4.48292258,4.16420068 4.4651169,4.1600737 4.44875297,4.15086168 L4.23695909,4.03412698 L4.0251652,4.15086168 C4.00887336,4.16 3.99106768,4.16420068 3.97340617,4.16420068 C3.950266,4.16420068 3.92741417,4.15683107 3.90787838,4.14201814 C3.87370878,4.1160034 3.85640771,4.07185941 3.86376066,4.0280839 L3.90412982,3.78098073 L3.73277717,3.60602608 C3.70242822,3.57522109 3.69147088,3.52871882 3.70459085,3.48663832 C3.71771083,3.44448413 3.75252922,3.41382653 3.79448431,3.40726757 L4.03136475,3.37130385 L4.13726169,3.14645692 C4.15593242,3.10673469 4.19464356,3.08160431 4.23695909,3.08160431 C4.27927461,3.08160431 4.31798575,3.10673469 4.33665648,3.14645692 L4.44262551,3.37130385 L4.67943386,3.40726757 C4.72138895,3.41382653 4.75620734,3.44448413 4.76925523,3.48663832 C4.78244729,3.52871882 4.77141786,3.57522109 4.74106891,3.60602608 L4.56971626,3.78098073 L4.61015751,4.0280839 C4.61736628,4.07193311 4.60013731,4.11592971 4.5659677,4.14201814 C4.54657609,4.15690476 4.52365217,4.16420068 4.50058409,4.16420068 Z" id="Path"></path>
                <path d="M4.50058409,6.18502268 C4.48292258,6.18502268 4.4651169,6.1806746 4.44875297,6.17168367 L4.23695909,6.05509637 L4.0251652,6.17168367 C4.00887336,6.1807483 3.99106768,6.18502268 3.97340617,6.18502268 C3.950266,6.18502268 3.92741417,6.17757937 3.90787838,6.16284014 C3.87370878,6.1367517 3.85640771,6.09260771 3.86376066,6.04905329 L3.90412982,5.80187642 L3.73277717,5.62706916 C3.70242822,5.59596939 3.69147088,5.54954082 3.70459085,5.50746032 C3.71771083,5.46530612 3.75252922,5.43450113 3.79448431,5.42808957 L4.03136475,5.39212585 L4.13726169,5.16727891 C4.15593242,5.12763039 4.19464356,5.1025 4.23695909,5.1025 C4.27927461,5.1025 4.31798575,5.12763039 4.33665648,5.16727891 L4.44262551,5.39212585 L4.67943386,5.42808957 C4.72138895,5.43457483 4.75620734,5.46537982 4.76925523,5.50746032 C4.78244729,5.54954082 4.77141786,5.59596939 4.74106891,5.62706916 L4.56971626,5.80187642 L4.61015751,6.04905329 C4.61736628,6.09260771 4.60013731,6.1367517 4.5659677,6.16284014 C4.54657609,6.17757937 4.52365217,6.18502268 4.50058409,6.18502268 Z" id="Path"></path>
                <path d="M4.50058409,8.20577098 C4.48292258,8.20577098 4.4651169,8.2014229 4.44875297,8.19243197 L4.23695909,8.07569728 L4.0251652,8.19243197 C4.00887336,8.2014966 3.99106768,8.20577098 3.97340617,8.20577098 C3.950266,8.20577098 3.92741417,8.19840136 3.90787838,8.18351474 C3.87370878,8.1575 3.85640771,8.11328231 3.86376066,8.0696542 L3.90412982,7.82262472 L3.73277717,7.64767007 C3.70242822,7.61671769 3.69147088,7.57028912 3.70459085,7.52813492 C3.71771083,7.48598073 3.75252922,7.45517574 3.79448431,7.44876417 L4.03136475,7.41280045 L4.13726169,7.18795351 C4.15593242,7.14830499 4.19464356,7.12310091 4.23695909,7.12310091 C4.27927461,7.12310091 4.31798575,7.14837868 4.33665648,7.18795351 L4.44262551,7.41280045 L4.67943386,7.44876417 C4.72138895,7.45524943 4.75620734,7.48605442 4.76925523,7.52813492 C4.78244729,7.57028912 4.77141786,7.61671769 4.74106891,7.64767007 L4.56971626,7.82262472 L4.61015751,8.0696542 C4.61736628,8.11328231 4.60013731,8.1575 4.5659677,8.18351474 C4.54657609,8.19840136 4.52365217,8.20577098 4.50058409,8.20577098 Z" id="Path"></path>
                <path d="M3.24849149,1.13315193 C3.23082998,1.13315193 3.21309639,1.12895125 3.19673247,1.11973923 L2.98486649,1.00315193 L2.7730726,1.11973923 C2.75670868,1.12887755 2.73904717,1.13315193 2.72131358,1.13315193 C2.6981734,1.13315193 2.67532158,1.12570862 2.65585788,1.11089569 C2.62168827,1.08495465 2.6043872,1.04066327 2.61166807,0.997035147 L2.65203722,0.749858277 L2.48075667,0.574977324 C2.45040771,0.543951247 2.43952246,0.497596372 2.45257034,0.455442177 C2.46561823,0.413214286 2.50043663,0.382482993 2.5424638,0.376071429 L2.77927215,0.34010771 L2.88516909,0.115187075 C2.90391192,0.0754648526 2.94255096,0.0503344671 2.98493858,0.0503344671 C3.0272541,0.0503344671 3.06596524,0.0755385488 3.08463597,0.115187075 L3.190605,0.34010771 L3.42741335,0.376071429 C3.46944053,0.382556689 3.50418683,0.413214286 3.51723472,0.455442177 C3.5303547,0.497596372 3.51939735,0.543951247 3.48897631,0.574977324 L3.31769575,0.749858277 L3.35820909,0.997035147 C3.36541786,1.04066327 3.34818888,1.08488095 3.31394719,1.11089569 C3.29448349,1.12563492 3.27148749,1.13315193 3.24849149,1.13315193 Z" id="Path"></path>
                <path d="M3.24849149,3.15390023 C3.23082998,3.15390023 3.21309639,3.14947846 3.19673247,3.14056122 L2.98486649,3.02390023 L2.7730726,3.14056122 C2.75670868,3.14955215 2.73904717,3.15390023 2.72131358,3.15390023 C2.6981734,3.15390023 2.67532158,3.14638322 2.65585788,3.13171769 C2.62168827,3.10555556 2.6043872,3.06148526 2.61166807,3.01785714 L2.65203722,2.77068027 L2.48075667,2.59572562 C2.45040771,2.56477324 2.43952246,2.51841837 2.45257034,2.47619048 C2.46561823,2.43403628 2.50043663,2.40337868 2.5424638,2.39696712 L2.77927215,2.36092971 L2.88516909,2.13608277 C2.90391192,2.09636054 2.94255096,2.07115646 2.98493858,2.07115646 C3.0272541,2.07115646 3.06596524,2.09643424 3.08463597,2.13608277 L3.190605,2.36092971 L3.42741335,2.39696712 C3.46944053,2.40337868 3.50418683,2.43410998 3.51723472,2.47619048 C3.5303547,2.51841837 3.51939735,2.56477324 3.48897631,2.59572562 L3.31769575,2.77068027 L3.35820909,3.01785714 C3.36541786,3.06148526 3.34818888,3.10555556 3.31394719,3.13171769 C3.29448349,3.14638322 3.27148749,3.15390023 3.24849149,3.15390023 Z" id="Path"></path>
                <path d="M3.24849149,5.17464853 C3.23082998,5.17464853 3.21309639,5.17030045 3.19673247,5.16138322 L2.98486649,5.04464853 L2.7730726,5.16138322 C2.75670868,5.17030045 2.73904717,5.17464853 2.72131358,5.17464853 C2.6981734,5.17464853 2.67532158,5.16713152 2.65585788,5.15246599 C2.62168827,5.12645125 2.6043872,5.08223356 2.61166807,5.03853175 L2.65203722,4.79142857 L2.48075667,4.61647392 C2.45040771,4.58552154 2.43952246,4.53916667 2.45257034,4.49701247 C2.46561823,4.45478458 2.50043663,4.42405329 2.5424638,4.41771542 L2.77927215,4.3817517 L2.88516909,4.15675737 C2.90391192,4.11710884 2.94255096,4.09197846 2.98493858,4.09197846 C3.0272541,4.09197846 3.06596524,4.11710884 3.08463597,4.15675737 L3.190605,4.3817517 L3.42741335,4.41771542 C3.46944053,4.42420068 3.50418683,4.45485828 3.51723472,4.49701247 C3.5303547,4.53916667 3.51939735,4.58552154 3.48897631,4.61647392 L3.31769575,4.79142857 L3.35820909,5.03853175 C3.36541786,5.08223356 3.34818888,5.12645125 3.31394719,5.15246599 C3.29448349,5.16713152 3.27148749,5.17464853 3.24849149,5.17464853 Z" id="Path"></path>
                <path d="M3.24849149,7.19539683 C3.23082998,7.19539683 3.21309639,7.19119615 3.19673247,7.18205782 L2.98486649,7.06539683 L2.7730726,7.18205782 C2.75670868,7.19112245 2.73904717,7.19539683 2.72131358,7.19539683 C2.6981734,7.19539683 2.67532158,7.18802721 2.65585788,7.17321429 C2.62168827,7.14719955 2.6043872,7.10290816 2.61166807,7.05935374 L2.65203722,6.81217687 L2.48075667,6.63729592 C2.45040771,6.60641723 2.43952246,6.55998866 2.45257034,6.51768707 C2.46561823,6.47553288 2.50043663,6.44487528 2.5424638,6.43846372 L2.77927215,6.4025737 L2.88516909,6.17765306 C2.90391192,6.13793084 2.94255096,6.11265306 2.98493858,6.11265306 C3.0272541,6.11265306 3.06596524,6.13793084 3.08463597,6.17765306 L3.190605,6.4025737 L3.42741335,6.43846372 C3.46944053,6.44494898 3.50418683,6.47560658 3.51723472,6.51768707 C3.5303547,6.55991497 3.51939735,6.60634354 3.48897631,6.63729592 L3.31769575,6.81217687 L3.35820909,7.05935374 C3.36541786,7.10290816 3.34818888,7.14712585 3.31394719,7.17321429 C3.29448349,7.18802721 3.27148749,7.19539683 3.24849149,7.19539683 Z" id="Path"></path>
                <path d="M3.24849149,9.21607143 C3.23082998,9.21607143 3.21309639,9.21172336 3.19673247,9.20273243 L2.98486649,9.08614512 L2.7730726,9.20273243 C2.75670868,9.21172336 2.73904717,9.21607143 2.72131358,9.21607143 C2.6981734,9.21607143 2.67532158,9.20870181 2.65585788,9.19388889 C2.62168827,9.16794785 2.6043872,9.12365646 2.61166807,9.08002834 L2.65203722,8.83292517 L2.48075667,8.65811791 C2.45040771,8.62709184 2.43952246,8.58066327 2.45257034,8.53850907 C2.46561823,8.49628118 2.50043663,8.46554989 2.5424638,8.45913832 L2.77927215,8.4231746 L2.88516909,8.19840136 C2.90391192,8.15867914 2.94255096,8.13347506 2.98493858,8.13347506 C3.0272541,8.13347506 3.06596524,8.15867914 3.08463597,8.19840136 L3.190605,8.4231746 L3.42741335,8.45913832 C3.46944053,8.46554989 3.50418683,8.49628118 3.51723472,8.53850907 C3.5303547,8.58066327 3.51939735,8.62709184 3.48897631,8.65811791 L3.31769575,8.83292517 L3.35820909,9.08002834 C3.36541786,9.12365646 3.34818888,9.16794785 3.31394719,9.19388889 C3.29448349,9.20877551 3.27148749,9.21607143 3.24849149,9.21607143 Z" id="Path"></path>
                <path d="M6.93095139,2.14352608 C6.91343406,2.14352608 6.8955563,2.1393254 6.87919237,2.13018707 L6.66732639,2.01352608 L6.45553251,2.13018707 C6.43916858,2.1392517 6.42150708,2.14352608 6.40377348,2.14352608 C6.38070539,2.14352608 6.35778148,2.13615646 6.33831778,2.12134354 C6.30414817,2.0953288 6.2869192,2.05118481 6.29420006,2.00755669 L6.33449713,1.76030612 L6.16321657,1.58542517 C6.13286762,1.55439909 6.12198236,1.50811791 6.13510234,1.46596372 C6.14822231,1.42373583 6.18282445,1.39300454 6.2249958,1.38666667 L6.46180414,1.35062925 L6.56777317,1.12578231 C6.58637182,1.08598639 6.62508296,1.06078231 6.66739848,1.06078231 C6.7097861,1.06078231 6.74842514,1.08598639 6.76709588,1.12578231 L6.87306491,1.35062925 L7.10994534,1.38666667 C7.15190043,1.39307823 7.18671883,1.42373583 7.19976671,1.46596372 C7.21288669,1.50811791 7.20192935,1.55439909 7.17158039,1.58542517 L7.00022775,1.76030612 L7.04074108,2.00755669 C7.04787777,2.05118481 7.03072088,2.0953288 6.99647918,2.12134354 C6.97701548,2.13608277 6.95401948,2.14352608 6.93095139,2.14352608 Z" id="Path"></path>
                <path d="M6.93095139,4.16420068 C6.91343406,4.16420068 6.8955563,4.1600737 6.87919237,4.15086168 L6.66732639,4.03412698 L6.45553251,4.15086168 C6.43916858,4.16 6.42150708,4.16420068 6.40377348,4.16420068 C6.38070539,4.16420068 6.35778148,4.15683107 6.33831778,4.14201814 C6.30414817,4.1160034 6.2869192,4.07185941 6.29420006,4.0280839 L6.33449713,3.78098073 L6.16321657,3.60602608 C6.13286762,3.57522109 6.12198236,3.52871882 6.13510234,3.48663832 C6.14822231,3.44448413 6.18282445,3.41382653 6.2249958,3.40726757 L6.46180414,3.37130385 L6.56777317,3.14645692 C6.58637182,3.10673469 6.62508296,3.08160431 6.66739848,3.08160431 C6.7097861,3.08160431 6.74842514,3.10673469 6.76709588,3.14645692 L6.87306491,3.37130385 L7.10994534,3.40726757 C7.15190043,3.41382653 7.18671883,3.44448413 7.19976671,3.48663832 C7.21288669,3.52871882 7.20192935,3.57522109 7.17158039,3.60602608 L7.00022775,3.78098073 L7.04074108,4.0280839 C7.04787777,4.07193311 7.03072088,4.11592971 6.99647918,4.14201814 C6.97701548,4.15690476 6.95401948,4.16420068 6.93095139,4.16420068 Z" id="Path"></path>
                <path d="M6.93095139,6.18502268 C6.91343406,6.18502268 6.8955563,6.1806746 6.87919237,6.17168367 L6.66732639,6.05509637 L6.45553251,6.17168367 C6.43916858,6.1807483 6.42150708,6.18502268 6.40377348,6.18502268 C6.38070539,6.18502268 6.35778148,6.17757937 6.33831778,6.16284014 C6.30414817,6.1367517 6.2869192,6.09260771 6.29420006,6.04905329 L6.33449713,5.80187642 L6.16321657,5.62706916 C6.13286762,5.59596939 6.12198236,5.54954082 6.13510234,5.50746032 C6.14822231,5.46530612 6.18282445,5.43450113 6.2249958,5.42808957 L6.46180414,5.39212585 L6.56777317,5.16727891 C6.58637182,5.12763039 6.62508296,5.1025 6.66739848,5.1025 C6.7097861,5.1025 6.74842514,5.12763039 6.76709588,5.16727891 L6.87306491,5.39212585 L7.10994534,5.42808957 C7.15190043,5.43457483 7.18671883,5.46537982 7.19976671,5.50746032 C7.21288669,5.54954082 7.20192935,5.59596939 7.17158039,5.62706916 L7.00022775,5.80187642 L7.04074108,6.04905329 C7.04787777,6.09260771 7.03072088,6.1367517 6.99647918,6.16284014 C6.97701548,6.17757937 6.95401948,6.18502268 6.93095139,6.18502268 Z" id="Path"></path>
                <path d="M6.93095139,8.20577098 C6.91343406,8.20577098 6.8955563,8.2014229 6.87919237,8.19243197 L6.66732639,8.07569728 L6.45553251,8.19243197 C6.43916858,8.2014966 6.42150708,8.20577098 6.40377348,8.20577098 C6.38070539,8.20577098 6.35778148,8.19840136 6.33831778,8.18351474 C6.30414817,8.1575 6.2869192,8.11328231 6.29420006,8.0696542 L6.33449713,7.82262472 L6.16321657,7.64767007 C6.13286762,7.61671769 6.12198236,7.57028912 6.13510234,7.52813492 C6.14822231,7.48598073 6.18282445,7.45517574 6.2249958,7.44876417 L6.46180414,7.41280045 L6.56777317,7.18795351 C6.58637182,7.14830499 6.62508296,7.12310091 6.66739848,7.12310091 C6.7097861,7.12310091 6.74842514,7.14837868 6.76709588,7.18795351 L6.87306491,7.41280045 L7.10994534,7.44876417 C7.15190043,7.45524943 7.18671883,7.48605442 7.19976671,7.52813492 C7.21288669,7.57028912 7.20192935,7.61671769 7.17158039,7.64767007 L7.00022775,7.82262472 L7.04074108,8.0696542 C7.04787777,8.11328231 7.03072088,8.1575 6.99647918,8.18351474 C6.97701548,8.19840136 6.95401948,8.20577098 6.93095139,8.20577098 Z" id="Path"></path>
                <path d="M5.67893089,1.13315193 C5.66126938,1.13315193 5.64353579,1.12895125 5.62717186,1.11973923 L5.41537797,1.00315193 L5.203512,1.11973923 C5.18722016,1.12887755 5.16948657,1.13315193 5.15175297,1.13315193 C5.12868489,1.13315193 5.10568888,1.12570862 5.08629727,1.11089569 C5.05212767,1.08495465 5.0348266,1.04066327 5.04210747,0.997035147 L5.08247662,0.749858277 L4.91119606,0.574977324 C4.88084711,0.543951247 4.86988977,0.497596372 4.88300974,0.455442177 C4.89605763,0.413214286 4.93087603,0.382482993 4.9729032,0.376071429 L5.20978363,0.34010771 L5.31560849,0.115187075 C5.3344234,0.0754648526 5.37299036,0.0503344671 5.41537797,0.0503344671 C5.45762141,0.0503344671 5.49640463,0.0755385488 5.51500328,0.115187075 L5.62097231,0.34010771 L5.85785275,0.376071429 C5.89987992,0.382556689 5.93455414,0.413214286 5.94752994,0.455442177 C5.96064992,0.497596372 5.94969258,0.543951247 5.91934362,0.574977324 L5.74806306,0.749858277 L5.78850431,0.997035147 C5.79571308,1.04066327 5.77848411,1.08488095 5.7443145,1.11089569 C5.72506706,1.12563492 5.70199897,1.13315193 5.67893089,1.13315193 Z" id="Path"></path>
                <path d="M5.67893089,3.15390023 C5.66126938,3.15390023 5.64353579,3.14947846 5.62717186,3.14056122 L5.41537797,3.02390023 L5.203512,3.14056122 C5.18722016,3.14955215 5.16948657,3.15390023 5.15175297,3.15390023 C5.12868489,3.15390023 5.10568888,3.14638322 5.08629727,3.13171769 C5.05212767,3.10555556 5.0348266,3.06148526 5.04210747,3.01785714 L5.08247662,2.77068027 L4.91119606,2.59572562 C4.88084711,2.56477324 4.86988977,2.51841837 4.88300974,2.47619048 C4.89605763,2.43403628 4.93087603,2.40337868 4.9729032,2.39696712 L5.20978363,2.36092971 L5.31560849,2.13608277 C5.3344234,2.09636054 5.37299036,2.07115646 5.41537797,2.07115646 C5.45762141,2.07115646 5.49640463,2.09643424 5.51500328,2.13608277 L5.62097231,2.36092971 L5.85785275,2.39696712 C5.89987992,2.40337868 5.93455414,2.43410998 5.94752994,2.47619048 C5.96064992,2.51841837 5.94969258,2.56477324 5.91934362,2.59572562 L5.74806306,2.77068027 L5.78850431,3.01785714 C5.79571308,3.06148526 5.77848411,3.10555556 5.7443145,3.13171769 C5.72506706,3.14638322 5.70199897,3.15390023 5.67893089,3.15390023 Z" id="Path"></path>
                <path d="M5.67893089,5.17464853 C5.66126938,5.17464853 5.64353579,5.17030045 5.62717186,5.16138322 L5.41537797,5.04464853 L5.203512,5.16138322 C5.18722016,5.17030045 5.16948657,5.17464853 5.15175297,5.17464853 C5.12868489,5.17464853 5.10568888,5.16713152 5.08629727,5.15246599 C5.05212767,5.12645125 5.0348266,5.08223356 5.04210747,5.03853175 L5.08247662,4.79142857 L4.91119606,4.61647392 C4.88084711,4.58552154 4.86988977,4.53916667 4.88300974,4.49701247 C4.89605763,4.45478458 4.93087603,4.42405329 4.9729032,4.41771542 L5.20978363,4.3817517 L5.31560849,4.15675737 C5.3344234,4.11710884 5.37299036,4.09197846 5.41537797,4.09197846 C5.45762141,4.09197846 5.49640463,4.11710884 5.51500328,4.15675737 L5.62097231,4.3817517 L5.85785275,4.41771542 C5.89987992,4.42420068 5.93455414,4.45485828 5.94752994,4.49701247 C5.96064992,4.53916667 5.94969258,4.58552154 5.91934362,4.61647392 L5.74806306,4.79142857 L5.78850431,5.03853175 C5.79571308,5.08223356 5.77848411,5.12645125 5.7443145,5.15246599 C5.72506706,5.16713152 5.70199897,5.17464853 5.67893089,5.17464853 Z" id="Path"></path>
                <path d="M5.67893089,7.19539683 C5.66126938,7.19539683 5.64353579,7.19119615 5.62717186,7.18205782 L5.41537797,7.06539683 L5.203512,7.18205782 C5.18722016,7.19112245 5.16948657,7.19539683 5.15175297,7.19539683 C5.12868489,7.19539683 5.10568888,7.18802721 5.08629727,7.17321429 C5.05212767,7.14719955 5.0348266,7.10290816 5.04210747,7.05935374 L5.08247662,6.81217687 L4.91119606,6.63729592 C4.88084711,6.60641723 4.86988977,6.55998866 4.88300974,6.51768707 C4.89605763,6.47553288 4.93087603,6.44487528 4.9729032,6.43846372 L5.20978363,6.4025737 L5.31560849,6.17765306 C5.3344234,6.13793084 5.37299036,6.11265306 5.41537797,6.11265306 C5.45762141,6.11265306 5.49640463,6.13793084 5.51500328,6.17765306 L5.62097231,6.4025737 L5.85785275,6.43846372 C5.89987992,6.44494898 5.93455414,6.47560658 5.94752994,6.51768707 C5.96064992,6.55991497 5.94969258,6.60634354 5.91934362,6.63729592 L5.74806306,6.81217687 L5.78850431,7.05935374 C5.79571308,7.10290816 5.77848411,7.14712585 5.7443145,7.17321429 C5.72506706,7.18802721 5.70199897,7.19539683 5.67893089,7.19539683 Z" id="Path"></path>
                <path d="M5.67893089,9.21607143 C5.66126938,9.21607143 5.64353579,9.21172336 5.62717186,9.20273243 L5.41537797,9.08614512 L5.203512,9.20273243 C5.18722016,9.21172336 5.16948657,9.21607143 5.15175297,9.21607143 C5.12868489,9.21607143 5.10568888,9.20870181 5.08629727,9.19388889 C5.05212767,9.16794785 5.0348266,9.12365646 5.04210747,9.08002834 L5.08247662,8.83292517 L4.91119606,8.65811791 C4.88084711,8.62709184 4.86988977,8.58066327 4.88300974,8.53850907 C4.89605763,8.49628118 4.93087603,8.46554989 4.9729032,8.45913832 L5.20978363,8.4231746 L5.31560849,8.19840136 C5.3344234,8.15867914 5.37299036,8.13347506 5.41537797,8.13347506 C5.45762141,8.13347506 5.49640463,8.15867914 5.51500328,8.19840136 L5.62097231,8.4231746 L5.85785275,8.45913832 C5.89987992,8.46554989 5.93455414,8.49628118 5.94752994,8.53850907 C5.96064992,8.58066327 5.94969258,8.62709184 5.91934362,8.65811791 L5.74806306,8.83292517 L5.78850431,9.08002834 C5.79571308,9.12365646 5.77848411,9.16794785 5.7443145,9.19388889 C5.72506706,9.20877551 5.70199897,9.21607143 5.67893089,9.21607143 Z" id="Path"></path>
                <path d="M9.36146288,2.14352608 C9.34387346,2.14352608 9.32599569,2.1393254 9.30963177,2.13018707 L9.09783788,2.01352608 L8.88604399,2.13018707 C8.86968007,2.1392517 8.85194647,2.14352608 8.83421288,2.14352608 C8.81114479,2.14352608 8.78822088,2.13615646 8.76875718,2.12134354 C8.73458757,2.0953288 8.71728651,2.05118481 8.72463946,2.00755669 L8.76500861,1.76030612 L8.59365597,1.58542517 C8.56330701,1.55439909 8.55227758,1.50811791 8.56546965,1.46596372 C8.57851753,1.42373583 8.61326384,1.39300454 8.65529102,1.38666667 L8.89209936,1.35062925 L8.9980684,1.12578231 C9.01681122,1.08598639 9.05545027,1.06078231 9.09776579,1.06078231 C9.14008132,1.06078231 9.17879245,1.08598639 9.19746319,1.12578231 L9.30350431,1.35062925 L9.54024057,1.38666667 C9.58219565,1.39307823 9.61694196,1.42373583 9.62991776,1.46596372 C9.64310982,1.50811791 9.63215248,1.55439909 9.60173144,1.58542517 L9.43037879,1.76030612 L9.47089212,2.00755669 C9.47802881,2.05118481 9.46087192,2.0953288 9.42663023,2.12134354 C9.40752697,2.13608277 9.38453097,2.14352608 9.36146288,2.14352608 Z" id="Path"></path>
                <path d="M9.36146288,4.16420068 C9.34387346,4.16420068 9.32599569,4.1600737 9.30963177,4.15086168 L9.09783788,4.03412698 L8.88604399,4.15086168 C8.86968007,4.16 8.85194647,4.16420068 8.83421288,4.16420068 C8.81114479,4.16420068 8.78822088,4.15683107 8.76875718,4.14201814 C8.73458757,4.1160034 8.71728651,4.07185941 8.72463946,4.0280839 L8.76500861,3.78098073 L8.59365597,3.60602608 C8.56330701,3.57522109 8.55227758,3.52871882 8.56546965,3.48663832 C8.57851753,3.44448413 8.61326384,3.41382653 8.65529102,3.40726757 L8.89209936,3.37130385 L8.9980684,3.14645692 C9.01681122,3.10673469 9.05545027,3.08160431 9.09776579,3.08160431 C9.14008132,3.08160431 9.17879245,3.10673469 9.19746319,3.14645692 L9.30350431,3.37130385 L9.54024057,3.40726757 C9.58219565,3.41382653 9.61694196,3.44448413 9.62991776,3.48663832 C9.64310982,3.52871882 9.63215248,3.57522109 9.60173144,3.60602608 L9.43037879,3.78098073 L9.47089212,4.0280839 C9.47802881,4.07193311 9.46087192,4.11592971 9.42663023,4.14201814 C9.40752697,4.15690476 9.38453097,4.16420068 9.36146288,4.16420068 Z" id="Path"></path>
                <path d="M9.36146288,6.18502268 C9.34387346,6.18502268 9.32599569,6.1806746 9.30963177,6.17168367 L9.09783788,6.05509637 L8.88604399,6.17168367 C8.86968007,6.1807483 8.85194647,6.18502268 8.83421288,6.18502268 C8.81114479,6.18502268 8.78822088,6.17757937 8.76875718,6.16284014 C8.73458757,6.1367517 8.71728651,6.09260771 8.72463946,6.04905329 L8.76500861,5.80187642 L8.59365597,5.62706916 C8.56330701,5.59596939 8.55227758,5.54954082 8.56546965,5.50746032 C8.57851753,5.46530612 8.61326384,5.43450113 8.65529102,5.42808957 L8.89209936,5.39212585 L8.9980684,5.16727891 C9.01681122,5.12763039 9.05545027,5.1025 9.09776579,5.1025 C9.14008132,5.1025 9.17879245,5.12763039 9.19746319,5.16727891 L9.30350431,5.39212585 L9.54024057,5.42808957 C9.58219565,5.43457483 9.61694196,5.46537982 9.62991776,5.50746032 C9.64310982,5.54954082 9.63215248,5.59596939 9.60173144,5.62706916 L9.43037879,5.80187642 L9.47089212,6.04905329 C9.47802881,6.09260771 9.46087192,6.1367517 9.42663023,6.16284014 C9.40752697,6.17757937 9.38453097,6.18502268 9.36146288,6.18502268 Z" id="Path"></path>
                <path d="M9.36146288,8.20577098 C9.34387346,8.20577098 9.32599569,8.2014229 9.30963177,8.19243197 L9.09783788,8.07569728 L8.88604399,8.19243197 C8.86968007,8.2014966 8.85194647,8.20577098 8.83421288,8.20577098 C8.81114479,8.20577098 8.78822088,8.19840136 8.76875718,8.18351474 C8.73458757,8.1575 8.71728651,8.11328231 8.72463946,8.0696542 L8.76500861,7.82262472 L8.59365597,7.64767007 C8.56330701,7.61671769 8.55227758,7.57028912 8.56546965,7.52813492 C8.57851753,7.48598073 8.61326384,7.45517574 8.65529102,7.44876417 L8.89209936,7.41280045 L8.9980684,7.18795351 C9.01681122,7.14830499 9.05545027,7.12310091 9.09776579,7.12310091 C9.14008132,7.12310091 9.17879245,7.14837868 9.19746319,7.18795351 L9.30350431,7.41280045 L9.54024057,7.44876417 C9.58219565,7.45524943 9.61694196,7.48605442 9.62991776,7.52813492 C9.64310982,7.57028912 9.63215248,7.61671769 9.60173144,7.64767007 L9.43037879,7.82262472 L9.47089212,8.0696542 C9.47802881,8.11328231 9.46087192,8.1575 9.42663023,8.18351474 C9.40752697,8.19840136 9.38453097,8.20577098 9.36146288,8.20577098 Z" id="Path"></path>
                <path d="M8.10937028,1.13315193 C8.09185295,1.13315193 8.07397518,1.12895125 8.05753917,1.11973923 L7.84574528,1.00315193 L7.63395139,1.11973923 C7.61765956,1.12887755 7.59978179,1.13315193 7.58226446,1.13315193 C7.55912428,1.13315193 7.53620037,1.12570862 7.51666458,1.11089569 C7.48249498,1.08495465 7.465266,1.04066327 7.47254686,0.997035147 L7.51291602,0.749858277 L7.34163546,0.574977324 C7.31128651,0.543951247 7.30032916,0.497596372 7.31344914,0.455442177 C7.32656911,0.413214286 7.36138751,0.382482993 7.4033426,0.376071429 L7.64022303,0.34010771 L7.74611998,0.115187075 C7.7648628,0.0754648526 7.80357393,0.0503344671 7.84581737,0.0503344671 C7.88820498,0.0503344671 7.92684403,0.0755385488 7.94551477,0.115187075 L8.0514838,0.34010771 L8.28829215,0.376071429 C8.33024723,0.382556689 8.36513772,0.413214286 8.37811352,0.455442177 C8.39130558,0.497596372 8.38034824,0.543951247 8.34992719,0.574977324 L8.17857455,0.749858277 L8.21901579,0.997035147 C8.22622457,1.04066327 8.20899559,1.08488095 8.17482598,1.11089569 C8.15550646,1.12563492 8.13251046,1.13315193 8.10937028,1.13315193 Z" id="Path"></path>
                <path d="M8.10937028,3.15390023 C8.09185295,3.15390023 8.07397518,3.14947846 8.05753917,3.14056122 L7.84574528,3.02390023 L7.63395139,3.14056122 C7.61765956,3.14955215 7.59978179,3.15390023 7.58226446,3.15390023 C7.55912428,3.15390023 7.53620037,3.14638322 7.51666458,3.13171769 C7.48249498,3.10555556 7.465266,3.06148526 7.47254686,3.01785714 L7.51291602,2.77068027 L7.34163546,2.59572562 C7.31128651,2.56477324 7.30032916,2.51841837 7.31344914,2.47619048 C7.32656911,2.43403628 7.36138751,2.40337868 7.4033426,2.39696712 L7.64022303,2.36092971 L7.74611998,2.13608277 C7.7648628,2.09636054 7.80357393,2.07115646 7.84581737,2.07115646 C7.88820498,2.07115646 7.92684403,2.09643424 7.94551477,2.13608277 L8.0514838,2.36092971 L8.28829215,2.39696712 C8.33024723,2.40337868 8.36513772,2.43410998 8.37811352,2.47619048 C8.39130558,2.51841837 8.38034824,2.56477324 8.34992719,2.59572562 L8.17857455,2.77068027 L8.21901579,3.01785714 C8.22622457,3.06148526 8.20899559,3.10555556 8.17482598,3.13171769 C8.15550646,3.14638322 8.13251046,3.15390023 8.10937028,3.15390023 Z" id="Path"></path>
                <path d="M8.10937028,5.17464853 C8.09185295,5.17464853 8.07397518,5.17030045 8.05753917,5.16138322 L7.84574528,5.04464853 L7.63395139,5.16138322 C7.61765956,5.17030045 7.59978179,5.17464853 7.58226446,5.17464853 C7.55912428,5.17464853 7.53620037,5.16713152 7.51666458,5.15246599 C7.48249498,5.12645125 7.465266,5.08223356 7.47254686,5.03853175 L7.51291602,4.79142857 L7.34163546,4.61647392 C7.31128651,4.58552154 7.30032916,4.53916667 7.31344914,4.49701247 C7.32656911,4.45478458 7.36138751,4.42405329 7.4033426,4.41771542 L7.64022303,4.3817517 L7.74611998,4.15675737 C7.7648628,4.11710884 7.80357393,4.09197846 7.84581737,4.09197846 C7.88820498,4.09197846 7.92684403,4.11710884 7.94551477,4.15675737 L8.0514838,4.3817517 L8.28829215,4.41771542 C8.33024723,4.42420068 8.36513772,4.45485828 8.37811352,4.49701247 C8.39130558,4.53916667 8.38034824,4.58552154 8.34992719,4.61647392 L8.17857455,4.79142857 L8.21901579,5.03853175 C8.22622457,5.08223356 8.20899559,5.12645125 8.17482598,5.15246599 C8.15550646,5.16713152 8.13251046,5.17464853 8.10937028,5.17464853 Z" id="Path"></path>
                <path d="M8.10937028,7.19539683 C8.09185295,7.19539683 8.07397518,7.19119615 8.05753917,7.18205782 L7.84574528,7.06539683 L7.63395139,7.18205782 C7.61765956,7.19112245 7.59978179,7.19539683 7.58226446,7.19539683 C7.55912428,7.19539683 7.53620037,7.18802721 7.51666458,7.17321429 C7.48249498,7.14719955 7.465266,7.10290816 7.47254686,7.05935374 L7.51291602,6.81217687 L7.34163546,6.63729592 C7.31128651,6.60641723 7.30032916,6.55998866 7.31344914,6.51768707 C7.32656911,6.47553288 7.36138751,6.44487528 7.4033426,6.43846372 L7.64022303,6.4025737 L7.74611998,6.17765306 C7.7648628,6.13793084 7.80357393,6.11265306 7.84581737,6.11265306 C7.88820498,6.11265306 7.92684403,6.13793084 7.94551477,6.17765306 L8.0514838,6.4025737 L8.28829215,6.43846372 C8.33024723,6.44494898 8.36513772,6.47560658 8.37811352,6.51768707 C8.39130558,6.55991497 8.38034824,6.60634354 8.34992719,6.63729592 L8.17857455,6.81217687 L8.21901579,7.05935374 C8.22622457,7.10290816 8.20899559,7.14712585 8.17482598,7.17321429 C8.15550646,7.18802721 8.13251046,7.19539683 8.10937028,7.19539683 Z" id="Path"></path>
                <path d="M8.10937028,9.21607143 C8.09185295,9.21607143 8.07397518,9.21172336 8.05753917,9.20273243 L7.84574528,9.08614512 L7.63395139,9.20273243 C7.61765956,9.21172336 7.59978179,9.21607143 7.58226446,9.21607143 C7.55912428,9.21607143 7.53620037,9.20870181 7.51666458,9.19388889 C7.48249498,9.16794785 7.465266,9.12365646 7.47254686,9.08002834 L7.51291602,8.83292517 L7.34163546,8.65811791 C7.31128651,8.62709184 7.30032916,8.58066327 7.31344914,8.53850907 C7.32656911,8.49628118 7.36138751,8.46554989 7.4033426,8.45913832 L7.64022303,8.4231746 L7.74611998,8.19840136 C7.7648628,8.15867914 7.80357393,8.13347506 7.84581737,8.13347506 C7.88820498,8.13347506 7.92684403,8.15867914 7.94551477,8.19840136 L8.0514838,8.4231746 L8.28829215,8.45913832 C8.33024723,8.46554989 8.36513772,8.49628118 8.37811352,8.53850907 C8.39130558,8.58066327 8.38034824,8.62709184 8.34992719,8.65811791 L8.17857455,8.83292517 L8.21901579,9.08002834 C8.22622457,9.12365646 8.20899559,9.16794785 8.17482598,9.19388889 C8.15550646,9.20877551 8.13251046,9.21607143 8.10937028,9.21607143 Z" id="Path"></path>
                <path d="M11.7919023,2.14352608 C11.7742408,2.14352608 11.7565072,2.1393254 11.7400712,2.13018707 L11.5282052,2.01352608 L11.3164113,2.13018707 C11.3000474,2.1392517 11.2823138,2.14352608 11.2647244,2.14352608 C11.2415842,2.14352608 11.2186603,2.13615646 11.1993408,2.12134354 C11.165027,2.0953288 11.1476538,2.05118481 11.1551509,2.00755669 L11.195448,1.76030612 L11.0241675,1.58542517 C10.9938906,1.55439909 10.9828612,1.50811791 10.9959811,1.46596372 C11.0091011,1.42373583 11.0439195,1.39300454 11.0858746,1.38666667 L11.3226829,1.35062925 L11.428652,1.12578231 C11.4473227,1.08598639 11.4859618,1.06078231 11.5282773,1.06078231 C11.570737,1.06078231 11.6094481,1.08598639 11.6280468,1.12578231 L11.7340158,1.35062925 L11.9708962,1.38666667 C12.0127792,1.39307823 12.0475976,1.42373583 12.0605013,1.46596372 C12.0736213,1.50811791 12.0627361,1.55439909 12.032315,1.58542517 L11.8610345,1.76030612 L11.9014757,2.00755669 C11.9086845,2.05118481 11.8915276,2.0953288 11.857358,2.12134354 C11.8380385,2.13608277 11.8150425,2.14352608 11.7919023,2.14352608 Z" id="Path"></path>
                <path d="M11.7919023,4.16420068 C11.7742408,4.16420068 11.7565072,4.1600737 11.7400712,4.15086168 L11.5282052,4.03412698 L11.3164113,4.15086168 C11.3000474,4.16 11.2823138,4.16420068 11.2647244,4.16420068 C11.2415842,4.16420068 11.2186603,4.15683107 11.1993408,4.14201814 C11.165027,4.1160034 11.1476538,4.07185941 11.1551509,4.0280839 L11.195448,3.78098073 L11.0241675,3.60602608 C10.9938906,3.57522109 10.9828612,3.52871882 10.9959811,3.48663832 C11.0091011,3.44448413 11.0439195,3.41382653 11.0858746,3.40726757 L11.3226829,3.37130385 L11.428652,3.14645692 C11.4473227,3.10673469 11.4859618,3.08160431 11.5282773,3.08160431 C11.570737,3.08160431 11.6094481,3.10673469 11.6280468,3.14645692 L11.7340158,3.37130385 L11.9708962,3.40726757 C12.0127792,3.41382653 12.0475976,3.44448413 12.0605013,3.48663832 C12.0736213,3.52871882 12.0627361,3.57522109 12.032315,3.60602608 L11.8610345,3.78098073 L11.9014757,4.0280839 C11.9086845,4.07193311 11.8915276,4.11592971 11.857358,4.14201814 C11.8380385,4.15690476 11.8150425,4.16420068 11.7919023,4.16420068 Z" id="Path"></path>
                <path d="M11.7919023,6.18502268 C11.7742408,6.18502268 11.7565072,6.1806746 11.7400712,6.17168367 L11.5282052,6.05509637 L11.3164113,6.17168367 C11.3000474,6.1807483 11.2823138,6.18502268 11.2647244,6.18502268 C11.2415842,6.18502268 11.2186603,6.17757937 11.1993408,6.16284014 C11.165027,6.1367517 11.1476538,6.09260771 11.1551509,6.04905329 L11.195448,5.80187642 L11.0241675,5.62706916 C10.9938906,5.59596939 10.9828612,5.54954082 10.9959811,5.50746032 C11.0091011,5.46530612 11.0439195,5.43450113 11.0858746,5.42808957 L11.3226829,5.39212585 L11.428652,5.16727891 C11.4473227,5.12763039 11.4859618,5.1025 11.5282773,5.1025 C11.570737,5.1025 11.6094481,5.12763039 11.6280468,5.16727891 L11.7340158,5.39212585 L11.9708962,5.42808957 C12.0127792,5.43457483 12.0475976,5.46537982 12.0605013,5.50746032 C12.0736213,5.54954082 12.0627361,5.59596939 12.032315,5.62706916 L11.8610345,5.80187642 L11.9014757,6.04905329 C11.9086845,6.09260771 11.8915276,6.1367517 11.857358,6.16284014 C11.8380385,6.17757937 11.8150425,6.18502268 11.7919023,6.18502268 Z" id="Path"></path>
                <path d="M11.7919023,8.20577098 C11.7742408,8.20577098 11.7565072,8.2014229 11.7400712,8.19243197 L11.5282052,8.07569728 L11.3164113,8.19243197 C11.3000474,8.2014966 11.2823138,8.20577098 11.2647244,8.20577098 C11.2415842,8.20577098 11.2186603,8.19840136 11.1993408,8.18351474 C11.165027,8.1575 11.1476538,8.11328231 11.1551509,8.0696542 L11.195448,7.82262472 L11.0241675,7.64767007 C10.9938906,7.61671769 10.9828612,7.57028912 10.9959811,7.52813492 C11.0091011,7.48598073 11.0439195,7.45517574 11.0858746,7.44876417 L11.3226829,7.41280045 L11.428652,7.18795351 C11.4473227,7.14830499 11.4859618,7.12310091 11.5282773,7.12310091 C11.570737,7.12310091 11.6094481,7.14837868 11.6280468,7.18795351 L11.7340158,7.41280045 L11.9708962,7.44876417 C12.0127792,7.45524943 12.0475976,7.48605442 12.0605013,7.52813492 C12.0736213,7.57028912 12.0627361,7.61671769 12.032315,7.64767007 L11.8610345,7.82262472 L11.9014757,8.0696542 C11.9086845,8.11328231 11.8915276,8.1575 11.857358,8.18351474 C11.8380385,8.19840136 11.8150425,8.20577098 11.7919023,8.20577098 Z" id="Path"></path>
                <path d="M10.5398097,1.13315193 C10.5222924,1.13315193 10.5044146,1.12895125 10.4881227,1.11973923 L10.2762568,1.00315193 L10.0644629,1.11973923 C10.048171,1.12887755 10.0303654,1.13315193 10.0127039,1.13315193 C9.98963577,1.13315193 9.96663977,1.12570862 9.94724815,1.11089569 C9.91307855,1.08495465 9.89577748,1.04066327 9.90305835,0.997035147 L9.9434275,0.749858277 L9.77221903,0.574977324 C9.74179799,0.543951247 9.73091274,0.497596372 9.74396062,0.455442177 C9.7570806,0.413214286 9.79168273,0.382482993 9.83385408,0.376071429 L10.0706624,0.34010771 L10.1766315,0.115187075 C10.1953743,0.0754648526 10.2340133,0.0503344671 10.2763289,0.0503344671 C10.3187165,0.0503344671 10.3573555,0.0755385488 10.3760263,0.115187075 L10.4819953,0.34010771 L10.7188757,0.376071429 C10.7607587,0.382556689 10.7955771,0.413214286 10.8085529,0.455442177 C10.8216729,0.497596372 10.8107155,0.543951247 10.7803666,0.574977324 L10.6090139,0.749858277 L10.6495273,0.997035147 C10.6567361,1.04066327 10.6395071,1.08488095 10.6053375,1.11089569 C10.5858738,1.12563492 10.5629499,1.13315193 10.5398097,1.13315193 Z" id="Path"></path>
                <path d="M10.5398097,3.15390023 C10.5222924,3.15390023 10.5044146,3.14947846 10.4881227,3.14056122 L10.2762568,3.02390023 L10.0644629,3.14056122 C10.048171,3.14955215 10.0303654,3.15390023 10.0127039,3.15390023 C9.98963577,3.15390023 9.96663977,3.14638322 9.94724815,3.13171769 C9.91307855,3.10555556 9.89577748,3.06148526 9.90305835,3.01785714 L9.9434275,2.77068027 L9.77221903,2.59572562 C9.74179799,2.56477324 9.73091274,2.51841837 9.74396062,2.47619048 C9.7570806,2.43403628 9.79168273,2.40337868 9.83385408,2.39696712 L10.0706624,2.36092971 L10.1766315,2.13608277 C10.1953743,2.09636054 10.2340133,2.07115646 10.2763289,2.07115646 C10.3187165,2.07115646 10.3573555,2.09643424 10.3760263,2.13608277 L10.4819953,2.36092971 L10.7188757,2.39696712 C10.7607587,2.40337868 10.7955771,2.43410998 10.8085529,2.47619048 C10.8216729,2.51841837 10.8107155,2.56477324 10.7803666,2.59572562 L10.6090139,2.77068027 L10.6495273,3.01785714 C10.6567361,3.06148526 10.6395071,3.10555556 10.6053375,3.13171769 C10.5858738,3.14638322 10.5629499,3.15390023 10.5398097,3.15390023 Z" id="Path"></path>
                <path d="M10.5398097,5.17464853 C10.5222924,5.17464853 10.5044146,5.17030045 10.4881227,5.16138322 L10.2762568,5.04464853 L10.0644629,5.16138322 C10.048171,5.17030045 10.0303654,5.17464853 10.0127039,5.17464853 C9.98963577,5.17464853 9.96663977,5.16713152 9.94724815,5.15246599 C9.91307855,5.12645125 9.89577748,5.08223356 9.90305835,5.03853175 L9.9434275,4.79142857 L9.77221903,4.61647392 C9.74179799,4.58552154 9.73091274,4.53916667 9.74396062,4.49701247 C9.7570806,4.45478458 9.79168273,4.42405329 9.83385408,4.41771542 L10.0706624,4.3817517 L10.1766315,4.15675737 C10.1953743,4.11710884 10.2340133,4.09197846 10.2763289,4.09197846 C10.3187165,4.09197846 10.3573555,4.11710884 10.3760263,4.15675737 L10.4819953,4.3817517 L10.7188757,4.41771542 C10.7607587,4.42420068 10.7955771,4.45485828 10.8085529,4.49701247 C10.8216729,4.53916667 10.8107155,4.58552154 10.7803666,4.61647392 L10.6090139,4.79142857 L10.6495273,5.03853175 C10.6567361,5.08223356 10.6395071,5.12645125 10.6053375,5.15246599 C10.5858738,5.16713152 10.5629499,5.17464853 10.5398097,5.17464853 Z" id="Path"></path>
                <path d="M10.5398097,7.19539683 C10.5222924,7.19539683 10.5044146,7.19119615 10.4881227,7.18205782 L10.2762568,7.06539683 L10.0644629,7.18205782 C10.048171,7.19112245 10.0303654,7.19539683 10.0127039,7.19539683 C9.98963577,7.19539683 9.96663977,7.18802721 9.94724815,7.17321429 C9.91307855,7.14719955 9.89577748,7.10290816 9.90305835,7.05935374 L9.9434275,6.81217687 L9.77221903,6.63729592 C9.74179799,6.60641723 9.73091274,6.55998866 9.74396062,6.51768707 C9.7570806,6.47553288 9.79168273,6.44487528 9.83385408,6.43846372 L10.0706624,6.4025737 L10.1766315,6.17765306 C10.1953743,6.13793084 10.2340133,6.11265306 10.2763289,6.11265306 C10.3187165,6.11265306 10.3573555,6.13793084 10.3760263,6.17765306 L10.4819953,6.4025737 L10.7188757,6.43846372 C10.7607587,6.44494898 10.7955771,6.47560658 10.8085529,6.51768707 C10.8216729,6.55991497 10.8107155,6.60634354 10.7803666,6.63729592 L10.6090139,6.81217687 L10.6495273,7.05935374 C10.6567361,7.10290816 10.6395071,7.14712585 10.6053375,7.17321429 C10.5858738,7.18802721 10.5629499,7.19539683 10.5398097,7.19539683 Z" id="Path"></path>
                <path d="M10.5398097,9.21607143 C10.5222924,9.21607143 10.5044146,9.21172336 10.4881227,9.20273243 L10.2762568,9.08614512 L10.0644629,9.20273243 C10.048171,9.21172336 10.0303654,9.21607143 10.0127039,9.21607143 C9.98963577,9.21607143 9.96663977,9.20870181 9.94724815,9.19388889 C9.91307855,9.16794785 9.89577748,9.12365646 9.90305835,9.08002834 L9.9434275,8.83292517 L9.77221903,8.65811791 C9.74179799,8.62709184 9.73091274,8.58066327 9.74396062,8.53850907 C9.7570806,8.49628118 9.79168273,8.46554989 9.83385408,8.45913832 L10.0706624,8.4231746 L10.1766315,8.19840136 C10.1953743,8.15867914 10.2340133,8.13347506 10.2763289,8.13347506 C10.3187165,8.13347506 10.3573555,8.15867914 10.3760263,8.19840136 L10.4819953,8.4231746 L10.7188757,8.45913832 C10.7607587,8.46554989 10.7955771,8.49628118 10.8085529,8.53850907 C10.8216729,8.58066327 10.8107155,8.62709184 10.7803666,8.65811791 L10.6090139,8.83292517 L10.6495273,9.08002834 C10.6567361,9.12365646 10.6395071,9.16794785 10.6053375,9.19388889 C10.5858738,9.20877551 10.5629499,9.21607143 10.5398097,9.21607143 Z" id="Path"></path>
                <path d="M12.9704653,1.13315193 C12.9527317,1.13315193 12.9349261,1.12895125 12.9186342,1.11973923 L12.7068403,1.00315193 L12.4949744,1.11973923 C12.4786104,1.12887755 12.4608048,1.13315193 12.4432874,1.13315193 C12.4201473,1.13315193 12.3972233,1.12570862 12.3776876,1.11089569 C12.3435179,1.08495465 12.3262169,1.04066327 12.3334977,0.997035147 L12.373939,0.749858277 L12.2025143,0.574977324 C12.1721653,0.543951247 12.16128,0.497596372 12.1744,0.455442177 C12.1874479,0.413214286 12.2223384,0.382482993 12.2642214,0.376071429 L12.5010297,0.34010771 L12.6069267,0.115187075 C12.6256695,0.0754648526 12.6643806,0.0503344671 12.7066962,0.0503344671 C12.7490117,0.0503344671 12.7876507,0.0755385488 12.8063215,0.115187075 L12.9124347,0.34010771 L13.1491709,0.376071429 C13.191126,0.382556689 13.2258723,0.413214286 13.2389923,0.455442177 C13.2521844,0.497596372 13.2412991,0.543951247 13.2108781,0.574977324 L13.0393813,0.749858277 L13.0799667,0.997035147 C13.0871034,1.04066327 13.0698023,1.08488095 13.0356327,1.11089569 C13.0163853,1.12563492 12.9933893,1.13315193 12.9704653,1.13315193 Z" id="Path"></path>
                <path d="M12.9704653,3.15390023 C12.9527317,3.15390023 12.9349261,3.14947846 12.9186342,3.14056122 L12.7068403,3.02390023 L12.4949744,3.14056122 C12.4786104,3.14955215 12.4608048,3.15390023 12.4432874,3.15390023 C12.4201473,3.15390023 12.3972233,3.14638322 12.3776876,3.13171769 C12.3435179,3.10555556 12.3262169,3.06148526 12.3334977,3.01785714 L12.373939,2.77068027 L12.2025143,2.59572562 C12.1721653,2.56477324 12.16128,2.51841837 12.1744,2.47619048 C12.1874479,2.43403628 12.2223384,2.40337868 12.2642214,2.39696712 L12.5010297,2.36092971 L12.6069267,2.13608277 C12.6256695,2.09636054 12.6643806,2.07115646 12.7066962,2.07115646 C12.7490117,2.07115646 12.7876507,2.09643424 12.8063215,2.13608277 L12.9124347,2.36092971 L13.1491709,2.39696712 C13.191126,2.40337868 13.2258723,2.43410998 13.2389923,2.47619048 C13.2521844,2.51841837 13.2412991,2.56477324 13.2108781,2.59572562 L13.0393813,2.77068027 L13.0799667,3.01785714 C13.0871034,3.06148526 13.0698023,3.10555556 13.0356327,3.13171769 C13.0163853,3.14638322 12.9933893,3.15390023 12.9704653,3.15390023 Z" id="Path"></path>
                <path d="M12.9704653,5.17464853 C12.9527317,5.17464853 12.9349261,5.17030045 12.9186342,5.16138322 L12.7068403,5.04464853 L12.4949744,5.16138322 C12.4786104,5.17030045 12.4608048,5.17464853 12.4432874,5.17464853 C12.4201473,5.17464853 12.3972233,5.16713152 12.3776876,5.15246599 C12.3435179,5.12645125 12.3262169,5.08223356 12.3334977,5.03853175 L12.373939,4.79142857 L12.2025143,4.61647392 C12.1721653,4.58552154 12.16128,4.53916667 12.1744,4.49701247 C12.1874479,4.45478458 12.2223384,4.42405329 12.2642214,4.41771542 L12.5010297,4.3817517 L12.6069267,4.15675737 C12.6256695,4.11710884 12.6643806,4.09197846 12.7066962,4.09197846 C12.7490117,4.09197846 12.7876507,4.11710884 12.8063215,4.15675737 L12.9124347,4.3817517 L13.1491709,4.41771542 C13.191126,4.42420068 13.2258723,4.45485828 13.2389923,4.49701247 C13.2521844,4.53916667 13.2412991,4.58552154 13.2108781,4.61647392 L13.0393813,4.79142857 L13.0799667,5.03853175 C13.0871034,5.08223356 13.0698023,5.12645125 13.0356327,5.15246599 C13.0163853,5.16713152 12.9933893,5.17464853 12.9704653,5.17464853 Z" id="Path"></path>
                <path d="M12.9704653,7.19539683 C12.9527317,7.19539683 12.9349261,7.19119615 12.9186342,7.18205782 L12.7068403,7.06539683 L12.4949744,7.18205782 C12.4786104,7.19112245 12.4608048,7.19539683 12.4432874,7.19539683 C12.4201473,7.19539683 12.3972233,7.18802721 12.3776876,7.17321429 C12.3435179,7.14719955 12.3262169,7.10290816 12.3334977,7.05935374 L12.373939,6.81217687 L12.2025143,6.63729592 C12.1721653,6.60641723 12.16128,6.55998866 12.1744,6.51768707 C12.1874479,6.47553288 12.2223384,6.44487528 12.2642214,6.43846372 L12.5010297,6.4025737 L12.6069267,6.17765306 C12.6256695,6.13793084 12.6643806,6.11265306 12.7066962,6.11265306 C12.7490117,6.11265306 12.7876507,6.13793084 12.8063215,6.17765306 L12.9124347,6.4025737 L13.1491709,6.43846372 C13.191126,6.44494898 13.2258723,6.47560658 13.2389923,6.51768707 C13.2521844,6.55991497 13.2412991,6.60634354 13.2108781,6.63729592 L13.0393813,6.81217687 L13.0799667,7.05935374 C13.0871034,7.10290816 13.0698023,7.14712585 13.0356327,7.17321429 C13.0163853,7.18802721 12.9933893,7.19539683 12.9704653,7.19539683 Z" id="Path"></path>
                <path d="M12.9704653,9.21607143 C12.9527317,9.21607143 12.9349261,9.21172336 12.9186342,9.20273243 L12.7068403,9.08614512 L12.4949744,9.20273243 C12.4786104,9.21172336 12.4608048,9.21607143 12.4432874,9.21607143 C12.4201473,9.21607143 12.3972233,9.20870181 12.3776876,9.19388889 C12.3435179,9.16794785 12.3262169,9.12365646 12.3334977,9.08002834 L12.373939,8.83292517 L12.2025143,8.65811791 C12.1721653,8.62709184 12.16128,8.58066327 12.1744,8.53850907 C12.1874479,8.49628118 12.2223384,8.46554989 12.2642214,8.45913832 L12.5010297,8.4231746 L12.6069267,8.19840136 C12.6256695,8.15867914 12.6643806,8.13347506 12.7066962,8.13347506 C12.7490117,8.13347506 12.7876507,8.15867914 12.8063215,8.19840136 L12.9124347,8.4231746 L13.1491709,8.45913832 C13.191126,8.46554989 13.2258723,8.49628118 13.2389923,8.53850907 C13.2521844,8.58066327 13.2412991,8.62709184 13.2108781,8.65811791 L13.0393813,8.83292517 L13.0799667,9.08002834 C13.0871034,9.12365646 13.0698023,9.16794785 13.0356327,9.19388889 C13.0163853,9.20877551 12.9933893,9.21607143 12.9704653,9.21607143 Z" id="Path"></path>
            </g>
            <rect id="Rectangle" fill="#000000" opacity="0.1" x="-1.5476509e-13" y="17.8571429" width="2.09433962" height="2.14285714"></rect>
            <path d="M2.62869887,24.2894716 L2.62869887,22.8571429 L1.97841743e-13,22.8571429 L1.97841743e-13,24.2894716 C1.97841743e-13,24.6802985 0.38779625,25 0.86186717,25 L3.49056604,25 C3.01649512,24.9999341 2.62869887,24.6802326 2.62869887,24.2894716 Z" id="Path" fill="#000000" opacity="0.1"></path>
        </g>
    </g>
</svg>